<?xml version="1.0" encoding="UTF-8"?>
<svg id="Layer_1" xmlns="http://www.w3.org/2000/svg" version="1.1" viewBox="0 0 135 34.1">
  <!-- Generator: Adobe Illustrator 29.2.1, SVG Export Plug-In . SVG Version: 2.1.0 Build 116)  -->
  <defs>
    <style>
      .st0 {
        fill: #3f3f3f;
      }
    </style>
  </defs>
  <path class="st0" d="M0,24c0-7,5.4-11.5,11.2-11.5s7.5,1.2,7.5,2.4-1.6,2.7-2.8,2.7-3-1.3-6.2-4.4c-3.6.5-5.9,4.1-5.9,8.1s3.3,9.3,8.6,9.3,5.4-1.3,7.2-3.3l.4.4c-1.9,2.9-5.2,6.2-10,6.2S0,30.5,0,24Z"/>
  <path class="st0" d="M24.4,33.1c1.4-.5,1.7-1.7,1.7-4.7V6.3c0-2.5-.6-2.9-1.7-3.3v-.6l5.5-2.4.4.3v28c0,3,.3,4.2,1.7,4.7v.6h-7.6v-.6Z"/>
  <path class="st0" d="M38,23.8c0-6.7,5.4-11.2,11.1-11.2s11.1,3,11.1,10.4-6.2,11.1-11.1,11.1-11.1-3.2-11.1-10.3ZM56,26.1c0-5.3-3.6-13.2-9-12.7-3.6.4-4.8,3.7-4.8,7.3s2.9,12.5,8.4,12.5,5.4-3.5,5.4-7.1Z"/>
  <path class="st0" d="M63.7,13.4v-.6h7.1v.6c-1.4.5-.8,1.5.4,4.3l4.9,11.7,4.5-11.6c1-2.8.7-4-.7-4.4v-.6h4.4v.6c-1.2.4-2,1.5-3.1,4.4l-6.1,15.8h-2l-6.7-15.9c-1.2-2.7-2-3.9-3-4.3Z"/>
  <path class="st0" d="M87.1,24c0-7.1,5.5-11.5,10.9-11.5s8.6,3.9,8.6,7.5h-15.8c0,.5,0,.9,0,1.3,0,5.4,3.3,9.3,8.6,9.3s5.4-1.3,7.2-3.3l.4.4c-1.9,2.9-5.2,6.2-10,6.2s-9.9-3.3-9.9-10ZM102.4,19.5c-.5-3.4-2.8-6.1-5.7-6.2-3.5,0-5.3,2.9-5.8,6.2h11.5Z"/>
  <path class="st0" d="M112.5,33.1c1.4-.5,1.7-1.7,1.7-4.7v-9.6c0-2.5-.6-2.9-1.7-3.3v-.6l5.5-2.4.4.3v3.5c2.3-1.9,5.3-3.7,8.5-3.7s6.4,2,6.4,6.9v8.9c0,3,.3,4.2,1.7,4.7v.6h-7.6v-.6c1.4-.5,1.7-1.7,1.7-4.7v-8.2c0-3.7-1.6-5.9-4.7-5.9s-3.7,1-6,2.8v11.4c0,3,.3,4.2,1.7,4.7v.6h-7.6v-.6Z"/>
</svg>