<?xml version="1.0" encoding="UTF-8"?>
<svg id="Layer_1" xmlns="http://www.w3.org/2000/svg" version="1.1" viewBox="0 0 120 194.4">
  <!-- Generator: Adobe Illustrator 29.2.1, SVG Export Plug-In . SVG Version: 2.1.0 Build 116)  -->
  <defs>
    <style>
      .st0 {
        fill: #bf9b89;
      }
    </style>
  </defs>
  <g id="Tv8Au6">
    <g>
      <path class="st0" d="M95.9,178c-.1.7.3.3.6.5.5.3.4,1.3-.6.6s0-.6-.8-.1l.3,1c.3,0,0-.3.4-.3.7,0,.9.6.6.6-1,.2,0,.5.1.7.2.4-.4.3-.3.6,0,.3.6.1.6,0s-.1-.2,0-.3c.1-.5.4-.7,0-1.2.8-.1,1.1.8,1.8,1,.1.6-.5.7-.6.8-.4.4.7.2.8.3s0,.6-.2.6-.1-.2-.3-.2-.5.1-.5,0-.2-.6-.2-.7c0,0,.3,0,.3-.2,0-.2-.2-.4-.2-.6s.4,0,.3-.2c-.9-.2-.4.7-.4.8s-.3,0-.4,0c-.6.4-.7.7-.4,1.3s.1.6.2,1.1.9,3.2.7,3.3c-.4.4-.9-1.1-.9-1.5l-.3.2c-.1-.5-.3-1.1-.5-1.6-2.4-6.4-5.3-12.3-8.2-18.4s-1.5-4.5-3.5-6-2.1-.2-3.1-.2c-2.9,0-4.2-2.5-6.3-3.3s-2.8-.2-4.2-.4c-2-.2-5.4-1.2-7.5-1.8s-.4,0-.6,0c-2.1-.5-3.6-3.2-5-4.5s-1.4-1.1-1.5-1.2c-.2,0-.3.4-.6.2,0,0,.1-.3.1-.5-.1-1-.3-1.1-.8-1.9s-.4-.9-.4-1c-.2-.2-.7-.1-.8-.3s.2-.6,0-.8-.7,0-1-.4c-.5-.5-.1-1-.2-1.3s-1.1-.5-1.2-1,.5-.3,0-.6-.7,0-.8-.1c-.2-.2-.2-.6-.4-.9-.3-.4-1.3-.8-1.4-1.1s.1-.7,0-.9-.8-.4-1.1-.6-1.5-1.5-1.6-1.8c-.3-.5-.3-1.7-.5-2s-1.3-1.3-1.4-1.4c-.5-.3-1.9-.6-2.2-1.1s-.2-1.1-.5-1.6c-1.8-3.1-.7-6.2-1.5-9.3s-1.1-2.2-1.3-3.1.2-.5.3-.9-.3-1.5-.3-1.8.3-.3.4-.6c.1-.7-.6-1.7-.7-2.5s.4-1.2.1-1.8-.4-.4-.4-.5.1-.9.1-.9c0,0,1.2-.2,1.5-.3s.2-.2.4-.3c.3-.1.7-.1,1-.3s.2-.6.3-.6,1,.2,1.4.1.8-.7,1.6-.8.7.2,1,.2.4-.3.7-.2.4.5.7.4c0-1.3,1.2-.3,2-.3s2,0,3,0,.4-.2.6-.2.5.5.8.5.5-.1.7-.1c.7,0,2,1.1,2.8,1.3s.5-.1.8,0,.6.6.9.7.5-.2.8-.1.7.6.9.8c.5.4,1.4.9,2,1.4s1.1,1.6,1.2,1.7c.1,0,.5-.2.9.1s.7,1.1.9,1.4.6.2.8.4.5.9.7,1.1.6.3.8.5.8,1.1.9,1.2c.2.1.5,0,.8.2.5.5.3,1.4,1.6,1.3l2,3.2c.4,0,.1,0,.1-.3-.2-1.1-.5-2.3-.7-3.4-.6-2.6-1.3-5.3-2.5-7.7-.7.3-1.9,1.2-2.8.8s-.8-.9-.8-1c-.3-.6-.7-1.8-1.2-2.4s-1.1-.7-1.5-.8c-.6-.1-1.1.2-1.6.1s-1.5-.3-1.6-.3-.5-.9-.5-1c0-.4.4-.6.3-.9s-.5-.2-.4-.5h-.1c.2.5-.9.2-.9.1s.1-.9.2-.9.5,0,.6,0,0,.5.2.5,1.1-.3,1.1-.3c.3-.3-.6-.4-.5-.6.2-.1.7-.2.9-.4s0-.3,0-.3c0-.1.4-.1.4-.3,0-.5-1.7.1-1.8.2s-.2.5-.5.5c-.9.2-1.3-1-.7-1.1s.7.3.6-.3-1.3-.3-.9-.8,1.5,0,1.8-.4h.6c.1-.9-.7,0-1.1,0s-1.5-.5-1-.9,1.2.5,1-.2c-.6.1-.8-.2-.6-.8-.8.3-1-1-.4-1.1s.9.5,1.6,0c-.3-1.7-1.3-.5-1.9-.6s0-.3-.2-.3-.6.1-.8,0l-.5-.3c0-.3.4,0,.6-.2s.5-1.2,1.1-.5,0,.7,1,.5c0-.2,0-.4,0-.6s-2-.6-2.2-.9c0,.5.1.7-.5.6.2.4.2.6-.2.9-.5-.3-.4-.6-.2-1-.9.1-.6-.2-.4-.9,0,0,1.8.6,1.9.4s0-.6.3-.7c-.2-.2-.5.2-.8,0s0-.5-.2-.7-1,0-.6-.5.7-.2.8-.2.7.9,1.2.8c.1-1-.3-.6-.6-.9s0-.6-.3-.8h.6c-.2-.6-.9-.5-1.2-.7s-.6-1.3-1.2-.7-.2,2.8-.3,3.6-.5,1.3-.5,1.9,1,1.1,1,1.2c0,.1-.2.4-.1.6s.3.2.4.4,0,.4,0,.5c.4.3,1.8.1,1.5,1.1-.5,0-.9-.1-1.3-.4l-.4.5c.9-.2,1.7.5.8,1.1.7-.3,1,.5.5,1,.5.2.2.1,0,.5s.1.4-.3.5-.5-.5-.5-.5c0,0,.5-.4.4-.5-.5-.3-.9.1-1.1.1s-.3-.2-.5-.2c-.8-.1-1.6.2-2.3.5s-2.5,1.7-3,1.8-.4,0-.6,0c-.8.2-2,.9-1.5-.5-.5.1-1.7.3-2.2.1s-.2-.5-.3-.6-1.3,0-1.5-.4,0-.6,0-.7c-.1-.1-1.2,0-1.4,0-.7-.1-3.2-1.9-3.5-2.5s0-.8-.4-1.3-.8-.5-.9-.8.3-.5.2-.8-1-.9-1.1-1.2,0-.7,0-.7c0,0-.9-.5-1-.6-.2,0-.6,0-.8-.1s0-.4,0-.5c-.1-.2-.6,0-.9,0-2.1,0-.7-1-1-1.2-.6-.1-1.5.6-2,.5s-.1-.6-.3-.6c-.7-.2-2.1.6-2.3.4s-.1-.6-.2-.6c0,0-1.1.3-1.4.3s-.8-.3-.8-.3c-.1-.1,0-.4-.2-.5s-.4-.2-.6-.4,0-.4,0-.5c-.3-.5-1.4-.2-1.8-.4s0-.5-.2-.6c-.7-.6-2.3.1-1.4-1.2-1-.3-2.1-.2-1.4-1.5-1.7-.4-.7-.9-.8-1.3s-1.5-1-1.6-1.3.3-.3.2-.7-1-.7-1.1-1.2.1-.5,0-.7c-.2-.4-1.1-.4-1.2-1.1s.4-.4.3-.8-.6-1.7-.7-1.8c-.3-.5-.4-.5-.7-1.2s-.4-.5-.5-.7.2-.5.2-.6-.2,0-.3-.1c0-.1,0-2.1,0-2.2.2-.3,1.1-.5,1.4-.7s.2-.5.3-.6c.2-.2.9,0,1.2,0s1.2-.6,1.5-.8.2-.7.4-.7c.5-.1,1.2.3,1.8.2s.5-.8,1.1-.9,1,.5,1.4.4c-.3-1.3.9-.3,1.6-.4s.6-.5.7-.5c.2,0,.7.6,1.1.6.1,0,0-.4.2-.5s1.7.6,2,.7.3.4.3.4c.2.1.5-.9.6-1,.4-.5,1,.6,1.3.6s.5-.5.9-.5.7.8,1.2.7.2-.7.8-.6.8.9,1.1.9.6-.6,1-.6.8.6,1.1.7.5-.1.8,0,.3.4.6.4.6-.3,1-.2,1,.4.9.7c.8-1.3,1.3,0,1.4,0,.4,0,.7-.6,1.3,0s.4,1.1.7,1.1.4-.3.5-.4c.8-.3.8,1.4,1.4,1.3s.3-.4.8-.1.9,1.4,1,1.5c.2.1.5-.6,1.1,0l3.4,7.9c2,3.4,4.1,7.7,7.8,9.5s1,.5,1.4.5c-.4-.2-.5-.8-.7-1.1-1.1-1.2-1.6-1-2.2-2.8s-.7-2.7-.7-2.9c0-.8,1.4-1.6,2.2-1.6s1.2.9,1.8,1.1,1.6.4,2.6,1,1,1.1,1.6,1.7c.1,0,0-.1,0-.2-.2-.8-.9-2.1-1.2-3-1.6-4.6-3.2-9.2-4.8-13.8s-1.7-7.4-5.9-8.2-3.4.3-4.9-.5-1.5-2-2.5-2.3-1.1.1-1.1-.5.1-.5,0-.7c-.2-.6-1.8-.8-2.3-1.2-.1-.2.6-.9.2-1.2s-1,0-1.4-.4.2-.8-.1-1.1c-.7-.4-2.4.8-1.7-1-.7.1-1.8-.1-2.3-.7s-.2-.8-.5-.9c-.7-.3-2,0-2.3,0-.4-.3,0-1-.1-1.2-.2-.3-1.5,0-1.9-.2s-.2-.5-.2-.6-1.6.5-2,.1c.7-2-1.6-1-2.7-1.7l.3-.6c-.4,0-.9,0-1.2-.2s.1-.5-.1-.8-1.6-.2-1.9-.7.2-.5-.4-.8-1.7-.2-1.7-.3c-.1,0,0-.7-.2-.9s-.8-.5-.9-.5c-.4-.2-.9,0-1.3-.3-.5-.3-.2-1-.2-1.1-.1,0-1.3.1-1.7,0s-.1-1.6-.4-1.8-.9.4-1.2-.4.1-.5-.1-.8-1.7-.4-1.8-.5,0-.7,0-.9-1.1-.3-1.3-.6.2-.7,0-.9-1.3-.7-1.5-.9c-.3-.3-.2-.8-.7-1.1s-.8-.2-.8-.3.3-.8.2-1.1-1.4-.8-1.4-1c0-.3.3-.5.2-.7-.2-.3-1.1-.5-1.3-1.1s1.2-.3-.2-1-.8,0-.7-.6.3-.4.2-.5c0-.1-1.1-.5-1-1.5s.4-.5.2-1.1-.8-.4-.8-.6c0-.3.4-.9.3-1.1s-1-.5-1-.6c-.4-.5.3-.9.3-1.2,0-.7-1-.9-1.1-1.3s.9-1.1,0-1.7-.8,0-1.1-.5c-.5-.8.2-1.3.1-1.4s-1.2-.5-1.3-.8.2-.6,0-.9-1.1-.9-1.1-1c0-.3.2-.8,0-1s-.7-.7-.9-.8c-.2-.2-.2-.2-.5-.6S0,11.9,0,11.7c0-.3.2-.4.3-.6s-.5-.8-.1-1.1,1.5,0,2-.2.1-.6.4-.6c.6-.2,1.4.3,2.1-.3s.3-.6.5-.6.5.3.8.3c1.3.2,1.1-1,1.5-1.2.6-.2,2.5.6,2.6.4-.1-1.8,1.2-.2,2.1-.2s.3-.3.4-.4c.7-.5,1.9.4,2,.3.1-.1,0-.9.8-.7s.8.8,1.3,1.1.4,0,.6-.1c.9-.2,1.1,1.5,1.9,1.3s.3-.3.6-.2.6.6.8.7.7,0,1.1.1.2.4.3.6c.9,1,.7.3,1.6.6s.8,1.1,1.3,1.3.5-.1.9,0,.4.6.7.8.4,0,.7,0c.4.2.8.9,1.2,1.1s.9.2,1.2.5.5,1,.9,1.2.5-.3.8-.2.7,1.1,1,1.3.6-.2.9,0,.4.7.6.9.3.1.5.2,0,.5.3.2,0-.6.6-.2.8,1.1.9,1.2.2.6.2.7c0,0,.5-.2.7-.2.6,0,.4.5.5.8.9,1.5,1.2.5,1.5.6s.5.7.7.8.5.3.6.5c.1.3,0,.6.2,1s.8.4,1,.7.2.5.3.6.4,0,.6.1.3.6.5.8.4.2.6.3c.3.3.3,1.2.8,1.3s.5-.3.7,0,.2.9.5,1.3.5.2.7.4.1,1,.3,1.3.4.3.5.5.3,1.1.3,1.1c.1,0,.6,0,.7,0s.4,1.3.7,1.5l.2-1.1c.7.2.7,1.2,1,1.9.5,1.1,1.2,2.1,1.8,3.2,3.1,6.7,2.6,14.4,5.5,21.1l1.6,2.7c-.4-.7,0-1.2.1-1.7,0-.9,0-2-.2-2.9s-1.6-3-.6-3.1,3.4,3.5,3.7,4.3c1,2.4,0,3.9.3,6.2.3,4,1.8,7.6,3,11.3s1.8,7.1,3.6,10.3c.3.2,1.3-2.8,1.4-3,.2-.6.5-1.3.7-2,1.5-4.3-.3-8.5.3-13,.4-3.3,1.9-6.4,2.5-9.5s0-.9,0-1c.1-.2.5-.2.7-.1.2.1,0,1,.3,1,.3-.4.3-1.8.4-2s.6,0,.7-.2.3-1.4.4-1.6.6-.2.7-.4c.2-.3.2-1.5.5-1.9s.5,0,.7-.2c.3-.3.4-1.9,1.1-1.7s.1.5.4.5c.2-.9,1-1.6,1.3-2.6.4-.4.8,0,1-.2s.3-1,.5-1.1.6,0,.7,0,.2-1.1.8-1.4.4.1.5,0c.3-.3.6-1.2.9-1.4s.6,0,.9,0c.6-.1.6-.5.9-.9.8-.9,1.8-3.3,2.6-3.8s.8-.2,1.2-.6.7-1.5,1.1-1.8.6-.2.8-.3.4-1,.8-1,.4.2.5.1c0,0,.3-1.4,1-2,2-1.7,3.7-3.1,6-4.4s.8-1,1.1-1.1.8,0,.9,0,.2-.5.3-.6c.5-.5,2.3-1.3,2.9-1.2s.6.3.7.3c.3,0,.5-.6.7-.8,1.2-1.1,1.2,0,1.4,0s.3-.3.6-.3c1.1-.4,4.3-.3,5.4.1s.3.5.4.5.6-.5,1,0,.7,1.8.7,1.9c-.2.8-1,.6-1.5.9s-1,1.1-1.1,1.2c-.1.3.3.5.2.8s-.5.4-.6.5.2.5,0,.8-1.5.6-1.8.9,0,.7-.2.9-1.5.4-1.8.7,0,.4,0,.4c-.1,0-.8,0-1.2.1s-.6.9-1,1.1c-.7.2-1.9-.4-1.2.8-1.5.4-3,1.4-4.2,2.3-6.8,5.4-12.1,13.8-17.3,20.6s-8.3,10.9-11.2,18.1-2.2,7.4-2.9,11.1c1.9,1.3,3.5,2.8,2.6,5.3s-.5.5-.6.9c-.4,1.1-.6,2.5-.9,3.7s-.5.8-.5,1.2,1.2,1.7,1.5,2.3c.8,1.8.6,3.2.9,5s.9,3.6,1.2,5.5c.6,3.7.9,7.1,1.7,10.7s2.4,7.7,3.8,11.6c.8-.9,1.5-2.4,1.8-3.5s.4-2.4.6-3.6.3-1.1.3-1.2-.4-.2-.5-.4,0-.5-.3-.8c-1.3-2-3-3-3.3-5.7-.5-5.3,3.8-8.9,5.5-13.6s0-1.2,1.3-.9l.5-2.1c.2-.4.5,0,.6-.2.5-.3.4-2.3.5-2.4.2-.2.7,0,.9.1,0-.5.7-2.6,1.2-2.7s.3.1.5,0,.4-.8.7-1,.5,0,.6-.2,1.3-2,1.6-2.4.7,0,1-.2.6-1.3,1.1-1.3.4.3.5.3c.3,0,1.2-1.4,1.5-1.5s.4.4.6.4c.4,0,1.8-2.4,2.3-1.9s-.2.5.2.4c.3-.2,1.2-1.3,1.4-1.3s.5.6.8.4,0-.3.2-.5c.3-.3.9-1,1.3-.9s0,.3.2.3c.5,0,1.4-1.4,1.7-.2.3-.1,1.8-1.4,2-1.3s.3.8.7.6c0-.3.9-1,1.2-1,.4,0,.5.6.5.6,0,0,.9-.5,1.3-.4s.2.6.5.7c.3-.1.8-.6,1.1-.6s.3.2.5.2c.3,0,.7-.4.9-.4s.5.4.8.4.8-.6,1.2-.6.4.4.5.4c.5,0,.8-.4,1.2-.3s.3.4.5.5c.3,0,1.3-.5,1.2.2s-.3.3-.4.5.3.8.2,1.2-.4.5-.4.8.3.4.4.5-.1.6,0,1,.5.2.5.8-.8.9-.9,1.2.6.2.6.4-.7.8-.8,1.1.2.7,0,1.2-1,1-1.1,1.4c-.3.8.4.7.4.9,0,.4-1.2.9-1.4,1.1-.2.3.2,1-.2,1.4s-.9.2-1.1.7c.3.3.8.7.5,1.2s-1.1.2-1.5.4.3.3.3.5c0,.5-1.4,1-1.8,1.3s-.3.5-.5.7-.8.1-.9.3.1.4,0,.6c-.2.3-.9.2-1.1.4s.1.4,0,.5c0,.7-2.5,1-3.2,1.1,0,.3.2,0,.3.2.5.7-1.2.7-1.3.8s0,.4-.2.6c-.3.3-1,.2-1.3.4s-.1.5-.4.7-.4,0-.6,0c-.6.2-2.7.8-3.1,1.1s-.2.5-.5.7-1.5.3-1.5.4c-.1.1.2.7.1.9-.2.3-1.9.5-2.2.5l.3.2c-.4.8-1.1.7-1.8.7,0,.7.8-.4.6.6-.4,0-.8.5-1,.6s-.7-.2-.8-.1,0,.3-.1.4c-2.9,3.8-6,7.4-7.9,11.8l-1.2,4.8c1.3-1.7,2.5-4.1,4.6-5s2.1-.4,3.3,0,2.1,1.1,3,2,.5.8.7,1c.4.3,1.2.5,1.7.8.9.6,2.1,2.2,1.8,3.3-.6,2.5-4.5,1.7-5.5-.1s0-2.3-1.7-3.6-1.9-1.1-3-.8c0,.4,0,.2.2.3,4.5,1,2.8,5.7,6.3,7.5s.7.2,1.1.4c3.4,1.8,4.2,6.6.2,8.1s-3,.3-4.4-.8c-2.8-2.3-1.8-6.5-2.2-9.5s-1.2-2.7-2.9-1.9-2.4,3.3-3.1,5.3c1,1.9,4.6,4,4,6.4s-.3,0-.3.2c0,.2.2.3,0,.6-.5.6-1.1.4-1.7.4s-.2-.2-.1.2c1,3.5,2.3,7,3.6,10.4,2.5,6.4,5.3,12.9,9.4,18.5s1.9,1.9,2.2,2.9-.9-.3-1.1-.4c-.3,1.3-.7-.5-1-.7-1.1.6-.1-.7-.8-1s-.2.5-.4.5c.8.4-.2,1.3-.8.4s.5-.3.6-.9,0-1.1,0-1.1-.5-.8-.5-.9c-.1,0-.5.2-.7.1-.2-.5.3-.6.3-.7-.2-.9-1.7-2.4-1.8-3.4-.4-.2-.3.3-.4.3-.3,0-.5-.3-.7-.5s-.3,0-.3.1c0,.1.5,1.4.6,1.4.5.4.1-.7.1-.8.2-.1.7.4.7.5.2.5-.2.3-.4.4s-.1.3-.3.4c-.6.3-.8-1.1-1-1.3s-.6,0-.6.2c0,.6.5,1,.6,1.4s-.1.4,0,.5.4.1.5.6,0,.8,0,.9.4.4.5.6c.2-.6.3-.3.5-.3-.2-.5-.8-.8-.8-.8,0-.3.4-.6.3-.7,0,0-.6-.2-.6-.8.3,0,.4,0,.6.2s.9,1.7.8,1.9-.3.1-.4.1c.2.7-1,.4-.2,1.2,0-.6.5-.5.8-.8s0-.2,0-.2.3-.1.4-.3-.7-1.3,0-1.1.5.9.5,1c0,.1-.4.2-.4.3-.2.3.3.8-.6.4ZM8.6,8.3s0-.1-.2-.2c-.8,0-.4.4-.9.8s-1.2.5-1.7.3c-.1.5.5.2.6.5s0,.7,0,1c-.4-.1-.3-.6-.5-.9-.7-.9-1.7.5-2.5.1-.1.4.7,1.1.3,1.4s-.5-.1-.6-.2c-.5-.6.4-.9-1.4-.5s-.5,0-.3.2c.7.7.6-.2,1.4,0l-.3.6c.2,0,.4,0,.6,0,3.6,1.4,6.9,3.3,10.3,5.1s.6.5.7.5c.5.1.4-1.4,0-1.6.3.1.3-.9.3-1s-.7,0-.9-.2c-.2-.4.3-.8.2-1.1,0-.5-.9-1.6-1.1-2.2h.3c.3.8.9,1.6,1.3,2.5s.8,2.4,1.6,3.2.6.2.7.4-.2.5-.1.7c0,.4.6.7.8,1v-.5c.6,0,.5,0,.7.5h-.5c0,.1,5.9,3.8,5.9,3.8.5-1.1-.1-.5-.4-.6s-.3-.5-.6-.7h.3c0-.3-.3-.1-.3-.3-.2-.6.5-.5.5-1.1l-.6.3c0-.4-.7-1.3-.5-1.5s.6-.1.4-.4-.3,0-.3,0c0-.3.3-.5.3-.7s-.3-.4-.4-.6.2-.3.2-.5c-.2-1.2-.9-2.5-1.1-3.7s0-.2.3-.2c.2.9.4,2,.8,2.8s.5.7.6.8c.1.3-.3.2-.3.3-.1.6,1.3,4.6,1.7,5.2s.4.2.4.3c0,.2-.1.5-.1.7,0,.8,1.9,1.6,2.5,2,1.3.9,2.5,2,3.7,2.9s.6.5.7.4l-.3-1.2c-.3.3-.6,0-.6-.2s.4-.2.5-.3c0-.7-.8-.3-.6-.9s.4,0,.3-.4c-.2-.9-1.4-1.2-.1-1.5-.7-.7-.2-1.3-.3-2.1s-.3-.2-.3-.4c0-.6,0-1.7,0-2.4s.3-2.9-.2-3.3-1.1-.3-1.4-.9c-.5,0,0,.5,0,.6s-1-.1-.8-.4,1-.3.2-.7-.4.2-.6.2c-.5-.1-.5-1.1-1-.4-.2-.8-.9-.3-1.3-.5s0-.4,0-.5-.8-.8-.8-.8c-.4-.2-.5.4-.8.4s-1-1.4-1.2-1.5-.5.2-.8.1-.4-.8-.8-.9-.5.1-.7.1-.6-.2-.7-.2,0,.6-.2.6-.3-.3-.2-.5.5-.1.5-.4c-.4,0-.5-.6-.7-.7s-1,0-.8.5l-.4-.2.3-.5c-.3.3-.5.1-.7.2s0,.2-.1.2-.2-.2-.4-.1,0,.4-.3.3c-.1-.9.2-.6.9-.6,0-.3-.7,0-.7-.4s.5-.4,0-.5-.4.6-.4.9c-.1.1-1.2-.7-1.5-.7s-.7.5-1.1.5-1.6-.5-1.9-.4,0,.7-.6.7-.4-.3-.7-.4-.5,0-.7-.1c0,0,.4.7.4.7.2.7-.3.5-.4.5-.1.1-.1.5-.5.4,0-.5-.4-1.2.3-.9,0,0-.4-1.1.2-.8ZM11.9,31.4s.2.4.2.5c-.4,0-.9,0-.6.4s.7.1.9.2,0,.4,0,.5c.2.3.6,0,.7,0,.3.2-.3.3-.3.4-.6,1.3,1,.7,1,.8s0,.3,0,.4.3.3.4.4c0,.2-.6.4,0,.8,0-.7,1,0,1.2.3.3.5-.5,1.5.6,1.4s.2-.7.5-.3.2.9,0,1.4l.9.2v-.6c.6.2.3.7.3.7.1.1,1.1.1,1.2.7s-.8.1-.4.5.8.2.9.2v-.4c.9.6-.3,1.3,1.1.6,0,.2.3.4.3.6s-.2.7-.3.7c0,0-.4-.2-.6-.2.2.7,1,.3,1.5.5s.3.5.4.5,1.1,0,1.2,0c.2,0,.8.6.1.5s-1,0-1.3-.4c-.2.7.6.5,1.1.7s1.3.7,1.4.7.1-.6.4-.4c0,.3.7.7.8.8.1.2-.1.4,0,.5.1.1,1.2.2,1.4-.2,0,.2.3.5.3.5,0,.4-.7-.2-.6.3s.3.5.4.5c.2-.7.8-.4,1.4-.5,0,.5-.4.2-.1.9l.2-.3c.3.8.9.8,1.4,1.5.3.1,0-.6.9-.1s.7.6.9.8c.7.8,1-.1,1.1-.1.2,0,.3.3.2.5s-1.3.8.3.7l-.2-.6c.3.2.6-.5.9-.3s-.5.7-.5.8c.3.3,1.5,0,1.7.2.4.4-.7.2-.5.6.2,0,.6.1.6-.1s0-.5.2-.3,0,.6,0,.6.6.3.7.3.4-.8.5,0-1,.2-.4,1v-.5c.7.3.4,0,.6-.1.6-.3.5.1.7.2s.3-.1.3,0c.1.2,0,.6.5.5s0-.3,0-.3c.1,0,.7.9.6,1.1.4,0,.7-.5,1-.5s.4.8,1,.2l-.3.9c.8,0,.6.4.6,1.1.4,0,.1-.6.1-.6.4-.3.5.3.6.4.2.1.6,0,.8.2.4.2,0,.8.8.6.2.4-.9.4-.5.7s1.2.4,1.7.2c.2.6,0,.4-.2.6-.6.6.3.2.5.3s.2.4.3.5,1,0,1.2.5l-1.2-.2,1.1,1.1c.2.2,0,.6,0,.8.2.3,1.2,0,1.4.7v-.9c.6.2.8.9,1.6.6-.2.7-.3.3-.9.3,0,.3.7.2.4.6s-.4-.1-.3.3c1-.2.6.2.8.4s.9.6,1,.6c.3,0,.5-.1.7,0s.4.4.7.3c0-.5-.6-.3-.6-.5s0-.5.2-.5.2.3.3.3c.2,0,.4-.5.7,0s-.2.4-.4.8c.5.2.7-.6.8-.6.3,0,.6,1,1.1.5-.4-.1-1-1.2-1.1-1.3s-.4.5-.6.2l-.5-1-.4.6c-.3-.7.1-.6.2-.7,0-.3-.4-.6-.3-.9s.4,0,.3-.2c-.2-.5-.7.3-.9,0s-.1-.4-.1-.4c0-.3.6-.1.6-.4-.8,0-1.4,0-1.7-.9,1.9-.3-.4-.6-.5-.8s-.2-.5-.2-.6c.3-.6.4.1.4.1.1,0,.4,0,.3-.2-.2-.4-.7-1.1-.9-1.6s-.5-1.7-.7-2-.7,0-.8,0-.2-.8-.2-.8c0,0,.3,0,.3-.1,0-.2-.7-1.7-.9-1.9v.5c-.3.2-1-.8,0-.6-.1-.3-.4-.5-.8-.5.7-1.1-.3-.6-.6-.8s0-.6,0-.7-1-1-1.1-.9l.2,1c0,.4-1-.6-1.2-.6l.8-.7c-.7-.1-1.2-.4-.9.6,0,0-1,0-1.1-.1-.2-.1,0-.4,0-.5s-.7.3-.9.1-.3-.9-.5-1-.7,0-.7,0c0,0,0,.5-.2.6-.5-.4-1.7-.2-.8-1l.2.3c0-.1,0-.4,0-.4-.2-.2-4.7-.6-5.4-.8,0-.2.3-.2.5-.2.7,0,1.3.3,1.9.4,2.7.3,5.5.6,8.1,1.9s1,.7,1.5,1c0-.1-.6-1.1-.7-1.3-.6-.7-.4-.6-.9-1.4s-3.9-5-4.2-5.1-.4,0-.5,0c-.6-.2-.2-.6-.2-.6,0,0-1.8-.5-2.1-.6s-1.3-.2-1.6-.2c-.6,0-1,.5-1.4.6s-.1-.5-.3-.4c-.2.1-.2.7-.5.7-.4.1-.7-.6-1-.4s.6.5,0,.7-1-.8-1.3-.6.5.2.3.5-.7.3-1,.4c-.3,0,.2-.8-.6-.8s.2.5-.2.6-.3-.4-.5-.5c-.8-.2-3.6.6-4.5.8s-.3.3-.5,0c1-.2,2.1-.7,3.1-.8,2-.3,5.6-.2,7.3-1.3s.3-1,1.1,0c0-1,.9-.9.5.2.5-.2.8-.5.6-1.1s-.4-.2-.4-.3c0-.4.4-.5-.3-1.1s-1.2-.6-1.2-.6c0-.2,0-.5-.1-.6s-1.1-.4-1.1-.5c-.3-.5.4-.3-.7-1.2s0-.5-.6-.2-.3.5-.9.3c0,.3.9.9.4,1.1s-.4-.3-.5-.4-.5.1-.5-.5h.5c0-.1-3.3-.3-3.3-.3.8.7-.9,1-.6.1h.5c-.9-.4-.9.3-1.4.6v-.8c0,0-.5,0-.5,0,.4.9,0,.5-.5.7s-.2.4-.3.4-.2-.2-.4-.2c-.2,0-.4,0-.7,0s-.3-.3-.3-.3c0,0-.7,1.1-.8.1s-.5.2-.5.2c-.3,0-.7-.2-1-.1l-4.3,1.2,2-.8c2.5-.9,5-1.1,7.6-1.6s.5-.3.8-.3.2.6.5.3-.3-.5,0-.6c1-.3,0,.9.7.6s-.4-.5.2-.5.4.3.7.2,0-.5.6-.3.2.5.3.4c.2-.1.1-.6.6-.4v.9c.4-.4.3-.8,1.1-.7-.9-.7-6.5-5.5-7.2-5.2s.2.6-.2.4-.1-.7-.8-.7-.1.6-.5.4c0-.1-.1-.7-.2-.8s-.4.2-.6,0c.4.7-.3,1-.5.3-.9.8-.6-.4-1.4,0,0,0,.5.5,0,.6-.7.1-.3-.6-.4-.6,0,0-.7,0-.9,0l.3.6c-.4-.1-1,.3-1.4,0s-.2-.5-.4-.5-.3.3-.6.3-.6-.2-.9-.2c-1.3,0-2.8.4-4.2.5s-1,0-1.4-.2h1.1c.5,0,1-.2,1.5-.3,1.6-.2,3.1-.2,4.7-.3s.1-.3.4-.3.7,0,1,.2v-.5c.8-.2.5.5.7.5h.7c0-.1-.3-.7-.3-.7.3-.4.9-.2,1.4-.2-.3.5,0,.9.3.5s.1-.9.8-.2c.3-.5-.6-.5-.8-.7-.6-.5-1.2-.8-1.9-1.3-1.1-.7-2.3-1.8-3.6-1.9l.2-.3c-.7.2-.7,0-1-.6-.1.3-.7.9-1,.6s.4-.5.3-.6c-.4,0-.7-.4-.8,0s-.7-.2-1-.4c-.8-.4-2.5-.2-2.6-.3s0-.5,0-.6c-.4-.4-2.1-.1-2.6-.5-.3-.4,0-.2.2-.2,1,.1,2.3.2,3.2.4s1.1.6,1.2.6,0-.7.8.1v-.5c0,0,.7.2.7.2-2.8-2-5.7-3.8-8.6-5.5s-1.2-1.2-2.2-1c.4.3.1,1-.1.8s0-.3,0-.4c-.2-.2-.7-.2-.8-.7h.5c.4-.3-.9-.7-1-.7-.8.2.3.6.4.7.2.2.1.6.4.8s.7.5,1.2,1,.7.4.3.5c-.6,0-1.2-.5-.2.6-.1-.5.4-.2.4-.3.1-.2-.3-.8.5-.6l-.7-.5c.1-.3,1-.1,1,0s.2.8.2.9-.3,0-.4,0c-.3.2,0,.9-.9.6.2.3.9.8,1,.9.2.4-.2.6-.2.7,0,.2,1,.5,1.1.8.3-.4-.2-.4-.2-.5,0-.2.1-.4.2-.4s.5.4.5.5c.2.5-.9,1.2-.9,1.5s.9.2.9-.1-.6-.5.3-.5c0,.6.4.9-.3,1.1,1.5.7,0,2.3,1.2,2.6v-.6c.7.6,0,1.1,0,1.1s.4.3.4.5-.6,1,.2,1,0-.3,0-.3c.2-.2.9.7.9,1s-.7,0-.6.7.3.2.4.3c.2.3.2.8.7.9,0,.2-.2,0-.3.3s-.4.7-.3.8c.6,0,.5-.6.7-.6.4,0,.2.4.3.4,0,0,.4.1.4.3,0,.4-.8.2-1.1.3.1.5,1.2.6,1.2.7.1.2-.4.6-.3.9,1-.1.4-.4.5-.8s.3-.3.4,0,0,.8.2,1.2h-.5c.5.5,0,1.3.7,1.7l.3-.2.2.9c.3,0,.1-.2.1-.4s.2.1.3,0c.2-.2-.3-.4-.4-.5s0-.3,0-.4c-.1-.1-.5,0-.6-.3s.3-.7.6-.5.7,1.4.7,1.6c0,0-.3,0-.3,0ZM8.4,14.2l-3-1.2,1.7,1.1c.5.2.9-.2.7.5l.6-.4ZM10.4,15.5c0-.2-1-.7-1.1-.6s0,.6.1.7.6-.2.9,0ZM30.5,16.8c-.3-.2-.6-.3-.8-.5.3.6-.3,2.4,0,2.8s.4.2.4.3-.9,1.6.3,2.1c-.9.4-.2.4,0,.9s-.2,1.3-.2,1.4c0,.3.3.3.3.3s-.1.2,0,.2c.1.2,1.1.4.3.7,1.3,1.6,0,.9-.1,1s.1.9.2.9c0,0,.9-.3,1.3.1-.2.4-.2.8-.2,1.2l.5-.4c.4.2.7,1.3,0,1s-.4-.6-.8-.3l1.3,1.3c0-.4.5-.6.7-.5.3.3-.5.5-.3.7.7,0,1.2.9,1.7,1.1s1.2-.3.7.3-.2,0-.3,0c-.1.1.3.2.4.3.4.4.7.8,1.1,1.1s.7.6.8.5c.1-.2-.6-1.9-.5-2.5s.5-.1.3-.4-.4,0-.5-.5,0-.4.5-.4c0,0-.5-1.2-.5-1.4s.3,0,.3-.2c.2-.6,0-1.8,0-2.5s.9-2.6.7-2.8-.4,0-.5-.2,0-.9,0-1.2-.5-.8-.6-.8c-.1,0-.6.8-.8.6,0-.5-.6-2.2-1-2.4s-.3.2-.2.4.3.1.4.2c.2.3.8,1.2,0,1,.3-.6,0-.4-.2-.6s0-.5,0-.5c-.1,0-1-.4-1.1-.5-.2-.2-.3-1.1-.9-1.4s-.7.3-1,.2-.2-.3-.3-.4-.4,0-.4,0c0,0,.3-.7,0-.9-.2,0,0,.4-.1.5-.5.1-.5-.2-.6-.2ZM16.1,19.2c.5-.5-1.8-1.3-2-1.7-.6.4.1.3,0,.4-.5.7-.7-.5-1.2,0l1.3.9c.4.1,0-.6,0-.6.3-.1,1,.4.9.7s-.5.1-.5.4c.5.2.8-.3,1.4,0ZM17,19.9c.1-.5.2-.7-.4-.9s.1.5-.3.6-.5-.2-.5-.1c-.5.4,1.1.4,1.2.5ZM18.9,20.4c0-.1-1.4-.9-1.5-.8,0,.2-.2,1-.1,1,.4.5,1.6.6,1.6.6s0,.4,0,.4c.1.1.7-.2.6.3v-.6c.1,0,.9.1.9.1-.1-.2-.6-.7-.8-.7-.4-.2.1.7-.4.6-.4-.2-.1-.8-.3-1ZM39.7,23.3c-.2-.3-1-.2-1-.4,0-.3.5-.5,0-.7-1.1-.3-1.2.7-.2.4.1.1-.7,2.3-.8,2.7s.3.5.3.7-.3.3-.3.6.3.6.3.6c0,.1-.4.2-.4.3-.2.4.4,1.1.4,1.4s-.4.1-.3.4c0,.5,1,1.7,0,1.9,0,0,.7.5.4,1.1s-.3.1-.4.2.2.7.1.9l.2-.6c.6.5.8,1.1-.2.8.3.3,1.2.9.5,1.1.8.9,1.7,1.7,2.7,2.5s.6.2.8.4c.5.4,1.7,2,2.3,2.6s.1.4.3.2-.5-.8.5-.8c0-.4-.3-.5-.3-1s.3-.2.3-.3c0-1.4-.2-3,0-4.4s.4-1.8.6-2.6,0-.5.2-.5c.1,1.2-.7,3-.5,4.1s.7-.1.5.7l-.6-.5v1.4c0,.2.3-.2.4-.2.7,0,0,.8,0,1,0,.3.1.6.1.8,0,.2-.5,0-.4.4s.6,0,.6.4-.8.7-.6,1.3l.3-.5c.3,0,.7.7.2.9s-.1-.4-.4-.3c-.2,1.1.7.5.8.6.2.1.2.9-.3.8v-.5c-.8.2.1,2,.4,1.1.7.6.3,1.3.7,2.1s.3.2.4.4c.4,1,.7,2.3,1.2,3.3s1.2.2.5,1.1c.2.1,1.1,2.1,1.2,1.9v-1.2c-.6.1-.4-.2-.4-.8.7-.1.3.2.5.6s.4.6.5.7-.3.4-.2.7.4.3.4.5-.4.6-.3.7.4,0,.6,0,.3.9,1.1.6c0,.4-.6.4-.6.9s.4.8.4.8c0,0,.5-.6.7,0s-.3.2-.3.3c0,.3.6,1.1.9,1.3,0-.6,0-.8.6-.6l-.6-1.7c1.5-.5.7.9,1.1,1.7-.5.2-.2.7-.8.9l1.7,1.7c.3-1,0-.7-.2-1.1-.4-.7,0-.5,0-.6.1-.2-.7-2.9-.7-3.4-.6.3-.8,0-.8-.6l.6.4c-1.1-4.8-1.2-9.7-3.3-14.2-.3,0,0,.3-.1.3-.1,0-.5-.1-.4-.2,0-.1.5-.2.4-.3s-.5-1.4-.6-1.4-.4.2-.6.2l.5-.4c-.5-.3-.8-2.2-1.3-2.3s-.4.2-.5,0-.1-.7-.4-.7c-.5-.1.1.6-.3.6s-.3-.3-.3-.3c-.1-.2.6-.7.5-1.1-.3.1-1.6,0-1.3-.4s.4.2.2-.5-1.3-1.2-1-2.3c-1.2.6-.7-1.4-1.1-1.6s-2.4.4-1.2-.5c-.3-.2-.4-.9-.8-1s-.2.6-.5.3.5-.9.1-1.2c-.8.3-.5,0-.7-.2-.6-.4-1.3-1.2-1.8-1.8s0-.4,0-.5ZM22.9,23.1c-.5.1-.6-.5-.8-.6s-.2.5-.7.3c.2.5.8.6,1.1,1.2l.4-.9ZM23.9,23.8c0,0-1,.4-.8.6s.5-.2.6-.2,0,.3.2.6c.8.9,1.5.7,2.4.9s0,.5.7.1c-.6-.9-1.8-.2-2.6-1s0-.6-.2-.7-.6.2-.4-.5ZM114.2,26.1c-1.2-.8-2.9,0-3.8,0s-.3-.2-.6-.2c-.3,0-1.2.7-1.2.7-.1,0-.3-.5-.6-.4s-.6.9-1,1c-.6.2-.9-.5-1.2-.4s-.6.9-.8,1-.4-.2-.6-.2c-.7-.1-1.1,1.4-1.5,1.6s-.5-1-1.4.3-.2.6-.3.7c-.2.2-.8,0-1.1.2s-.6.8-.7,1.1-.1,1-.5.6.3-.7.3-.8c-.9,0-.4.6-.5,1.1s-.7.9-.8,1.5-.2,2.2-.2,2.6.2.3.2.5c0,.5-.2,1-.2,1.4.2-.1,1-.3,1.1-.3s-.5-.5-.3-.8c.4.4.3-.2.5-.3s.6.7,1.3-.3c.3.4-.7.9-.4,1.1s1.5-.4,1.5-.5c.2-.3-.6-.6-.1-1.1l.4.6.4-.4-.4-.5c.3,0,.8.2,1.1,0s.7-.8.7-.8c.1-.2.1-.8.2-.8,0,0,.5.2.6,0-.9-.3-.4-.3-.2-.8s.2-.8.3-.9c.2-.3.7,0,.7,0,.3-.5-.4-.5-.5-.5,0-.6.6-.9.8-1.4s-.4,0-.4-.3,0-.9.1-1c0,0,.6,0,.7,0s.1-.7.5-.7c-.2.9-.6,1.8-.9,2.7s-.1,1.2-.3,1.8-.4.8-.5,1.2c.3-.4.7-.1.8-.1s0-.9.2-.9.1.5.4.4c-.2-.3.5-1.1.8-1.3s.5,0,.8-.2.4-1,.8-1.2l.2.5c.4-.2.3-.9.5-1.3s1.3-1.5,1.7-2.2c-.7-.5-.6.5-.8.5-.4,0,0-1,.5-1s.4.6.9-.2c.1,0,.1.2,0,.2-.4.9-1.9,2-1.7,3.1.3-.3.9-1.1,1.2-1.2s.1.4.3.5c.2,0,1.1-.6,1-.8s-.4.1-.3-.2c.1,0,.5-.5.5-.5.4,0-.2.8.4.6-.3-.6.8-1.4,1.1-1.4s0,.8,1,.1c-.2-.1-.5-.8,0-.7s.4.4.5.4.9-.6.6-.7-.7,0-1-.2-.2-.3-.3-.4ZM28.9,27.6c.2-.2-1.3-1.6-1.5-1.4-.2.5-.7.8,0,1.1,0-.4-.1-.6.4-.6s1,1.1,1.2.9ZM116.1,27.1c-2.2,1.1-4.3,2.4-6.4,3.8s-.7.4-.9.6-2,1.3-2.1,1.5.1.4,0,.4c0,0-.7,0-.9.4l.3.4c-1,0-1.9,1-2.1,2h.8c-.3-.4-.4-.6,0-.9l.4.5-.2-.9c.1.2.5.5.5.7,0,.4-.5.6-.2.9.8-.5.8-1.4,1.2-2.1s.2.2.3.2c0-.1.3-.3.4-.4.1-.3-.6-.2-.3-.5s1.2.6,1.1,1.1c.6-.2.3-.6.4-.8.2-.3.3.6.6.3s0-.9.7-1,.5.5.5.6.8-.3.8-.3c0,0,.6-1.2.4-1.4.3-.1.5.3.5.3.1,0,.3-.5.5-.6.1.5.4.1.8.1l-.6-.6c.3.2.9-.6,1-.8s-.1-.4,0-.6c0-.3,1-.7.8-1.5.7-.4,1.5-.4,1.7-1.4ZM30.9,29.2c.4-.4-.9-1.2-1-1.2-.5,0-.4,1.3.2,1.3l.2-.6.5.5ZM31.5,29.3c0,0,0-.3-.2-.2,0,.6-.6.5-.2,1.2s1,.9,1.1.9c.2,0,.3-.4.7-.4,0,.2.1.4.1.5s-.4,0-.3.3c.2.5.6-.3.8-.1.4.3-.1.6-.1.8s.5.6.6.5,0-.4.3-.3c0-.2-.4-.2-.5-.4s.4-.5.3-.8c-.9.6-1-1.1-1.3-1.2-.3,0-.2.3-.5.4-.9.6-1.1-.5,0-.6-.2-.3-.6-.3-.9-.4ZM24.4,31.7l-1.7.2,1.5.2.2-.5ZM35.1,32.4c-.1,0-.7.2-.7.4s.5.7.4,1c.4.2.3-.3.4-.3s.5.2.5.2,0-.2,0-.4c0-.2.3-.4.3-.5,0-.4-.6.1-.8,0-.3,0,0-.4,0-.5ZM97.6,32.7c-1.6.3-.9.8-1.1,1.7s-1.1,1-1.1.5.7-.1.6-.7c-.9-.3-1.5.5-1.5,1.3s.3,0,.3.1-.7.9-.8.9c-.2.1-.5-.1-.7,0-.3.4-.2,1.4-.5,1.4s-.4-.6-.7-.4c.2.2.5,1,0,.9s.1-.7-.2-.8c-.2.3,0,1.7-.2,1.8-.3.3-.4-.3-.5-.3-.3-.1-1.3.8-1.4,1.2s-.1,1,.4.6,1.1-.7,1.6-1.1.6-1.1,1.1-.5c-1.1.7.4.8.6.3s-.8-.3,0-.7.1.4.4.3c0-.5.2,0,.6-.2s.6-.3.6-.6c.2,0,.3.4.3.5s.7-.3.7-.3c.1-.1,0-.4.2-.6s.3,0,.3-.1c0-.1-.2-.2-.3-.4s.2-.4.3-.6c.2-.9.3-1.8.5-2.7s.6-1,.3-1.6ZM36.9,34.4c-.1-.1.2-1.4-.8-1.2.3.7.1,1-.4,1.4.2.4.7.4.9.6s.4.9.4.9.4-.2.4-.2,0,.3,0,.4.5.2.7.4.1.5.3.8.6.3.8.4.1.5.1.5c.4.4.3-.4.2-.6l.8.8c.4.1.2-.4.2-.5.3-.3.7.4.6.8-.4-.2-.8,0-1.2.2.3.6,1.1.1,1.2.2s0,.8-.5.6l.2.4c.6-.3.5-.1.9,0s.3,0,.4,0c.2,0,1,1,.7,1.3s-.4,0-.5,0c0,0,0-1.4-.4,0l.9,1c0-.7.6-.4.8-1,0-.2-.4.1-.4,0s-.2-.6-.2-.6c0,0,.5,0,.6-.2s.3-1.1-.1-1-.5.7-.9.7c0-.6-.6-.4-.3-1.2.5-.1.3.5.6.6.2-.7,0-1-.5-1.5v.8c-.6-.3-.3.7-.6.8s-.4-.5,0-.5c-.5-.4.1-.4-.1-.9-.6-1.2-1.8-1.9-2.7-2.9-.5.6-.2,1,0,1.7-.7.2-.5-.5-.5-1.1-.5.3-1-.5-1.1-1,.4-.2.7.4,1.1.5,0-.4-.3-1.2-.7-1.4s.1.7-.4.6,0-.7,0-.8-.4,0-.4,0ZM37.3,37.1c0,0-.4.2-.5,0s.2-1.1-.1-1.1-.5,1-.4,1.2.8.3.8.3c.1,0,.3-.3.2-.4ZM103.3,36.3c0,0,0-.3-.1-.3s-.6.4-.6.6c-.2.9.9,0,1.3-.1,0-.3-.3,0-.6-.2ZM97.3,42.6c.3,0,.7,0,.6-.5s-.6-.3-.8-.4-.5-.8-.5-.9c.5-.1,1.7,1.2,2.1.9v-.6c1.2.1.6-.6,0-1.2l.6-.2c-.3,2,1.8-.3,1.8-.5s-.7-.3-.6-.7c.2,0,.9.4,1,.4.2,0,.2-1.1.4-1.4,0,0-2,.9-2.1,1.1s0,.2,0,.2l.4-.3c0,.3.4.5.5.7.1.3-.5.1-.5.5-.7.1-.1-.7-.7-1.1-.9-.6-1,.6-1.7.2-.1.8.6.4.6.5.1.1-.3.8-.5.9-.8.2-.2-.8-.4-1.2-.3-.5-1.9.8-1.6,1.3-.5.1-.4-.5-.5-.6-.1-.1-1.5.5-1.7.7s-.1.5-.2.5-.3,0-.5,0-.3.2-.4.2c-.2,0-.3-.5-.4-.5-.3-.2-1.8,1-2,1.4s0,1-.1,1.1c-.5.4-.4-1-.5-1.1-.7.4-1.2,1.3-1.8,1.7s-1.5.9-1.6,1c-.2,0-.4-.1-.7,0s-.7,1.3-.9,1.3c-.2.1-.8,0-.9,0s0,.5-.1.7-.9,1.3-1.1,1.5-.4-.1-.6.2c-.4.5-.1,1.2-.2,1.3,0,0-.4-.1-.4-.2,0-.2.4-.5.3-.8-.2.1-.5,0-.7.1-.4.4-1.1,2.2-1,2.7-.4.2-.3-.6-.6-.3s.8.7.6,1.1l-.9-.6v-.5c.1,0-.2,0-.2,0,0,.3,0,.7,0,1s-.4.2-.4.3.2.3.1.4-.2,0-.3.2,0,.5-.4.3.1-.6-.3,0c-.2.5,1.3,0,.8.5s-.4,0-.5,0,.4,1-.4.3c-.1.6.1,1-.8.9.3.3.2.5.1.9l-.6-.2c0,.2,0,.7,0,.8s.3,0,.3.3c0,.4-.4.6-.4.9s.2.5,0,.7-.8.6-.8,1l-.5-.4c-.2.3,0,1.3,0,1.4-.1.1-.6-.3-.8,0-.5.7.3.6.2,1.4l-.6-.5c.2.9.5,1.2-.5,1.7.1.3.4,0,.4,0,.3.5-.6.8-.6.8,0,.3.3.5.3.7s-.3,0-.3.2,0,.4,0,.5-.3,0-.4,0-.3,1.7-.3,1.9c0,.3.5.2.3.7,0,0-.4,0-.5,0s-.2,1.8-.1,1.9c0,.3.6,0,.7.2s.3,1.2.2,1.2-.3,0-.4,0-.3,1.6.1,1.6v-1.5c.6-.2.2.9.3,1.1l.6-.3c0,.9-.9.8-.8,1.4s.5.2.5.2c0,.3-.3,1.2-.1,1.4s.5-.3.6,0-.4.7-.3,1.1c-.2,0-.6,0-.6-.2s.7-.6-.1-.7c0,.7,0,1.2.3,1.7s0,.5.3.2.4-1.7.5-1.8.3,0,.4,0c-.1-.2-.2-.5-.1-.8s1-.3.7-.7c0,0-.2.3-.3.3-.3,0,0-.9-.5-.7.1.2.3,1.2-.2,1.1s0-.9,0-1.1-.3-.3-.3-.3c0-.1.4-.2.4-.3.2-.3-.3-.7.5-.6v.5c.2-.9,1.1-.4,1.2-.5s0-.3,0-.5c.3-.6.8-.8.2-1.5-.2.2-.5.5-.5.8s.5.1.3.5c-.2,0-1.6-.2-1.4-.6s.4,0,.5-.5-.2-.9.4-.9v.6c0-.8.5-.2.8-.4s.1-.3.2-.4c0,0,.4.2.4.1s0-.6.2-.6.5.5.5,0-1.4-.6-1.1-1,.9.2,1.1-.1c.3.1,0,.2,0,.4,0,.4.8-.6.7-.8,0,0-.8,1-.8-.1.9,0,.3-.4.6-.8s.3,0,.4-.1c.2-.2.2-.4.4-.6s.5,0,.7-.2c-.1-.7-.6-.8-.4-1.6.9-.2-.1.9.9,1.1v-.5c-.1-.3.6.2.2-.6.2-.4.5,0,.7-.3-.6-.4.3-1,.5-1.3s.3-.4.3-.4c0-.1,0-.9.6-.9v.5c.1,0,.2,0,.3-.1.4-.4,2.3-3.1,2.6-3.6s-.5-1.3.4-1.1v.5c.4-.5-.2-1,.4-1.4s.5.3.6.2c.2-.3,0-.9.2-1.1s.5,0,.7-.3l-.4-.4c.3-.3.8.3.9,0s-.7-.7.2-1.1.3.6.5.3-.1-.4-.1-.6c0-.3.3-.6.1-1.1.5.1.3.7.6.9l.5-.7c-1.2,0,.3-1.4.4-1.4.2,0,.2,1.1.8-.2-.9,0-.3-.3-.2-.7s-.5-.1-.3-.5c.6,0,.5.1.5.6l1.1-.5c-.6-.1,0-.6-.3-.9s-.6,0-.5-.3c.3-.4.2-.1.5,0s.6.4.9.4.4-.4.4-.4c0-.5-.3-.7.3-1.3s.4,0,.5,0c.3.2.6-.6.7-.7,0,0-.3,0-.5,0l.2-.6-.5-.5c.3,0,.3.2.6.3s.3-.1.4-.1c.2.1,0,.8-.2.9,0-.1.6-.3.6-.5,0-.3-.7-.8.3-1.1v.6c.9-.9,0-.6-.3-1.3l1.2.2c-.2-.9.5-.5.7-.8s.3-.6.3-.7c-.7,0-2,0-2-.9,0,0,.4.4.4.3s-.1-.4.1-.3c.6,1.3.6.2.6.1s1,0,.8.8ZM46.8,46.9c-.8-.5-.4-.7-.5-1.2s-.7-1.1-.9-1.5c-.2-.6-.1-1.4-.4-2.1s-.7-1.3-.9-1.1.7.6-.2.8c.9.3,1.5.9.2,1.1v-.9c-.5.3-.5.9-.7,1.3.2.5.8-.3,1,0,.4.4-.6.6-.6.7.2.6.3.2.9.2,0,.4,0,.6-.3.7.4.3.3.8.9.7-.2-.4-.4-.7-.3-1.2.2-.2.7.8.7,1,0,.3-.5.6-.4.9s.9,1.2,1,1.7c.3.2,0-.3,0-.4-.1-.5-.4-.9.4-.6ZM46.3,44.4c-.2-.3-.4-1.4-.5-1.5s-.3.2-.3.2c0,.1.7,1.7.9,2,.2.4.5.7.8,1.1s.4,1.1.9,1.4c-.4-1-.8-1.9-1.3-2.8s-.4-.3-.4-.4ZM48.3,49.1c0-.5.1-.9-.2-1.4-.1.1-.9.7-.7.9.6-.1.5.1.9.5ZM50.9,52.9c0,0-.5.3-.7,0-.2-.3.1-.7,0-1.1s-1.2-2.1-1.4-2.3-.4,0-.6.2c1.1.2,0,.9-.6.2-.2.2.5.7.5.9s0,.4,0,.6c.4,1.1,1.1,2.2,1.4,3.3.3-.2,0-.6.6-.5-.2-.1-.3-1.3.1-.9s.4,1.1.8,1.4.8-.1.7.6h-.8c.1.2.5.7,0,.8s-.4-.6-.6-.6-.5.1-.4.4c.2.4.9.9,1.1,1.3-.1-.3.8-.3.8-.3,0,0,0,.3.2.3-.3-.6.5-.5.6-.3.2.3-.7,1.1-1.1.9-.1.6.7,0,.6.6h.1c.4-1.2,1.4,0,.3.3s-1.3-.5-.2.6c0-1.3.8.5.8.5.7,0,.6-.7.7-.8.5-.5,1.6,1.9,0,.6-.1.8.2.5.4.7s.1.4.2.4c0,0,.3-.3.4-.3.2,0,.6,1.1.8,1.3h-.3c0,0-.2.7-.2.7.3,0,.6-.4.7-.3s.3.8.8.8c.2-.3-1.2-1.6-1.4-1.9-.2-.4.5,0,.7-.1.6-.2,0-1-.2-1s-.3.4-.4.3,0-.2-.2-.4-.4-.2-.5-.4c-.1-.3,0-.5,0-.7s-.2,0-.3-.2-.1-.5-.1-.5c-.4-.3-.2.8-.3.9-.3.3-.8-.2-.8-.6s1.2-.4,0-1.2l-.2.9c-.6-.2-.1-1.2-.4-1.5s-1.2,0-1.5-.5l.2-.4,1,.4c-.5-.1-1.1-1.6-1.2-1.7s-.4.5-.7.1c-.5-.8,0-.8,0-.8s-.1-.5-.2-.5ZM75.9,58.5s-.1-.5-.2-.7c0-.3.4-.8-.3-.8l-.5,2c.2,0,.2-.4.3-.4.2-.1.5,0,.6,0ZM54.6,60.6c-.2-.3-.4.3-.4.6s.6.5.8.7c.2-1-.3-.6-.4-.8s0-.5,0-.6ZM58.6,63.1c.1-.1-1-1.6-1.2-1.8s-.2-.4-.5-.3c0,.8.8,1.2.6,1.8.5-.3.5.3,1.1.3ZM60.2,63.3c0,0,.5-1.5-.6-1.1-.1.5,1.1,2.9.9,3.1-.5.5-.9-1.5-1.5-1.4-.2.8,1.3.9.2,1.6,1.6,2.3,2,5.2,2.8,7.9s1.2,3.1,1.7,4.8c.8.1.3.3.3.9s.2.8.3.9.9-.5.6.4-.5,0-.2.8.2-.4.4-.5.5,0,.5,0c.4-.5-2.8-8.4-3.1-9.6s-.6-3.3-.9-5-.7-1.9-.4-2.8c-.4,0-.6.4-1.1.3ZM33,71.4s-.2,0-.2,0c-.4-.7.1-1,0-1s-.5-.3-.6-.3c-.4,0-.4.8-.9.6.5.4.2.9.9.9l-.7.5c0-.9-.6-1.2-1.4-.9-.3-.9.9-.3.9-.7s-.5-.5-.5-.5c-.4-.2-.3,1.2-1,1.1-.2-1-1.1-.3-1.3-.5s.1-.3.1-.4c0-.7-.8,0-1.1,0s-.8-.3-1.1-.3-1.2.6-1.9.1c.2,1.3-.9.3-1.6.3s-.9.6-1.5.7c-1,0-1.1-.5-2.1.5s0,.4-.2.5c-.4.3-1.3.1-1.7.2s-.8,1.1-.9,1.2c-.4.2,0-.6-.4-.4,0,0-.7.6-.7.7,0,.1.2,0,.3.2s.4,1.7.4,1.9-.3.4-.2.7.6,1.4.7,1.6c.2.5.9,1.5,1,1.9s-.1.7,0,.7.6.3.8.6,0,.7.2.9c.2.4,1.5,1,1.4,1.5s-.2.3-.3.3,1,.8,1.1,1.1.1.7.2.9.6.3.7.4c.2.3-.2.8-.1.9s1.3.3,1.8.8.2.2.9.6.4.5.6.7c.3.2,1,.2,1.3.5s.4,1.2,1.4,1.5,1.5-.5,2-.5.5.6.7.6c.5,0,1.2-.2,1.5-.1,1,.1.3.2,1.5.1s1,1.2,1.1,1.4,1.6-.2,2,0,.3.7.6.9c.5.5,1.6,0,1.4,1,.3,0,.6-.4.9-.2s.4.6,0,.7v-.5c-.8.3,0,1.2.6,1.2l-.5.3c.9.7,0,1.1,0,1.4s.6.5.6.8c.4,0,0-.8,0-.9,1.3.7,0-.4,0-1.1.8,0,.6.9.8,1.1s.8-.4.9,0-.9.5-1.2.4c.2.7.7.1,1.1.5-.6.2-.4,1-.4,1.6.8,0,.1-1.1.3-1.2.6-.5.7,1.5,1,1.8s.6.2.9.4c.3-1-1.1-.5-.9-1.4s.3-.2.4-.3-.1-.3.1-.4c.1.3,1,.3,1,.5s-.6.7-.3,1,1.4-.2,1,.6h-.7c.6.5,1.4,0,.9,1,.2,0,.8,0,.9,0s-.2-1,.3-.6.2,1,.6.6v.8c.9.2,1,0,.9-1.1.4,0,.4.4.6.5s1,0,1.2.2c.1-.2.1-.9.2-.9,0,0,.5.1.7.1.3,0,.7-.3,1.2,0s0,.5.6.2l-.6-.5c.3-.3.7-.7.5,0,.3.1.4-.5.4-.5.2.1.1.6.4.4.4-.1.5-.5.6-.6s.3,0,.4,0c.2,0,1.2-.3,1.2-.4s-.4-.7.2-.9.2.2.2.2c.3.4.2-.7.1-.8-.2,0,0,.3-.2.3-.9.2-.9-.8-.6-.9l.6.5c.1,0,0-.1,0-.2-.1-.3-.6-1.8-.7-1.9-.3-.3-1.3-.2-1.1-1.4h.6c-.6-.7-1.2-1.2-2-1.7,0,.2-.2.6.5.5l-.2.6c-.5-.3-.8-.5-.7-1,.1,0,.4,0,.5,0,0,0,0-.3-.3-.3-.5,0-.3.4-.4.7l-.4-.2.3-1.1c-.4.3-.9-.2-1.1.3.9-.2.3.9,0,.9-1,.1-1.1-.8-.2-1-.4-.5-.9-.4-1.4,0l.6.2c0,.9-.3.4-.5.4-.4,0-1.3.7-1.7,0,.2.7,0,.6-.4,1s-.1.7-.8.4c.4.9,0,.5-.3.6s-.2.3-.3.4-.3,0-.5,0c-.2,0-.3.4-.6.4.1-.6,1-.8,1.2-1.1.3-.5-.2-.1.7-.8s.4-1,.5-1.2,3.1-.9,3.5-.8c.3,0,0-.5-.4-.5s-.4.4-.5.4c-.6,0-.7-.7-1.1-.9s-.8-.1-.9-.3.2-.5,0-.8-.9-.5-1,0c.2-.2,1,0,.9.4s-.4.1-.6.2-.3.3-.4.3-.3-.2-.5-.3c-.2,0-.4.2-.6,0s-.2-.6-.7-.6-.8.7-1.1.7c-.7-.2-1.1.5-1.5-.2.3-.4.8-.3,1.1-.5s.3-.4.4-.5,1.3-.2,1.5-.2c-.6-.6.2-.8.1-.8-.3-.6-.9,0-1.3-.5l-.2.5c-1.1-.1.2-.5-.2-1.1-.5-.2,0,.8-.5.6s-.7-.7-1-.8h1.1c-.6-.2-1.5-1.1-2-1.3s-.1.4-.5.4c.1.4,1.1.4,1.1.5.5.7-1,.1-1.2,0-.6-.3-.5-.6-1.5-.4s-1.5.6-2.1.9-.4,0-.6.2.1.5,0,.6c-.2.3-1.1,0-.8.9-.3.2-.7-.2-.5-.5s.9-.7,1.1-1,.6-1,.9-1.2.6,0,.7,0,0-.4.2-.6.4,0,.4,0-.4-.7.4-.6c0-.3-.4,0-.6-.4s0-.6,0-.7c-.2-.2-.6,1.2-1.4.6l.2-.6c0,0-.9.5-.9-.2s.9,0,.9-.4c-.6,0-1.1-.5-1.5-.8s-.4,0-.6-.1-.2-.5-.6-.4-.6.5-.7.5-.8-.7-1.1-.7,0,.2-.2.3c-1.2.7-.9-.3-1.2-.3-.5,0,.2.8,0,1-.4.4-.7,0-1.1.1s-.2.5-.2.5c-.1.1-.3,0-.5.2-.3.2-.3.5-1,.4.3-.3.4-1.1.6-1.3s1.2-.3,1.3-.4,0-.4,0-.6.4,0,.6-.1.2-.4.2-.5.3.2.5.1,0-.2.1-.2c0,0,.3,0,.4-.1s-.9-.6-1.1-.7c.3,1.5-1-.4-1.4.8l-.2-.8-.3.5-.6-.4.4-.5c-.8-.2-.5.7-.6.8s-.4-.1-.5,0c-.4,0-1.1.4-1.5.4s0-.5-.4-.3.1.5,0,.6-.5,0-.7,0-.5.9-.6,1c-.3.4-.6,0-.4-.5s.3,0,.3-.2-.1-.3-.1-.4c0-.4.5-.4.7-.6s.1-.3.2-.3c.3,0,.5.3.7.2s.6-.4.6-.4c0,0-.2-1.4.7-.1v-.8c0,0,.8.5.8.5.4-.3-.8-1.3-.9-1.4-.3-.1-1,0-1-.1s-.2-1-.3-1.2v.3c-.5.1-.5-.4-.6-.4s-.2,0-.3,0c-.2,0-.3-.2-.5-.3s-.4.9-.7-.4h.9c0,0-1.1-.8-1.1-.8-.4,0,.1,1,0,1.1-.4.4-1.8-1.1-1.7-1.4s.5,0,.5-.3l-.6-.2c.2.8-.7.4-.9,0s-.1-.7-.1-.7c-.3-.4-.2.4-.4.5l-.6-.5c-.2.6-.9.1-.7-.5l.9.2-1.6-.8c0,1.2-1.2.8-.4,0l-.3-.2c2.1.6,4.1,1.6,6,2.6s3.6,2.3,3.8,2.2c0-.4-.6-1.7.2-1.5s-.2.8.5.7c0-.2-.2-1-.3-1.1s-.8.2-.7-.6.6-.2.6-.3c0-.6-.4-1.7-.5-2.2s.7.4.8.6c0,.3-.4.6-.3.7,0,.1,1,.2.2.5.7.3.3.4.4.7s.5.8.5,1c0,.4-.3.8-.3,1s.9.4.9.9-.3.3-.2.5.7.2.9.4.1.6.4.7,1.2.2,1.5.4.4.4.6.6c0-1.2,1.5.3.4.4.4.2,1,.7,1.3.8s-.1-.6.3-.6.5.4.7.3c-.5.8-.1.7.6,1.1v-.6c.3.1.6.2.8.3s0,.3.3.3c.2-1,0-.6-.4-.7s-.6-.4-.6-.5c.1-.8.9,0,.9,0,0-.7-.6-.9-.8-1.5l-.3.4c-.3.3-.4-.8,0-.8s.4.4.7.1c-1-.9-.2-1.1-.1-1.7s-.1-.5-.1-.7c.1-1.4.3-2.9,0-4.4.1-.2.2-.1.5,0v-.6c1.7,1.6,0,.8,0,.9,0,.5-.1,1.2,0,1.7s.4,0,.3.5-.5,0-.3.5.6.2.5.5-.4.2-.5.3c0,.4.4.7.3,1s-.2,0-.3.2c-.3.5.8,1.8.5,2.2s-.4,0-.4.2c0,.4.4,1.1.3,1.6.5-.2-.2-.9.6-.9-.2.8,0,1.3.8,1.7,0,.5-.9-.2-.9.3s.4,1,.5,1.1c.4.4,2.1.7,2.6,1.1s.2.5.3.6.8,0,1.1.1c-.4.9.7.5.9.6s0,.3,0,.4.4,0,.6.2.2.3.4.4c.4.2.8.2,1,.6,0-.9-1.2-1-1-2.1h.5c-.4-.4-.3-.7-.2-1.2-.6.4-.9-.7-.8-.9.3-.3.5.4.6.3,0-.2.2-.8.1-.9s-.7-.2-.6-.6.5-.2.5-.4-.1-.4,0-.4.3,0,.3-.2c-.7,0-.3-.8.2-1,0-.3-.7,0-.7-.4s.4-.3.7-.5c.4-.4.4-1.1,0-1.6.1-.3.4,0,.4,0,0-.2,0-1.5-.1-1.7.5-.4,1-2,1.2-.4-.9,0-.4.1-.5.3s-.3,0-.4.3c-.2.8.3.8.3.9,0,.2-.1.5-.1.7s.2.2.2.3c0,.1-.4.3-.4.4s.3.2.2.4-.4.5-.4.8c0,.4.6,1,0,1.4s-.4,0-.5.2c.6.3.3,1,.5,1.4s.4.2.4.3c0,.2-.7.4-.7.7h.8c.2.6-.5.4-.5.8s.5.1.5.5l-.5.2c0,.3.3,0,.3.1.2.2-.4.7-.7.2,0,0,.2,1,.2,1,.1,0,.5,0,.6,0,.1.1,0,1.2.4,1.7s.6.3.9.3c0-.3-.5-.3-.7-.5-.4-.4-.5-1.5.2-1s1.1,1.4,1.2,1.5c.2.1.5,0,.8,0s1,1,.6,1-.5-.4-1-.2c.7,1.2,1.3.1,1.7.1s.3.4.4.4.6-.1.6-.1,0-.8,0-.8c0-.1-.3,0-.3-.2s0-1.1,0-1.1.2.1.3,0c.2-.2.2-1.4.2-1.8s.4-1,.3-1.4-.3-.4-.3-.7.3,0,.3-.2c0-.2.5-2.1.6-2.2,0-.3-.4-.7-.6-1.1s0-.5,0-.7c-.3-.8-.8-1.4-1-2.3-.3.1-.4,0-.6,0,0,.1.2.4.2.4s-.7.2-.9.3l-.2-1.2c.4,0,.6.3.9.5,0-.4.2-.6.2-.8,0-.8-1-1-1-1.1.5-.3.4-.8,0-1.3s-.4.6-.8.4c-.7-.4,0-.6,0-.6,0,0-.6-1.1-.7-1.1-.1-.2-.7,0-.9-.1-.4.4.6.5.7.6s-.2.4-.1.4.5,0,.3.3-.5-.2-.7.1c-.4-.2,0-.6,0-1s-.3-.2-.4-.4c-.3-.4-.4-1-.9-1.2v.6c-.3.1-.6-.3-.9-.3.1.4.2,1.1.2,1.2s.5.3.4.7c-.6.2-.7-1.2-.9-1.1.2.5-1.2,1.2-1.4,1.1-.3-.3.7-.7.9-1s.1-1,.7-1c0-.2-.5-1.3-.6-1.4s-.3.3-.5.3c-.4,0-.6-.3-.8-.3s0,.2-.2.3-.9.1-.9.2c-.3.3.2.6.6.5,0,.7-1.8.7-1.8.2s.7-.3.9-.2c0-.2-.1-.3,0-.6s.4-.1.4-.3c-.8-.6-1.1-.4-2-.3,0,.2.6.4.6.7s-.3.3-.4.2,0-.3-.1-.4c-.3-.2-.5-.2-.5-.7-.6.3.2.9.2,1,0,.6-1.7-.3-.8-.9-.3-.4-.5.2-1.1,0s-.3-.2-.2-.3c.2-.3.8,0,.7-.4-1.5-.6-.8-.1-1.3.3s-.5.1-.5.1c0,0,.4.7,0,.9s-.4-.7-.5-.7c0-.2.2-.3.2-.5s-.6-.6-.6-.6c-.5.4-.5.6-1.3.4v.8s.8-.5.8-.5c0,.8.2.2.4.4s.8.8.6,1c-1.1,0-1.3,0-.5-.8-.3-.2-1.2.4-1.4.3s0-.4,0-.5ZM66,82.1c-.2-.4,0-1.1-.3-1.5-.8.4.2.7,0,1.1s-.3.3-.5.2,0-.4-.3-.4c0,.9.9.4.3,1.4.6.3.4-.3,1.1-.3,0-.2-.4-.5-.4-.5ZM71.7,82.2c-1.1-.3-.5.8-.6,1s-.9,0-.3,1.1c.9-.5.2-1.5.9-2.1ZM51.5,83.1c-.2-.3-.3,0-.3.2-.3.7-.5,1.6.2,2.1-.4.5-.3-.2-.6-.2,0,.4-.1.9,0,1.2s.3.5.3.7-.2.3-.3.5.3,0,.3.2c.2.6-.5.6-.5.7,0,.4,1.1,1.1-.1,1.1v-.5c-.4.7.2.6.4,1s.4,1.1-.3,1.1l-.3-.5c0,1.5.6.8.9.8s1.6.9,1.1,1-.4-.1-.3.3c.6.3.5-.3.7-.3.8-.2.3.4.3.6,0,.2.1.4.1.6s-.3,0-.3.2.4.3.5.4l.2-.7.5.4c.5-1.1.3-2.4.7-3.5s.7-.9.7-1.3-.2,0-.3-.2c-.7-1.2-1.6-2.4-2.4-3.5s.1-.4-.1-.4-.3.2-.4.1,0-1.1-.1-1.3-.4,0-.4-.1c-.1-.1,0-.7,0-.7ZM63.9,87.5c-.3-.3-.4-1-.8-1.2s-1-.3-1.5-.5c-.7-.3-2-1.3-2.6-.7s.7,3.7,1.2,4.5.9.8,1.2,1.5.4,1.2.6,1.4.9.6,1,.7c.2,0,1,.3,1.1.3.3-.5.2-1.2.7-1.6s.3,0,.4,0-.2-.6,0-.7.4,0,.4,0-.3-.7-.3-1,.1-.4.1-.6-.5,0-.3-.4.5,0,.3-.3-.3.2-.4,0l.3-.4c-.4-.2-1.2-.5-1.5-.8ZM68.7,86.8c-.7,0-.7-.8-1.4-.8.4.6-.3,1.2.2,1.7.5,0,0-.7.2-.9s.5.8.9,0ZM69.3,87.4c-.2.1-1,0-1.1,0s.3,1-.8.6c.1.8.5.2,1.2.3,0-.3-.5,0-.3-.4s1,.2.9-.5ZM98.2,108.4c-.1.1-.4.3-.4.3,0,.2.3.6,0,.7s-.3-.2-.5,0-.9,1.2-.7,1.3c.2,0,.7-.9.8-.9.7.3.2,2.3-.4,1.8s.2-.6-.3-.5c.3.4,0,.7,0,1.1s.5.7,0,1.1l-.7-.9c0,.5-.3,1-.4,1.4s0,.7,0,1-.5.4-.4.6c-.2.2-.6-.2-.5-.4s.4,0,.4-.2,0-.7,0-1c0-.4.5-.7.5-1.2-1.1.3-.5.8-.8,1.2s-.4,0-.6.1-.8.9-.9,1c-.3.6.5.9.5.9,0,.2-.6.1-.4.5h.9c-.2-.6-.2-1.3-.1-2,.8,0,0,1,.3,1.4l1.5-.2c.4-.3-.1-.2-.2-.3-.1-1,1.9-.5,2.2-.9s0-.6.2-.8c.3-.3,1.4-.3,1.6-.5s-.1-.2,0-.4c.4-.3,1-.3,1.4-.6s.2-.5.3-.6c.1,0,1.9,0,2.2-.4s0-.4.3-.5,1.3,0,1.6-.3,0-1.3,1.3-.9c-1.1-1.3,1.2-.7,2-.9,1.5-.3.7-.9,1.1-1.5s.7,0,1-.2.9-1.3.6-1.7c.4-.2.3.3.4.3s.5-.1.5-.1c0,0-.3-.8,0-.7s.2.6.3.6c.2-.1,1.1-.6,1.1-.6.1-.2-.4-.6-.3-.9.2-.6,2-2,1-.4l.7-.2c-.2-.7-.4-1.2-.1-2,1.2.7.6-.7.9-1.2s.9-.6,1-.7c.1-.2,0-.6,0-.9s.1-.8.2-1.1c.1-.6.5-1.3.5-2,1.3.5.5-.5.4-.8s1.2-2.1.5-2.3-.2.7-.8,0l1.1-.6c-1.4-.8-.3-1.8-.2-2.9l-.8.3c.2-1.4-.3-.5-.4-.5-.4,0-.7-.1-1.1.3,0-.3-.1-.6-.4-.7-.6.1-.6.8-.7.9-.1.1-1.1-.6-1.2-.6-.6,0-.7.4-.8.9l-.6-.9-.8.5c.5,0,.3.5,0,.5s-.2-.3-.3-.4c-.3-.2-.5,0-.6-.8-.3,0-.6.4-.8.5s-.3,0-.3,0c0,.2.2.8-.4.6s.2-.7,0-1c-.2-.7-.7.5-.6.8-.8,0-1.1.5-1.4-.6-.7.3-1,1-1.5,1.5s-.7.5-.7.3v-.8c-.5,0-.4.6-.7.8-.4.2-1,.1-1-.5-.5.3-.7.8-1,1.3s-.3.2-.4.3c0,.2-.1,1-.4,1-.5,0,.4-1.2,0-1.5-.8-.2-1.1,1.6-1.3,1.7s-.3-.3-.5-.3-.3.3-.5.2c-.4-.3.3-.5,0-.8-.5.4-1.4,2-2.1,1.9s-.2-.2-.3-.2c-.4,0-.9,1.3-1.1,1.4-.4.3-.7-.2-.9-.2-.4.2-.6,1.6-1.1,1.5s-.3-.5-.7-.4c0,1-.5.9-.9,1.3s-.4,1.1-.7,1.3-.8.2-.9.3,0,.4-.2.6c-.4.7-.9.2-1.1.4-.5.6-.4,2-.6,2.3s-1.2-.2-1,1h.4c0,.4.1.5-.5.5l.3.7c-.4.5-1.3.1-1.4.2s-.3,1.7-.4,2c-.2.5-1.1,1.3-1.3,1.6s-.4,1.3-.6,1.7-.8.8-.8,1.1.6,1.1.7,1.4c0,0-.2-.2-.4-.3s-.2-.6-.2-.6c0,0-.5.1-.6.2-.1.2,0,.6,0,.7s-.3,0-.4,0c-.2.2-.2,1-.2,1.3-.8-.4-.4.2-.6.5s-.9-.3-.3,1.1l-.6-.4c-.3.5.3.6.3.8s-.2.2-.2.4c0,.3.2.7,0,1.2-.7-.3,0-1-.2-1.5-.5.5-.5.9-.2,1.5-.1,0-.6,0-.6,0s-.1,1.4-.1,1.7c.3,0,0-.3.2-.4s.7,0,.9,0c0,.9-.3.4-.6.5-.5.2-.4,1.6,0,1.9,0-.3,0-.7.2-.9.5.3.3.6.2,1.1-.2,0-.3,0-.5-.2,0,.5,0,1.1.5,1.4,0-.2,0-.6,0-.7s.5-.2.6-.2,0,.3,0,.4c.1.2.6,0,.3.6l-.3-.4c-.4.1,0,.6-.6.3,0,.3.4,1.3.7,1.4.3,0,0-.6,0-.6s.4-.1.4-.2c.2.8.1,1.6.7,2.3s0,.4.4.3c-.6-.9-.2-1.4,0-2.2s0-.3,0-.5c0,0,.2,0,.3,0,.7,1-.7,1.6.2,2.5.2,0,.6-1.8.4-2.1h.4c-.3-.3,0-.5.1-.7s-.5-.5-.4-.8c-.2,0,0,.2-.3.3-.5.2-.9-.8-.9-1.2l2.4,1.3c.7-.8,1.2-1.6,2-2.3s2-1.3,2.1-1.4c.2-.3-.3-.3-.3-.4.4-1,.6.3,1.1-.3,0,0-.7-.5-.8-.5-.3,0-.1.4-.4.3s-.2-.6-.4-.8-1.4-1.1-1.5-1.1c-.2,0-.5.4-.9-.3s-1-2-1.4-2.8c.4.6,1.7,2.6,2.1,2.8s1.4-.2,1.3.9c.6-.6.4,0,.8.3s1.3.2,1.3.8c0,.4.7-.4.7-.4,0-.1-.2-.4-.1-.5s.8.1,1-.7-1-.5,0-.6.9,0,.8-.9l-.4.3c-.4-.7.5-.7.4-1.4,0,0-.4.8-.8.5s-.1-1.4.3-1.2c-.1-.3-.4,0-.2-.6,0,0-.9.3-1,.3-.2,0-.4-.9.5-.5.4-.8-.6-.9-.7-1.1s-1-2.5-1.1-2.8c-.3-1.3-.3-2.9-.6-4.3.2,0,.2.3.3.4.2.7.5,3.7.8,3.9s.5-.2.6.1c-.2.7-.6.6-.1,1.4.2,0,.2-.5.6-.3s0,1.2.2,1.5.3,0,.4.1c.2.2.6,1.3,1,1.7.6.6,2,1,0,.7.3.5.9,0,.7.8.7-.8,1.3-1.6,2-2.3l.4-2.7.4.2c0,0,0-1.3-.2-1.4-.2,0-.6.3-.7,0s.2-.6.2-.8-.1-.4,0-.6c0-.3.4-.5.3-.8-.7.8-.7-.7-.6-1.1s.4-.3.5-.5c.2-.9-.9-.2-.8-1s.6.1.8,0c0-.8-.4-1.8-.3-2.6s.8-1.9,1-2.8c.3,0,.1.3,0,.5-.2.7-.8,1.5-.8,2.2-.1,1.1.5,2.5.5,3.2s-.3,0-.3.2c0,.3.2,1,.3,1.4s-.1.5,0,.9c0,1,1.2,1.9.9,2.8.6-.2.6-.3.7.3.2-.4.6-.6.8-.9,1.1-1.4,1.6-2.1,2.8-3.4s1.3-1.3,1.4-1.5-.4-.6-.2-.9h.6c-.4.7.3.4.3.2s-.3-.8-.4-.8l-.7.2c.1-.5.6-.2.4-.9s-.5,0-.3-.6.4,0,.3-.2c-1.2.1-.3-.4-.3-1s-.1-.5-.1-.7c.1-1.7.3-3.2.9-4.8.4.2-.1,1-.2,1.4-.4,1.7-.2,1.7,0,3.2s-.2,1-.1,1.4.7,2.3.9,2.3c.5-.6.5-1.2,1.4-1l-.5,1.2c-.2,0-.1-.2-.2-.3s-.5,0-.6,0c-.3.3,0,.8,0,1s0,.3,0,.4c0,.2.8.5.8.5.2.3-.3.4.6.3v.5c.5,0,.2-.4.9-.3s.4,0,.8,0,.4.3.6.3c.5,0,1.1,0,1.7.1l1.8.6c-.9,0-1.9-.4-2.8-.4-1.5,0-2.4,0-3.9-.1s-.4.1-.6.1,0-.8-.5-.6c.2,1-1.5.8-1.6.9s0,.3-.2.5c-.2.2-.6.3-.8.7-.3.7.2,1-.9.9.2-.6,1-.9.5-1.5-.4.2-.3.8-.5,1.1s-.5,0-.7.4.4.9-.2,1.2c-.2-.8-.6.4-.8.6,0,0,1-.2,1.1-.2s0,.7.2.9,1.9.6,2.1.6c.4,0,.6-.4.7-.4.1,0,.2.4.3.5.5.1,1.4-.4,1.9-.4s.8-.1.8.1c-.7-.2-1.2.3-1.8.4s-1.5.3-1.6.3-.5-.4-.9-.4-.7.2-.9.2,0-.3-.2-.3c-.3,0-.3.3-.6.3s0-.3-.2-.3c-.9,0-.1,1.1-1.1.8.3-.6-.2-.4-.2-.5s.3-.7.4-1,0-.4,0-.5ZM71.2,90.3c-.6-.5-2.2-1.3-3-1.1s0,.3-.2.3c-.2,0-.6,0-.8,0s-.3,1.4-.5,1.7-2.3,2.1-1.9,2.5.3,0,.4,0,0,.3.2.5.4.3.4.5c.1.4-.1,1.9,0,2s.6-.3.7,0-.1,1.4-.1,1.5c0,.2-.4,1.3-.4,1.4-.1.2-.7.1-.8.4s0,.6,0,.8-.3.1-.3.2c0,.2.2.7.3,1,0,1.3-.3,2.5,0,3.9s.5,2,.7,2.1.6-.4.5.4h-.3c.8.2.5.3.4.6-.2.5.5,0,.5,0,.1,0,.5.6.5.8s-.7.2,0,.4.7-.8.2-.8c.2-.2.7-.6.9-.2s-.8,0-.4.8c.3,0,0-.3.2-.4s.3,0,.5,0,0-.5.4-.3-.4.4.1.3c0-.8.1-.3.5-.4s2.7-2,2.8-2.2c.2-.3,0-.4,0-.6s.3,0,.3-.1c0-.3-.6-.9-.6-1.1s.3-.1.3-.2c.1-.1.1-.3.1-.3.4-.3.2.4.4.3,0-.4,0-.9-.4-1.2v.5c-.7-.2-.3-.7,0-1h-.3c-.1-.3.6-.8-.3-.7l.3-.2c-.5-.4-.9-1.2-1.3-1.6-.6-.5-2-.7-2.7-1.2s-1.6-1.2-1-1.2c.8.2,1.6.6,2.3,1.1.2-.7.2,0,.4.1s.7.3,1,.3c-.9-.7,0-.4,0-.5.1-.2.3-1.8.4-2.2.3-1,1-2.1,1-3.1s0-1.3,0-2-.5-1.5-1.1-2ZM62,93.2c0-.7-1.2-.5-1.7-.6.3.5,1.1.5,1.7.6ZM62,93.7l-3.3-.9c.2.7.6.5,1.2.7s.7.4,1.6.4.6.1.5-.1ZM59.3,93.8c-1.5-.6-1.1,1.4-.3.9l-.3-.4.6-.5ZM65,94.7c-1.1-.4-2.2-.7-3.5-.6l2,.3-.4.3c.6,0,1.5.6,2,0ZM62,95.5c-1.2-.1-2.3-.6-3.5-.5,0,.2.5.2.7.2.7.1,1.5.3,2.2.3s.6.1.5-.1ZM65.2,95.8c-1.3-.2-2.5,0-3.8,0,0,.3.3.3.5.3.5,0,1.7.1,2.2,0s.9,0,1-.4ZM65.2,96.7c-.7-.1-1.6.1-2.2.1s-.6-.2-.9-.3c-.5,0-1.2.2-1.9,0,.6,1.6,2.2,0,3.4.5l1.6-.3ZM65.6,97.6c-.5.2-.9,0-1.4,0l-2.9.8c.9.2,1.8-.3,2.7-.4s1.4.4,1.5-.5ZM61.7,98.7c-.3-.2-2,0-2.1.2s.2.4,0,.6c0,0,2-.5,2.1-.7ZM63.2,98.7c-.5,0-1.2,0-1.5.4.5.2,1.2,0,1.5-.4ZM61.3,100.8c-.5,0-.9-.2-1.4,0,.2.1,0,.4.4.4s.9-.2,1-.5ZM64.3,102.1c-.3,0-.3,0-.4.2-.4.4-.6.8-1.2,1.3s-2.1,1-2.1,1.1c-.4.6,2.1,1.6,2.5.9.3,0,0,.4.1.4s.7.4.7.3c.2-.2-.6-.3-.1-.8-1.1,0-.3-.2,0-.4s0-.4.4-.2c.1-.2-.4-.5-.3-.6s.3,0,.3-.1.2-1.2.2-1.3c0-.3-.4,0-.3-.5l.3-.3ZM103.4,102.1c-.4-.5-.4.8-.4.9,0,.3-.5.5-.5.9.2.2,1.1-1,1.2-1.1h-.4c0-.3.2-.6.1-.7ZM62.6,102.4c-.3,0-1.6.2-1.7.3s.1.4,0,.6c.1,0,1.6-.6,1.7-.9ZM62,103.5c-.7,0-1.2.6-2,.5,0,0,.1.6.2.6,0,0,1.7-.8,1.8-1.1ZM61.7,106.5c-.9,0-1.4-.6-2.1-.9.1.9.9.9,1.6,1s.5.2.5-.1ZM56.5,108.7c-1.3-1-.8-.4-2-.8s-.3-.5-.4-.5c-.3-.2-1.2.1-1.6-.5,0,.6-.4.9-.4.3s-.8-.4-1-.4c-.5,0-1.3.3-1.7.2s-.4-.3-.6-.3c-.3,0-.6.3-1-.2-.2,1.4-2,.2-3,.2s-.4.3-.6.3v-.3c-.3.5,0,1.3-.6,1.6s-.8-.6-.5-.7.4.1.3-.3l-1.5.2v.4c.1,0-.2-.3-.2-.3-.4,1-.4.3-1,.5s-.7,1.2-.8,1.3-.2-.1-.4-.1-.1.4-.4.3l.6.3c0,.4-.4.1-.5.1-.2.4,0,.5.5.5,0,.3-.4.4-.4.7s.1,1.1.2,1.4,0,.4,0,.7,1.5.8.4,1v-.6c-.3.4-.4,1.2-.3,1.7l.2-.5c.7.7.2.6,0,.8-.2.3.3.3.4.5.2.5-.3.4-.6,0-.3.6.6,1.9.6,2.2s-.5.6,0,1.3c.6-.7,1,.5.1.2.2.4.4,2.6.6,2.8.7.5.2-.4.1-.7,1.2.4.2,1,0,1.3-.4.9-.2,1.2,0,1.9s0,.3,0,.5c0,.3.4.5.4.8s-.5,0-.3.6.9.9,1,1.1c.2.4-.8-.1-.3.8s.8.7,1.1,1,.4,1.2.4,1.2c.5.3.4-.3.5-.2.3.1,0,.6,0,.6,0,0,.7.2.9.4.6.6,1.3,1.7,1.6,2.5s.6-.3.8,0l.2,1.1c-.4.1-.4-.4-.5-.4s-.4,0-.3.2.6.4.7.6c.3.3,0,.7.8.5l-.3.5c.4.6.5-.4.9,0s-.4.6.2.5c0-.2,0-.6.2-.5.5.2-.3.5-.2.8.1.2.4.2.5.4s.5.6.5.6c0,0-.2.6.4.7s.3-.5.5-.5v1.2c1.1-.4.3.1.5.3.9,0,.6.9.9,1.1s.7-.2.8,0,0,.2,0,.3c0,.1.2.1.2.2,0,.4-.2,1.4-.1,1.4s.9.3,1,.3.1-.6.4-.3-.1.7,0,1,.6.6.8.9.7,1.1.8,1.3c.3.6-.3,1.2.9,1.5v-.5c.9-.1,0,.3.4.7s.7-.2.9,0c0,.3-.3.4-.3.7s.7.4.4,1c.5-.3.7,0,.1.2l.8.7c0-.3-.3-.4-.3-.7-.1-.6.9.1.5.5.5-.2.9.4,1,.8,0,.6-.4-.3-.5-.4s-.5,0-.4.2.6.4.8.6.2.4.4.5.7.2.9.6v-.4c.3,0,.4.2.6.2s.3,0,.3,0c.3.2-.2.6-.2.7.5.3.4-.3.6-.6.5-.6.5.3.4.7,1.1-.5,1.3.4,2.3.5.3-.2-.5,0-.2-.5s.5,0,.5,0c.3.2.3.4.5.6s1.4.6,1.2,0l-.6-.3c.2,0,.6-.2.8,0,.3.5-.2.8,1,.7l-.2-.5c.4-.3.3.2.4.4.3.4,2.9.3,3.5.4s2.5.6,3.1.9.8.5,1.2.8c.2,0,0-.6.3-.4s0,.8.6,1.2.5,0,.7,0c.2.1,1,1,1.3,1.2s1.9.2,2,.2c-.4-1.3.3-.2.4-.1.4,0,1-.4,1.1-.3s0,.3,0,.5.9.5,1,.4c.3-.4-.6-.6-.7-.7-.6-.5,0-1.5,0-1.5-.3-.3-.5.8-.8.8l-.5-1.1.4.3v-.8c1.3.4-.6-.6-.8-1.1.8.1.8,0,.3-.8s-.4-.4-.3,0c.3.7-.8-.2-1.1,0,.2.7.3.3.5.3.6.2,0,.6.2,1-.5-.9-1.6-.5-1.2-1.7-.8.5-.4-.5-.5-.8s-1-.1-1-.5.7-.2.4-.5-.3,0-.4-.1c-.2-.2-.4-.4-.5-.5-.3-.1-1.1,0-.5-.7-.3,0-.5-.4-.7-.4s-.3.1-.5,0-.1-.3-.2-.3-1.5-.9-.9-1,.9.6,1.2.6,0-.2,0-.3c.2-.2.7.5,1,.6,0-.2-.3-1-.3-1.1s-.6.2-.8.2c-.4,0-1.7-.3-1.9-.2s0,.8-.4.7.3-1.1-.6-1.1,0,.3-.2.3c-.6.2-.9-.2-.7-.7-.9,0-.4.3-.5.5,0,.4-.5,0-.6.1-.5.1-1.5.6-1.6-.2h.3c-.3,0-.9-.6-1.2-.3s.6.6-.2.9l-.6-.6-.3.6c-.9-.8-1.2-.4-2.1,0h-2.2c.2-.4,1-.6,1.4-.6s.4.2.6.1c1.2-.2,5.3-.8,5.9-1.1s.7,0,1.1,0,.4-.3.5-.3c0,0,.7.8,1,.8,0,0-.6.1-.3.4s.6-.3.8-.3.6.2,1,.1c0-.5,0-.2-.3-.2-.3,0-.6,0-.9,0-.2-.6.6-.6,1-.5s.2.2.2.3c.4.3.8-.5.2-1s-.5.4-.8.2l-.2-.8h.6c-.1-.6-1.1,0-.8-.9l-.8.5c0-.4-.4-1.7-.7-2s-.6,0-.7-.2,0-.5-.2-.8c-.2-.4-.7-.5-.9-.8s0-.5-.2-.7c-.7.5-.5.1-1-.4h.5c-.2-.5-.4-.4-.7,0-.4-.3.1-.8-.5-1.2s-2.4-.5-3.1-.7-.4-.2-.5-.3-.1.4-.3.4c-.5.1-.2-.4-.2-.5-.5-.3-1.1.3-1.1.3-.1,0-.1-.5-.5-.5-.5,0-.9.8-1.1-.1l-.7.3c-.3-.2,0-.5-.5-.6s-.3.4-.7.5v-.6c-.7-.2-.5-.1-1.1.3-.3,0,0-.4-.1-.4-.4-.4-.8.2-1.1.1s-.1-.4-.3-.5c-.3,0-.4.3-.7.2s-.4-.9-1.1,0c-.4-1.1-.7-.4-1.3-.3s-1.6,0-1.9.2-.1.3-.1.3c-.4.2-.7-.3-.7-.7.3,0,.4.3.7.3s.8-.3,1.1-.4c1.1-.2,2.8,0,4,0s.2.3.3.3c.4.1,1.1.1,1.5.2-.8-.9,0-.5.6-.3,0,0-.4.4-.3.4.2.2.6-.4,1.1-.4s.2.5.7.4v-.5c1,.2.2.8.3.9s1,.2,1.1.2c-.8-1.7.5-.3,1.1-.4s1.3-.3,1.4-.3c.2,0,.2-.3.2-.4s.5.2.6,0-.5-.5.3-.6c-.1-.5-.8-.7-.9-.8s0-.6-.3-.8-.7,0-.8-.2,0-.4,0-.4c0,0-.8.2-.7-.4s.3-.3.2-.7c-.3-.7-.7-.2-.8-.2-.4-.2-.8-1-1-1.3s-.4-.2-.4-.4c0-.3.2-.6.1-.7-.3-.3-.4.4-.5.4-.4,0-1-.6-.4-.6-.7-.7-1.2.2-1.5.2s-.3-.2-.4-.2-.3,0-.4,0c-.2-.1,0-.8,0-.8-.9.8-1.6,0-2.6,0,.2.2.4.6,0,.8-.8.3,0-1.3-1-.6.4.4.5,1-.2.7s0-.3-.2-.3c-.5,0-2,.6-1.7-.9-.8-.1-.3.3-.4.5-.3.5-.5,0-.6-.1-.4-.2-.8-.5-.8-.5-.3,0-.7,0-1,0,.5.5-.5.9-.6.3s.1-.2.1-.3c0,0-.9-.1-1.1-.2v-.3c1.4.3,2.9.1,4.3.3s1.8.7,2.2.4-.2-.8,1.1-.4.1.3.2.3c.8,0,1.6-.2,2.4-.3s.5-.6,1,0c0-1.3-1.2-.3-1.4-.5-.2-.6.3-.6.3-.6.2-.3-.4-.6-.7-.8s0-.2,0-.2c0,0-.3.3-.6.2-.4,0-1.2-.8-1-1.3l.8.6c.1,0,.1-.2,0-.2,0-.1-1.8-1.7-1.9-1.7s0,.4-.3.4-.9-.3-.9-.3c-.1-.1,0-.5-.2-.7-.3-.4-1.4-.8,0-1,.2-.2-.8-.3-.9-.3s0,.2-.1.3c-.6.4-.7-.2-1-.2s-.3.2-.5.3c-.3,0-.4-.2-.6-.2s-.3.2-.5.3c-.4,0-.8-1-1-.9,0,1-.5.2-1.1.8v-.8c-.7,1.1-.8.2-1.1.2s-.4,0-.6,0-.3-.1-.4-.1c-.1,0,0,.6-.7.4s0-.3-.5-.3c-1,0-2.3.6-3.4.5,0-.2.3-.2.4-.2,2.5-.6,4.5-.5,7-.7s1.2-.4,1.9-.1c-.2-.4.2-.8.2-1.2-.2-.3-.5.3-.7.1s-.6-1.3-.9-1,0,.4-.2.3c0,0-.9-1-.6-1.2.5.2.6.8,1.1.8-.4-.4-1.3-1.4-1.7-1.5s0,.3-.2.4-.3,0-.4,0,0,.3,0,.3c-.4,0-.4-.5-.4-.8.2,0,.6.3.6.3s0-.4.3-.4c-.3-.4-.5-.5-.9-.7-.3-1-1.7-.6-2.6-.5.1-.3,1.3-.4,1.7-.5-1.2-1.2-2.1-2.9-3.3-4.1s-.4-.2-.6-.3c-.3-.3-.4-.9-.4-.9s-.4.2-.6.2c0-.3.3-.6-.1-.8-.1.9-.9-.6-.2-.6s1.8,2,2.1,2.3,1.2.5,1.5.9.3,1.1.3,1.2c0,.1.3,0,.4,0,.4.4.7,1,1.4,1.1s.2,0,.2-.2c-.4-1.2-.9-3-1-4.2s-.1-.5.1-.5c0,.2,0,1,.2,1.2s1.1,0,.6,1-.4,0-.3.4c.9.1.4.7.5.9s.5.3.6.6l-.6.2c0,1.1.8,1.4,1.3,2s.8,1.5,1,1.6c.2.1.5-.1.7,0s0,.2.1.3c0,0,.2-.1.5,0,.6.4-.5.4-.2.8s1.1-.2,1.2.4-.4.7.2.4,0-.4.7-.2.2,1,.3,1.1c0,0,.9-.3,1,.3.7-.2,0-.4.3-.9s.4.3.7.2l-.6-1.1c0-.7.5-.4.6-.4.3-.5-.5-1.4-.5-1.6s.5-.2.5-.3-.2-.1-.2-.2c0-.3,0-.5,0-.7s-.5-.8-.5-1,.3,0,.3-.3c0-.6-.5-1.7-.5-2.4s.3-1.4.4-1.9,0-.4.3-.3c-.9,1.9-.2,3.7.3,5.5s0,.5,0,.7.6.3.6.8-.3,0-.3.2c0,.4.4.5.5.9s-.6,0-.6,0,0,.3-.2.4c.6-.2,1,.5.9,1s-.7.1-.6.5.5,0,.6,0,0,.3,0,.5c0,.2.4.5.4.7s-.3.3-.5.2,0-1-.8-.9l.5,1-.5.2c.4-.2,1,.4.9.7s-.5.2-.5.3c0,.2.9,1,1.1,1.2.4.4,1.1.4.9,1.1.3,0,0-.6.4-.4s0,.8,0,.9.3,0,.4,0c.2.2,0,.7.9.8s.4-.6,0-1.1l1.1.3c0-.8-.6-.7-.7-1s-.1-.7,0-.8c0-.4.5-.4.5-.5s0-1.2,0-1.3-.8-.9-.6-1.1.4-.2.4-.2c0,0,0,.6.3.6.4-.7-.4-1.3.4-1.8l1.2-3.7c.3.5,1,.9-.1,1.1l.3.8-.7.3.3.8c-.1.3-.6,0-.6,0-.2.2.6,1.3-.3,1.1,0,.5.9,1,.1,1.2s-.3-.3-.4.4c.1.6,0-.3.6,0s.6.4.6.5c0,.4-.7,0-.9.1-.4.2-.2.8-.3,1.1l.3-.2c.3.5,0,.8,0,1.1s.2,0,.3.2c0,.2.3.7.3.9.1.4-.6,0-.8.2l.2.9c.8-.5.4.7.5.8s.6-.4.8,0-.7.4-.7.5c-.2.4.3.3.4.4.1.2,0,.4,0,.5s.3.2.4.3c0,.2,0,.4.2.6s.6.7.8,1l-.2-.8c.2-.2,1.7,1,.4.9,0,0,1,1.3,1.1,1.4.2.1.5,0,.6.1.2.3,0,1.1.7,1.2s.2-.2.3-.5.8-.4.3-.5-.9,0-.5-.6.8.2.4-.9l-.4.2c.1-.5,0-1.7.6-1.5.2-.4-.5-.6-.4-.8s.4-.2.6,0c-.1-.2,0-1,.2-1.1l.4.3c.1-.3-.3-.6-.3-.8,0-.4.6-.5.6-.6.1-.5-.4-.3-.4-.7,0-1.1.5-.7.6-.7.2-.3-.3-.3-.3-.4-.2-.6.4-.5.5-.7.1-.4-.4-.6-.4-.7s.4-.4.3-.7c-.4-.2-.3.3-.4.3-.5,0-.3-.8,0-.5-.2-.6,0-.7.6-.8l.3-1.6.5.9h-.4c0,1.3-.1,2.8-.3,4.3-.4,2.9-1.8,6.4-.4,9.2s.9.7.5,1.6c1.1-.3.6.3.7.6s1,1.3,1.3,1.3c.7,0,.2-.4.2-.7.3,0,.4.4.7.5s.7-.3.6.7c-.1,0-.4,0-.5,0,0,0,.2-1-.8,0l.6.8v-.6c.2,0,.9.1,1.1.2.2.2,0,.4,0,.5.2.3.2-.1.4.6s.4.4,0,.5l.4.4v-.4c0,0,.8.3.8.3.1.4-.6.3-.4.7.2.6.5-.2.5-.2.4,0,1,.6,1.3.9-.4-.9-.8-2.4-1.2-3.2s-.7-.3-.7-1.2.3-.4.2-.5-.3,0-.3-.1c0-.2.1-.5,0-.7s-.2-.3-.2-.4.5-1,.3-1.4-.3.2-.4,0c-.3-.6.2-.4.5-.5v-1.1c-.1,0-.3.3-.3.3-.5,0-.5-.4-.4-.8l.6.3c-.3-.4,0-.9-.1-1.3s-.8-.1-.5-.5.9,0,.6-1.1c.4,0,.7,1.5.6,1.7l-.6-.3.3,3.3c.5,0,.3,0,.2-.3s-.3-2.1-.3-2.3c.2-.3.3.1.3.2.5.5.5,1.2.6,1.9,0,0,.4-.2.4-.1s0,.5.2.2c-.3-1.6-1-3.2-1.3-4.9-.6-2.9-.6-5.3-2.1-7.8s-.5-1-.7-1.1-.6,0-.8,0-1.1-.4-1.2-.4c-.2-.1,0-.3,0-.5l-.3.3v-1.1c.5,0,.3.4.7.8s.8.3.9.3c.8.2-.2-.7-.2-.9-.3,0,0,.2-.2.3-.2.1-.5,0-.6-.2-.2-.4.5,0,.4-.4-1,.3-.8-.9-1.4-1.4-.9-.7,0,.8-.8,1.1-.7-.6,0-.9,0-1,.2-.6-.4-.3-.6-.6s0-.6-.4-.9c-1-1-.9.4-1,.5-.4.4-.5-.5-.4-1s1-.6-.5-1.2c.4.9-.6.9-.2,0h-.7s0-.6,0-.6h.3c-.2-.5-.8-.9-.8-1.4l-.5.4c-.5-.2-.9-1.9-1.2-2-.9-.3.3,1-.7.8-.1-.2,0-1.2,0-1.2s-.6,0-.7-.5c0,.3,0,.6-.4.5s.4-.8-.2-.7-.2.4-.2.4c0,0-.8-.4-.9-.5-.1-.2,0-.5,0-.6s-.3.2-.4,0,0-.6,0-.6c-.3-.3-.2.4-.5.3-.7-.3-.9-.1-1.4-.6,0,0-.2,1.4-.5,1.1,0-.5-.4-.8-.1-1.4l.2.5.5-.2ZM72.3,112.4s.3.1.5,0c1.1-.4.3-2.2.3-3.1l-.6.5h.4c0,.8.1,1.4,0,2.2-1,.1-.4-.8-.5-.9l-.9.2c-.2.7.5.2.6.8s-.3.3-.4.4c-.2.2,0,1.4.5.7s0-.8,0-.9ZM87,154.5c-1.1-2.8-2.1-5.6-2.6-8.6-.1-.2-.5-.3-.6-.5s.5-.1.5-.4c-.1-.2-.4-.2-.6-.3s-.3-1.5-.2-1.6c.4-.2.3.6.6.3s-.3-.6-.3-.8.4,0,.3-.2c-.7,0-.3-.4-.3-.7s-.3,0-.3-.2c0-.3.4-.4.3-1l-.6-1.3c-.2.2,0,.9,0,1s-.5.4-.3,1c-.4,0-.2,0-.3-.2-.5-1-.1-.5,0-.8.2-.4.3-1.6.8-1.4s.1.6.6.3.2-1.5.7-1.5c-.2.5.3.3.4,0,0-.4-1-1,0-1.6v.5c.3-.4.8-.1.8-.1,0,0,0-.7,0-.8.3-.3.3.4.4.3.3-.4-.5-1.3-.6-1.2-.5.9-1.6,1.6-1.5,2.7-.5-.6-1.1.5-1.4.9s-.4,1.6-1.3,1.5c0-.5,0-1.1,0-1.6.1-1.5,1.2-3.1,1.4-4.6s0-1.9,0-2-.1-.3-.3-.3c-.1,1.2-.7,2.8-1.3,3.9s-.9.7-.8,1.7l-.8-.5c-2.8-6.4-4.1-13.1-5.8-19.8s0-.4,0-.6c0,0-.4.5-.6,0s.4-.3.5-.4c0,0-.1-.6-.2-.8-.3,0,0,.2-.2.3-.4.3-1.1-.6,0-.5s.3-.1.2-.2-1,0-.3-.8c-.3,0-.4.3-.7.3s-.4-.9-.7.1c1.1-.5.4,1.5,0,1.2l-.3-.5.3,1.7c.5-.3,0-.9.7-1.2s.3.4.4.7.3,0,.3.2c0,.2-.1.6-.4.5s0-.7-.5-.6c.3.6-.3.8-.3.8-.1.4.2.3.4.5.5.7-.1,2.2.2,3l.2-.5c.7.4,0,.6,0,.8,0,.6.6.2.6.9s-.5.1-.3.5c.8-.8,1.1.6.1.1v.9c0,0,.4-.5.6,0s-.6,0-.5.4,1.2.3.2.9c.3.6.2,1.2.3,1.8s.8,3.5,1,3.9.3,0,.4,0,.4,2.2.5,2.6.2,0,.3.2c0,.3,0,1.3,0,1.5s.3.2.3.3,0,.5.5.4c.1.4-.4.4-.4.5,0,.4.5,1,.6,1.4s-.3,1,.3.6,0-.6.3-.3-.2.4-.2.5.1.2,0,.3-.6,0-.3.3.7-.2.9-.1c0,.5-.6.4-.6.8s.2,0,.3.2c.1.4,0,.9.4,1.3s.5,0,.5.2-.2.6-.1.7.4.2.4.2-.2.3-.1.5.4.2.4.3-.2.3-.1.4.8,0,0,.4c.5.2,1,.3.9,1h-.4c.4.8.2,2.4,1.3,2.3,0,.2-.5.2-.5.4s.3.9.3,1,.4-.2.4-.2,0,.2,0,.4.2,0,.2.1c.1.4-.2.3-.3.4s.2,1.1.3,1.2c.1.1.9-.2.5.4s-.3,0-.3.1c0,.5.6.9.6.9,0,.3,0,.8.1,1s.6,0,.8.3h-.6c0,.6.2.9.9.7v.5s-.4-.1-.4-.1l.2.9.6-.2c0,.4-.3.4-.3.8.2.8.6.7.7.7s-.1.3,0,.5c0,.9.4.5.5.6s-.3.6,0,1,.5.1.6.3c.1.3-.2.2-.3.3,0,.1.5,1.2.6,1.4s.6.4.6.5-.4.3,0,.9.6.2.4,1.1l1.9,4.4.3-.3c.8.4,0,.6,0,.8s1.2,2.7,1.4,2.8.6-.1.7,0v-.6c-.1,0,.6.3.6.3,0,0-.3-.6.2-.6s0,.2.2.3.3,0,.3,0c.2.2-.3.6-.3.8s.5.7.4,1l.5-.8c.4,0,.4.3.6.5.7.4-.3-1-.2-1.1-.3-.1-.4.6-.7.3s.6-.6.5-.9c-.7.2-.6-.3-.8-.4s-.7.4-.7-.2.2-.4,0-.4-.4,0-.5-.1-.1-.8-.3-.9c-.2-.1-.5.2-.4-.4s.2,0,.4,0l1.4,1.4c.2,0,0-.2,0-.3-.5-1.6-1.6-3.5-2.3-5s-.5-1.8-.8-2.2-.6-.2-.6-.3c0-.4.2-1-.1-1.6-.6,0-.6.7-.6.8-.3.3-.5-.7-.6-.9.2-.1,1,.3.9-.2-.1-1.1-.9-2-1.1-3.1-.2-.2-.5-.7-.6-1,0,0,.2.7.2.8-.7.3-.5-.5-.6-1,0,0,.4,0,.5.1ZM90.6,118.5c-.3-.1-1.6.8-1.4,1.1.5-.3.6,0,1.1.1-.2-.6,0-.7.3-1.2ZM91.4,119.3c-1.1-.6-.6.2-.8.9l.8-.9ZM89.6,121.1c0-.8-.3-.2-.8-.7s-.1-.6-.2-.5c-.6.2.4,1.2.5,1.2s.3,0,.5,0c-.1,1.4-1.7.3-1.4-.8-.2.3-1.1,1-1.2,1.3s.3,1.4-.5.5c-.9.7-1.6,1.9-.6,2.9s.9.1.7,1.1l-1.1-.7c0-.2-.4-.4-.4-.6s.3-.9-.1-.7-.8,1.2-.2,1.2c0-.9.9.6.7.7s-.3,0-.4.2,0,.3,0,.4c0,.4-.7.6.5.6-.3-.6.3-.2.5-.4.4-.3.8-1.5,1.3-1.9,0-.6-.5.2-.5.2-.9,0-.7-.4-.8-.8s-.4-.6-.4-.8c0-.6.5.1.5.2.6.4.7-.1,1-.2s.3.1.5,0,0-.5.2-.5c.3,0,.3.5.4.5.4-.1,1.3-2,1.7-2.3,0-.2-.3,0-.5,0ZM84.8,126.8c0-.6.4-1.1-.4-1.1-.2.6-.2.8.4,1.1ZM61.4,128c-.4-.4-.2-.6-.2-1.1s0-.4-.1-.4c0,.6-.6.6-.6,1.3s.7.5.9.2ZM84.6,128.8c0,0,0-.7,0-.9-.8.1-.4.4-.7,1.1.2-.2.7-.1.7-.2ZM90.2,130s0-.3,0-.3l-.9,1.1c-.6-.3.5-.4.2-.7s-1.1.6-1.3.9,0,.7-.3.9v-.8c0,0-1.1,1.3-1.1,1.3.5.2.7.1.5.7.1.1.6-.3.6-.4,0-.2-.9-.4-.6-.7s.5.2.5.2c.7,0,.6-.4.6-.5.4-.4.6-.7,1-.3v-.6s1.1.3,1.1.3l-.3-.8h.5s0,.8,0,.8c.4.1.4-.5.5-.5s1.7.7,1.9.8.2.3.3.4.4,0,.4,0c0,0-.3.7.4,1.2s.3,0,.4,0,.2,1.1.3,1.3.4.3.5.4-.2.3,0,.4c.2.3,1.3.2,1.4.7l-.6.3c.9,0,.4.6.5.6.6.6.3-1.5.3-1.6,0-.4.6-1.1.4-1.6s-.8-.4-1.1-.7c-.4-.4-.6-.9-.9-1.2-.9-1-2.2-1.5-3.5-1.9v.6c-.6,0-.4-.7-.9-.8s0,.6-.4.3ZM97.5,141.1c-.2-.3-2.2-1-2.7-1.4-1.7-1.3-1.5-2.8-2.3-4.5s-1.7-2.4-3.5-2.2-1.4.4-1.6.7-.2.4-.2.7c-.7,0-.2-.5-1.1,0,.2.3.6.2.5.8l.5-.4v.8c.4,0,.4-.7.5-.7s1.1-.2,1.3-.2c1.3,0,1.4.9,2.5,1.1,0,.3-.3,0-.3.2,0,.3.5.5.6.6,0,.2-.2.7-.1,1v-.6c1,0,.3.8.3,1.1s0,1.4.1,1.4.3-.2.4,0c0,.5-.3,0-.4,0s0,1.8.3,1.9h-.4c0,0,.2,1.3.2,1.3l.3-.4c0,1.2.8.7,1.7,1s1.1.9,1.3,1.5,0,1.8,1.2.7,1.4-2.1,1.3-3.1-.2-1.1-.3-1.2ZM97.9,137c.3.2,1.2-.8,1.2-1.1s-1.4-2.5-1.7-2.2c-.3,1.3-.6,2.2,0,3.5l.4-.6c.3.1,0,.4,0,.4ZM68,135.8c-.2-.4-.4-1.5-.5-1.8s-.4,0-.5,0c0,.3.3.4.4.6.1.3-.1.9.7,1.2ZM75.4,136.1c-.4.5-.4-1-.5-1.1l-.6.5c0,.4.4.1.4.2s-.2,1.2.2,1.4c-.5.2-.3-.4-1.1,0l.9,2.1c.1.3-.5.3-.4.4.4.4,1,.3,1.5.2v-.8c0,0,.7.8.7.8l.8,1.5c-.6.3-.4-.3-.6-.6s-.6-.2-.5-1c-.8.6-.9,1.2-1,2.1.5,0,.2-.3.3-.6s.5-.2.3-.6c.6.2.4.9.5,1.4l.4-.5.2.8c0,0-.5-.4-.6.3.5.2,1.2-.2,1.1.7s-.8.2,0,.5v-.3c.5,0,.6.8,0,.6,0,0,.3.3.3.5-.1.6-.7-.4-.8-.5-.1-.1-.4-.1-.4-.1,0-.1.6-.5.5-.7h-1.1c.6,1,.5,2,2,2v-.4c.8.5,0,1.2-.6.9.2.5,0,1.2.7,1.4s.6,0,.9,0,.3.3.4.3c.2,0,.7-.4.6.6-.7.1-.3-.2-.5-.4s-1.2,0-1.2.3c1.2-.2.5.8.6.9s1.3.3,1.4.6c.1-.4.1-.3.5-.2.1-.6-.8-.1-.9-.5s.1-.4.1-.7l.3.2c.1-.2-.4-1.1-.5-1.4s0-.8-.4-.9v.5c-.5-.1-.9,0-1.1-.5s.7.3.9,0c-.1-.8-.3-.5-.4-.5-.5-.3,0-.6-.2-1.1.4,0,.3.7.1.9.8.4.1-1.5,0-1.8s-.9,0-.7-.7l.4.3c.2,0-.4-1.1-.4-1.2s-.4.1-.4-.1.1-.4,0-.8-.3-.9-.4-.9-.4.1-.4-.1.4-.8-.1-1l-.5.5c.2-.7-.4-.8-.5-1.4,0-.2.4.2.5,0s-.6-2.4-1-2.6c0,.2.2.7.1.8ZM68.6,138.2s0-.4-.7,0c.8.3.9,1.3,1.7.3-.3-.2-.6-.2-1-.3ZM98.8,146.3c.2-.3.5-.3.6-.8.3-1.2-.4-3.2-1.4-3.9.3,1.8-.6,4-2.4,4.6.9,1.6,1.7.3,2.8.4s.4.2.4.1,0-.3,0-.4ZM74.8,143.1c-.3-.2-.6,0-.4.3s.2,0,.3.1.6,1.4.9,1.1c0-.2-.7-1.4-.8-1.5ZM95.9,147c-.9-.9-.7-2.4-1.5-3.2s-1.2-.2-2.1-.5c.8.4,0,.7.6,1.3h-.4c-.1.5.3.4.4.6s-.3.2-.3.3c.1.5.6,0,.6-.4.7.6.2,0,.7,0l-.4,1.1.5-.2c.1.2.3.4.3.6s-.5,0-.2.2c.7.6.3,0,.8,0,0,0-.4.6.5.7s-.5-.4-.2-.6h.8ZM86.5,144.7c0-.2.2-.5-.3-.7s-.4.3-.4.4c0,0,.3.9.3.9,0,.1.4.2.4.3,0,.2-.4.4-.3.7h.6c0-.4-.2-.7-.3-1s0-.4-.1-.5ZM88,147.1c-.1-.2.2-.5,0-.9s-.8-1.3-1.1-1.5c-.2.8.7,1.6.8,2.1s-.1.5,0,.7c.3.4.6,0,.5-.4s-.3,0-.3-.1ZM80.6,150.5c.1-.2.3-.9,0-.9s-.2.3-.5.3-.7-.4-1.1-.2c0,.6.6.5.9.7s.2.7.7,0ZM81.4,151.2c-.2-.3-.8.3-1,0-.4.9.7,1,1.3,1,0-.3-.7-.4-.8-.5-.3-.4.8-.2.4-.6ZM92.3,170.3c-.9,0-.4.4-.5.6s-.4.2-.4.5.4.5.4.9l.6-.3c.7,1.3,0,.7-.1.9s0,.8.3.8v-.6c0,0,.5.3.5.3.3-.1.1-.6.3-.7s.9,0,.6-.8c-.9.1-1.2.6-1.8-.4s.6-.5.2-1.1Z"/>
      <path class="st0" d="M45.9,117.3c-.3.6.8.2.8.2.2,0,.3.3.5.2,0-1,.6-.2.9,0s.3,0,.3,0c.1.4,0,.5,0,.8-.2,0-.8-.3-.8-.3-.5,0-.7.5-1-.3-.3-.1-.2.3-.3.3-1,.3-.9-.5-1.1-.6-.3-.2-.3.3-.4.3-.2,0-.8,0-.7-.3.2-.2,1.5-.2,1.9-.3Z"/>
      <path class="st0" d="M82.1,122.4c0-.3-.4-.5.2-.6s.5.3.7.5c-.3.2-.7,0-.9.2Z"/>
      <path class="st0" d="M97.9,178c.1.3-.3,1.3-.7,1.2s-.3-1.3-.4-1.5l1.1.3Z"/>
      <path class="st0" d="M57.6,103.5s-.1.2,0,.3c0,0,.3,0,.3.2-1.2.7-2.1-1.1-.7-.7s.5.3.5.3Z"/>
      <path class="st0" d="M99.4,181.1c0,0,.4,0,.2.5h-.9c-.1-1,0-1.7.6-.5Z"/>
      <path class="st0" d="M97.6,184.5c0,0,.5,0,.6.2-.2.2-.1,1.4-.4,1.4s-.3-1.6-.2-1.7Z"/>
      <path class="st0" d="M97.6,182.8c-.1.3.4,1.5-.2,1.4s-.4-1.5.2-1.4Z"/>
      <path class="st0" d="M99.2,182.8c.3.2-1.1,1.4-1.1.7s.7-1,1.1-.7Z"/>
      <path class="st0" d="M96.1,175.2c0,0,.4,0,.2.4s-.4.3-.6.2c0-.5-.3-1.5.4-.7Z"/>
      <path class="st0" d="M56.8,96.4l-.5.6c-.7-.1-1.2-.5-1.2-1.3.7,0,.8.9,1.7.8Z"/>
      <path class="st0" d="M56.7,97.1c.1.2.4.4.5.5.3.9-1.6.3-.5-.5Z"/>
      <path class="st0" d="M72.9,137.3c0,0,.2,1.5.3,1.7-.5.1-.2-.7-.5-.9s-.4,0-.4,0c-.1-.1.3-.9.6-.8Z"/>
      <path class="st0" d="M72.9,126.7c.2.2.3.1.4.4s-.1.7,0,1c-.7,0-.6-1.1-.6-1.6.2-.2.1,0,.2.2Z"/>
      <path class="st0" d="M70.5,153.6c.2.2,0,1,.9.6-.1,1.1-1.1.3-1.2-.4s.2-.3.3-.2Z"/>
      <path class="st0" d="M70.1,136.9c.3.2.8.8.3,1-.5,0-1.1-1.5-.3-1Z"/>
      <path class="st0" d="M70.9,124.7l.5,1.4c-.6.2-.7-.7-.7-1.1s0-.2.3-.2Z"/>
      <path class="st0" d="M70.5,123.5c-.2,0-.6,0-.8,0-.7-.5.7-1.1.8,0Z"/>
      <path class="st0" d="M61.4,151.3s0,.2,0,.4.5.6.4.7c-.3.3-.5-.3-.6-.4s-.2,0-.3,0c-.4-.3.3-.9.4-.7Z"/>
      <path class="st0" d="M45.3,107.1s0,.6.2.8.7.4,0,.4-.6-.5-.6-.5c0,0,.1-1,.4-.7Z"/>
      <path class="st0" d="M70,129.5v-.6s.5.3.5.3v-.5c1,.7.2.7-.5.8Z"/>
      <path class="st0" d="M44.2,130.4c0,0,.3,0,.2.3s-.5.3-.6.2.1-.3,0-.4c0-.2-.3-.4-.2-.7.4,0,.4.3.5.5Z"/>
      <path class="st0" d="M72,124.4c0,.4.6.9.2,1.2-.2-.1-.2-.4-.3-.6s-.4.1-.4-.1.1-.7.5-.5Z"/>
      <path class="st0" d="M44.9,126.5c-.1-.2-.1-.5.2-.4s.7.8.7,1c-.1.6-.5-.3-.5-.4,0-.1-.3-.1-.3-.2Z"/>
      <path class="st0" d="M47.7,75.9c0,.4-.5.5-.6.7s.2.2.3.3c.1.2,0,1.2-.3.9s-.4-1.2-.4-1.3c0-.1.8-.6,1-.5Z"/>
      <path class="st0" d="M40.9,91.4l-.3.3c.5-.1.7.4.5.6s-1.2-.4-1.5-.3c.3-.4.9-.6,1.4-.6Z"/>
      <path class="st0" d="M46.7,100c-.3.5.1.9.1,1,0,.3-.5,0-.7.1-.2,0-.3.3-.5.3-.2-1,.4-.4.6-.6-.2-.4,0-.7.4-.8Z"/>
      <path class="st0" d="M27.4,86c-.2.2-.7-.1-.8,0-.3.1-.3.6-.4.7-.3.4-.7-.2-.4-.5s.4,0,.5-.2.5-.6.6-.6c.2,0,.6.5.5.6Z"/>
      <path class="st0" d="M44.4,99.7c0,0,.9,0,.8.4-.5,1.1-1.9-1.3-.8-1.1s0,.7,0,.8Z"/>
      <path class="st0" d="M29.1,70.6l.3,1.2h-.8c.3-.6-.6-1.2.5-1.2Z"/>
      <path class="st0" d="M38.1,72.8c0,.6.1.3.6.5.3.7-1,.5-1.1.5s0-.9,0-.9.3,0,.5,0Z"/>
      <path class="st0" d="M26.3,70.3c-.2.5.6,1.1-.5,1.1l-.2-1.1h.6Z"/>
      <path class="st0" d="M36.4,71.6v1.1c-.6.2-.5-.5-.6-1.1h.6Z"/>
      <path class="st0" d="M43.1,72.2c.3.2-1.1.9-1.2.8-.4-.4,1-.9,1.2-.8Z"/>
      <path class="st0" d="M42.3,73.7c0,0-.4-.1-.4-.2s.3-.4.4-.4c.2,0,.7,1.1.2,1.2-.4-.2,0-.5-.1-.6Z"/>
      <path class="st0" d="M42.8,98.5c0-.8.4,0,.3.1-.9.8-1.7-1.1-.3-.1Z"/>
      <path class="st0" d="M31.8,32.3l.2-.3c.9,0,.2.7-.3.9-.4-.5-.8-.9,0-1.2v.6Z"/>
      <path class="st0" d="M29.7,31.8c.2.2-.2,1.2-.7.5-.3.8-.9,0-.4-.2s.3,0,.5,0,.3-.6.5-.3Z"/>
      <path class="st0" d="M47.9,52.3s.2.5.2.6c.3,1-.5.4-.6-.4s.4-.3.4-.2Z"/>
      <path class="st0" d="M47.5,58.6s.5.2.2.5-1.2-.7-.5-1.1c.3.1.2.4.3.6Z"/>
      <path class="st0" d="M108.9,94.7c0,0,.5-.5.6,0,.1.7-.7.4-.6.7s.3.3.4.4c.8.2.8-.8,1-.9s.5,0,.6,0,.2-.7.3-1,.4,0,.5-.2c.7-1,.7-.5,1.1-.7s0-.4.2-.5.7-.2.9-.2c-.5.4-.9.9-1.3,1.3s-.6.6-.9.9c-.5.5-1.6,1.2-2,1.7s0,.6-.2.7-.7-.3-1.1.5.3.3.2.4c0,.2-.6.5-.5.7s.6-.5.7.3c1,0,2.1.7,3,.7s1.7-.2,2.7-.1,1,0,1.1.4c-1.2-.4-2.7-.2-4,0s-.4.2-.5.2c-.2,0-.3-.4-.6-.4s0,.4-.4.5-1-.3-.8-.8c-.5,0-.9.9-1.3.2l.5-.3c-.7.2-1-.5-.8-1.1-.3-.2-.6.5-.6.5,0,.2,1.1.9.3,1.4-.6-.2-.7-.8-.5-1.4-.6,0-.8.6-1.4.8-.2-.4.1-.8.4-1.1.6,1,.8-.4,1.1-.7s.5-.2.7-.4c.3-.2,0-.6.6,0,0-.1,0-1.8,0-2.2s.3-1.1.4-1.4-.1-.4,0-.7.8-1.2,1-1.6c.3-.3.3,0,.2.2-.5,1.1-.9,2.2-1,3.4Z"/>
      <path class="st0" d="M116.4,89.9c.1.1-.2.4-.3.5l-2.1,1.6c.2-.3,2.2-2.3,2.4-2.1Z"/>
      <path class="st0" d="M106.6,100l-.9-.2c.6-.7,1.2-1.3.9.2Z"/>
      <path class="st0" d="M84.6,57.9c0,.2-.2.9-.4,1.1s-.4.1-.5.2-.4.9-.5,1.1c-.3.5-.7-.2-.4-.5s.3,0,.4,0,.1-.5.3-.7c.3-.3.7-1,1.1-1.1Z"/>
      <path class="st0" d="M95.5,43.1s.5-.2.7-.1c-.2,1.3-.6.3-.7.3-.5,0-.7.8-.9.5s-.1-.7,0-.8.3,0,.5,0,.3-.2.4-.2,0,.2,0,.3Z"/>
      <path class="st0" d="M96.9,40.5c-.3.3-1.4.1-.8-.3s.6,0,.6-.8c.3,0,.2,1,.1,1Z"/>
      <path class="st0" d="M5.4,10c.1.1.2.9,0,.9s-.2-.3-.4-.2-.6.6-1,.4v-.5c.6.3.9-1,1.5-.6Z"/>
      <path class="st0" d="M7.3,9.6s0,.2,0,.2c0,0,.6,0,.4.4s-.5-.2-.1.5c-.5.1-.2-.5-.5-.6s-.5.2-.5.1c-.1-.1.3-.8.7-.6Z"/>
      <path class="st0" d="M14,8.9l-1,.2c-.4-.7,1-.9,1-.2Z"/>
      <path class="st0" d="M17.6,9.2c.5.5,0,1.2-.8.8l.8-.8Z"/>
      <path class="st0" d="M49.2,35.9c-.4.1-.4-.4-.5-.4s-.9.1-.6-.3.7-.2.9-.3c0,.5-.2.7.2,1.1Z"/>
      <path class="st0" d="M91.5,165.9c-.2,0-.7.2-.7.4s.5.6,0,.7-.3-.7-.4-.8-.4.3-.6,0c0-.4.4-.2.6-.2.5-.2.2-.7.3-.7.3-.2.8.4.8.7Z"/>
      <path class="st0" d="M92,168.8c.1,0-.5.9-.6.9-.7.2-.4-.3-.5-.4s-1.1-.3-.2-.6.8.4,1.3,0Z"/>
      <path class="st0" d="M89.9,163.7s.4-.2.5,0,.4,1.1,0,1.1-.6-1-.5-1.1Z"/>
      <path class="st0" d="M74.2,117.2c.1.1.4,1.3-.4.9.1-.2,0-.9,0-.9s.4,0,.4,0Z"/>
      <path class="st0" d="M68.1,96.8s0,.2.2.3c.2.1.8.2.9.3s.1.5-.2.4-.3-.3-.5-.4c-.4-.2-1-.5-1.5-.6s-.5.2-.4-.3c.4-.2,1,.2,1.5.4Z"/>
      <path class="st0" d="M109.3,28.5c.4.6-1,2.1-.6.8s.4-1.1.6-.8Z"/>
      <path class="st0" d="M90.3,133.4c0,.1-.1.5-.2.4s-.2-.2-.3-.2-1.1.5-1.6.2c0-.3.4-.3.7-.4s0-.2.1-.2,1.2,0,1.3.1Z"/>
      <path class="st0" d="M40.2,38.1s0-.2-.2-.2c-.4-.2-.8-.3-.8-.9,0,0,1.5.7,1.5.8,0,.3-.3.5-.6.3Z"/>
      <path class="st0" d="M87.1,122.8c.6.6-.7.6-1,.6-.2-.7.5-1,1-.6Z"/>
      <path class="st0" d="M88.2,121.8c0,.1-.8.6-1,.5-.3-.9.7-.4.6-1.2.2,0,.5.5.4.7Z"/>
      <path class="st0" d="M88.7,122.7c-.3.3-.9-.7-.2-1.1.5,0,.4,1,.2,1.1Z"/>
      <path class="st0" d="M49.2,50.5c.3.2-.2.9,0,1.2l.4-.3c.3.4.5.8-.1.9,1.3,1-.8,1.3-.5,0s.5,0,.3-.4c-.6.4-.9-.6-.9-1s.5-.5.7-.4Z"/>
    </g>
  </g>
</svg>