<?xml version="1.0" standalone="no"?>
<!DOCTYPE svg PUBLIC "-//W3C//DTD SVG 20010904//EN"
 "http://www.w3.org/TR/2001/REC-SVG-20010904/DTD/svg10.dtd">
<svg version="1.0" xmlns="http://www.w3.org/2000/svg"
 width="23.000000pt" height="39.000000pt" viewBox="0 0 23.000000 39.000000"
 preserveAspectRatio="xMidYMid meet">
<metadata>
Created by potrace 1.16, written by Peter Selinger 2001-2019
</metadata>
<g transform="translate(0.000000,39.000000) scale(0.100000,-0.100000)"
fill="#000000" stroke="none">
<path d="M104 363 c-3 -16 -10 -40 -14 -55 -6 -18 -5 -28 1 -28 6 0 8 -4 5 -9
-3 -5 1 -14 9 -21 8 -7 15 -24 14 -39 l-1 -26 -7 25 -7 25 -8 -24 c-6 -18 -10
-20 -17 -10 -12 20 -23 4 -11 -17 6 -11 6 -27 0 -46 -8 -24 -13 -26 -30 -17
-24 13 -35 5 -19 -15 7 -8 16 -28 21 -45 7 -27 6 -31 -10 -31 -32 0 -31 -17 1
-24 43 -8 141 -7 156 2 13 8 45 94 37 101 -2 2 -18 -5 -34 -18 l-31 -22 6 23
c16 73 25 114 25 126 0 25 -17 11 -37 -30 l-22 -43 0 48 c-1 26 2 47 7 47 4 0
12 11 18 24 9 19 8 36 -4 75 -18 56 -38 66 -48 24z"/>
</g>
</svg>
