<svg xmlns="http://www.w3.org/2000/svg" id="Layer_1" version="1.1" viewBox="0 0 134 217.4">
  <!-- Generator: Adobe Illustrator 29.2.1, SVG Export Plug-In . SVG Version: 2.1.0 Build 116)  -->
  <g id="CR414t">
    <g>
      <path d="M47.6,1c.2.1.5.6.6.7,2.6,1.7,3.7,2.6,5.7,5s1.9,3.3,2.5,4.9c.1,0,.4-1.1.5-1.4.2-.8.6-1.5.9-2.4s.3-.8,1-.8c1.6,0,.9,1.7,1,2.7.1,1.9,1.1,3.9.5,5.8l1.9-3.8c1.6-1.7,1.1-.4.5.8s-.7,1.2-1,2.1-.7,1.5-.6,2.4c.1.2,2.5-2.4,2.7-2.6.4-.5.9-2,1.5-1.9,1.1.4.2,1.3.3,2.2s.3,1.1.4,1.7c.3,2.1,1,5.9.6,7.9s-1.7,4.3-2.3,5.3-1.8,1.9-2.3,2.7-.4,1.2-.6,1.5c.4,0,.4-.2.5-.4,1.1-1.9,3.5-4.4,4.9-6.2s.3-1,.8-1.3l1.4,1.8-.8,4.3c2-.5,2.5-2.5,2.9-4.3.6-.4,1.5.7,1.7,1.1.7,1.4.5,3.9.2,5.5-.5,2.9-2.7,5.7-5.3,7.1l-.9,1c2.1-.5,3.7-1.8,5.1-3.4s.8-1.2,1.3-1.6.4-.2.3.2l-3.2,3.7c-.8.6-1.6,1-2.5,1.5s0,.6-.9.3l-.3.8c1.5-.2,2.6,0,4.1-.7s2.6-2.4,4-.6c-.7.5-.8,1.4-1.2,2.1s-1.3,1.6-2,2.3-.7.4-1,.8c1.4,1.1,3.4,0,4.9-.4-.3.9-1.9,1.4-2.7,1.5-1.2.2-2.2.2-2.8-.9,0,.6.8,1.7,1.2,2.2.6.7,1.7.7,1.4,2l-3.8.7.7.6c0,.2-1.4.3-1.2,1l.9-.2c0,.4.2,1-.3.9v.2c.1,0,.3,0,.4.2.2.3.2,1,.5.9,1.8-2.5,4.8-3.8,6.7-6.2s.5-1,.7-1.4.5-.2.6-.4c.2-.3-.2-.7,0-.9.4-.5,1.3-.5,1.6,0,.5.8,0,1-.1,1.1-.6,1.8-.7,3.5-1,5.3s0,.5,0,.8l2.5-1,1.1,1.1c0,.3-.3.5-.5.9-.5,1.3-.8,2.9-1.6,4s-.7.4-.7.9l2.6,1,1,.7c.6.2,1.9.6,2,1.3s-.3,1.1-.5,1.4c-.4.5-1.4.8-1.8,1.1-.7.6-1.6,1.4-2.5,2.1-1.6,1.2-2.6.9,0,2.5s1.7.9,2.3,1.1,1.1.1,1.1.2c0,0-.2.7.4.8l-.2.6h-.7c0-.1-3.5,1.7-3.5,1.7,1.1.2,1.9.5,3,.3s1.5-.6,2.3-.9.7-.4.6,0l-2.6,1.5.3.5c-1.4,0-2.8-.3-4.2-.7l1.7,3.5-1.7-2.6-.2.3c.9,1.2,1.5,3.1,2.7,4.1s2.6.7,4.4.5v.5c-1.4,0-2.6.5-4,.2.5.8,1.7.2,2.3.6v1.3s-4.3.2-4.3.2c.8,1.1,2,1.1,3.3,1v.5c-1.7.4-3.4.1-4.2-1.6-.4.4-.7.5-1.2.2l1.1,3.3,1.8.7c-.8.4-1.5-.1-2.3-.2s-1.5.5-1.8.5-.6-.2-.9-.2c.6.9,1.8,1.5,2.8,1.6.1.1.1.2-.2.3s-1,0-1.4-.2-.3-.2-.2.2c.2.7.9,1.4,1.4,1.9l-.4.3c0,1,2.2,3,3.1,3.4,0,0,0,.8,0,.9-.4.5-3.6-.3-4.4-.4l.9.9c.6.5,1.7.4,1.5,1.3l-2.8-1.2-.3.8h-.9c0,0-.2,2-.2,2-.9,0-.3-.4-.3-.6s0-1.1-.3-1.1c.1.7-.4,1-.6,1.5s.2.8-.8,1.3-.4,0-.5,0c-.1,0-.4,1-.9.6-.2-.4,0-1-.3-1.4s-1.2-1-1.3-.9c-.3,0-.2.3-.1.5.1.4.4.7.5,1.2.3,1,.1,2.2,0,3.2-.3,0-.4.1-.3-.2.3-1.3-.2-2.4-.7-3.6-.4-.3-2.3,2.5-2.7,2.8l.3-.9c-1.2.2-2,1.9-3.3,1.4l.8,10c-.3,9.4.9,18.8,1.6,28.1s0,1.8,0,2.7c.6-.5.5-1.5.7-2.2,1.5-5.3,4-10.2,5.9-15.3s.2-.7.2-1.1l.3.2c0-.2-.2-.4-.1-.7.3-1.2,1.8-3.4,2.3-4.6,1.1-2.4,2.1-4.8,3.4-7.1s.2-1.5,1.6-1.6c0,.7.6.5.9,1-.4,1.3-1.1,2.6-1.6,3.9-4.7,13-3.9,23.8-4.6,37.2s.3,1.3-.2,2c.6,0,.6-.8.9-1.3,2.8-4.7,4.3-8.1,5.9-13.2s.4-3,1.7-3.4.8,1.4.8,1.9c.3,4.1,2,7.4,2.5,11.5s0,.7,0,1.1c1-.8,1.2-2.1,1.7-3.2,2.6-5.8,4.8-11.6,6.8-17.7s.9-3.9,1.6-5.7.9-1.7,1.8-.9.3,1,.3,1.4c0,2.2-.6,4.6-.8,6.8s0,4.2-.3,6.3-.7,3.8-1,5.6-.4,5.3-1.6,7.7c.9-.7,1.4-1.8,2.2-2.6,4.4-5,9.5-8.9,14.4-13.2s2.7-2.2,3.7-3.4,1.3-2.6,2.7-2.4-.3,2.3-.7,2.9c-5.6,9.4-12.1,17.6-17.2,27.5s-6.2,11.6-9.4,17.3c-1.2,2.2-2,4.7-3.3,6.8s-1.3,1.5-1.6,2.4c1.5-1.3,3.3-2.1,4.8-3.3,6.6-5.5,12.5-12.1,18.7-18h.3c-.1-.6.5-.4.7-.6,4.5-4.1,9.1-11.1,13-15.9s2.3-3,3.4-4.5c1.3-.4.4,1.4.1,2.1s-1.5,2-1.5,2.1c-.8,3.2-3.4,8.5-5.3,11s0,.6-.2,1c-3.9,6.8-8.2,13.3-12.6,19.9s-4.4,5.8-8.4,8.5-.4.3-.5.5c1.1-.5,2.3-.9,3.5-1.4,4.2-1.8,9.1-3.5,13.7-4.9s11.7-2.2,17.4-3.1.7-.5,1.1-.5l.6.4-.3.3.2.4c-.5-.1-.7.4-1.1.6-.9.5-2.5.8-3.4,1.2-3,1.3-6.1,3.3-8.9,5.2-7.3,4.9-13.4,9.7-21.9,12.6s-2.6.8-3.8,1.2-2.6.7-3.9,1.1c.7.7,2.1.5,3.1.7,6.6,1.3,12.2,5.8,18.8,7.4s2.1-.1,2.3.7h-.5s.5.2.5.2l-.3.7-1.6-.2.3.3c-.2.5-1.4,0-2,0-2.5.3-5,.7-7.5,1.3s-2.6.9-4.8,1-4.4,0-6.6,0-.8-.2-1.2-.2-.7.4-.8.4,0-.3-.1-.3c-.5-.1-1.6,0-2.1,0-3.1-.5-6.3-1.1-9.2-2.1s-7-3.3-10.5-3.7-1.5.1-1.7.2-.5.5-.7.6-1.5-.3-1.9-.5-.1-.3-.1-.3c-.1,0-1.4.9-2.8-.1s-1.1-1.4-1.9-1.6c-2.8-.7-6.6-.4-9.5-.6s-5.4-.1-8.1-.4c-6.6-.6-12.9-4.6-18.7-7.7s-16.1-9.8-21.6-10.2-1.3.2-1.5,0c-.7-2.4,1.9-1.5,3.4-1.5,7.1-.4,12.2-.9,19.4.7,5.6,1.3,11.2,2.9,16.8,4.9s2.6,1.2,4,1.5c-1.1-.9-2.4-1.6-3.5-2.4-2.1-1.7-4-3.8-6-5.6s-2.3-1.5-3.4-2.4c-5.3-4.1-10.2-7.6-14.9-12.4s-1.5-1.3-1.6-1.4c-1.4-2-3.1-3.9-4.6-5.9s-1.8-1.5-1.5-2.8c0,0,1.6.2,1.9.3.4.2.4.6.7.8,5.9,4,13.8,6.4,19.3,10.4s.8.9,1.3,1.1c-.5-1.1-1.6-1.5-2.5-2.2-2.6-2.1-5.2-4.3-7.5-6.6-4.6-4.6-8.4-9.6-10.4-15.9s-1-4.8-1.6-7.1-1-3.1-1.6-4.7c1.1-2.9,2.8,2,3.4,3.1,3.4,5.7,8.9,12.2,14.4,16s10,5.7,14,9.4,1.4,1.4,2,2.2c.1-.4-.4-1-.6-1.3-1.7-2.7-3.1-5.4-4.6-8.2s-2.9-5.4-4.5-8-2.4-2.9-3.4-4.5-1.2-.4-.6-1.2c.1-.1.5-.2.7-.2.6,0,3.1,1.2,3.9,1.4,1.8.5,3,.7,4.6,1.5,7.5,3.7,12.3,8.5,16.8,15.6s1.5,2.8,2.5,4.2,0,.5.4.3c-1-2-1.4-4.4-2.3-6.5s-2.8-4.4-2.9-7.1-.3,0-.3-.2c-1.2-4.5-1.8-11-1.4-15.7s1.2-5.4,1.4-8-.2-2.4,0-3.3.7-.7.9-.6c1,.8.7,2.1.9,3.1.5,2.1,1.4,5.6,2.2,7.4,1.3,2.9,3.4,5.8,5.1,8.5,0-.4-.4-.7-.5-1.2-.1-.6-.2-2.3-.2-3.1-.8-8.9-.3-17.8-1.1-26.7s-.5-5.4-.9-8-.6-4.5-.9-4.8-.4-.1-.6-.2-.4-1-.7-1c0,.7.3,1.4.6,2s.8.4.6,1.3c-1,.4-1.3-.6-2.2-.7s.3.6-.3.5c-1.1-.1-2.6-1.7-3.3-2.6-.6.4-.4,1-.2,1.6.3,1,.9,2.5,2,2.7,0,.3,0,.4-.3.3-.9-.2-2.2-2-2.2-3h-.3c.1.5-.6.4-.9.3s0-.4-.4-.3c-.6.1-1,1.6-1.7,1.1-.5-.5-.2-.9-.2-1.5l-.5.3-.4-1.2-2.4,1.3c-1.1,0-1.6.6-2.6.7l-.6-.7c1.4-.8,2.4-2.6,2.4-4.2-.7.2-1.5.5-2.2.7s-.9,0-1.3,0-.6.5-.9.5,0-.3-.2-.4c-.7-.2-2.2.4-2.6-.2s1.1-1.2,1.6-1.6c.9-.7,2.5-2.6,3.2-3.6s.9-1.9,1.3-2.9.9-1.1,1.2-1.6c-.4-.2-.7.2-1.2.2s-.6.2-.6-.1c1.7-.2,2.5-1.5,3.1-3-.6.5-1.8,2.3-2.7,2.1s0-.5-.4-.3l-1.1.5c.2-.4.9-.6,1.1-.9s.3-2.5-.2-2.8c-.7-.3-1.1.3-1.6.5-1.3.4-3.5.4-4.9.2s-.7-.4-.6-.9c.9,0,1.3-.4,1.9-1l-1-.6c.4,0,1.1.1,1.4,0s1.4-2.5,1.5-2.9c.3-1.2-.2-1.7-.4-2.8l-.7.3v-.4c.7-.3,1.3-2.3,1.2-2.9s-1.5-1.2-1.9-1.3c-1.2-.3-2.1.2-1.1-1.7,0-.7-1.7-.6-2.3-1,0-.3.3-.1.5-.1,1.4,0,2.8.5,3.8-.9,0-.2-1.8-1.8-2.2-2l-.4-.8c.2-.9,1.1-.6,1.7-.4l-.2-.3c.3-.1.8,0,.7-.5-2.1-.1-3.1-2.4-4-4.1,0,0,.4-.2.5-.2.2,0,1.8,1.7,2.2,2s.3.4.6.3c-.4-.8-1-1.6-1.3-2.4-.6-1.8-1.2-5.6-1.3-7.5s-.1-1.2.6-1.1.9,1,1.3,1.7,1,1.3,1.5,2l2.5,1.4-.9-1.7c.4,0,.7-.4,1-.5s.9.3,1.3-.1c0-.4-3-.6-2.4-1.1l3.3.3c.1-.1-1.2-3.2-1.2-3.8s.4-1.1.8-1.1l-.7-.9,3.3,1.6c-.6-1-1.3-1.9-1.7-3s-1-3.1-.3-3.6c0,1.5.7,2.8,1.1,4.1l1.1,1.2c.2-.9-.3-2-.3-2.7s.2-.7.2-1c0-1.7-.3-3.3,0-5,.2-.2,1.5.5,1.7.7.2.3,0,.6,0,.9s.3.1.3.3c.2.5.4,1,.8,1.4.2-1-.4-1.8-.6-2.8s-.2-.7.1-.4c.5.9.6,2.1,1,3s.3.2.4.4c.3.5.4,1.4,1.2,1.4,0-.2-.2-.9-.2-1.1s.3-.1.4-.3c.3-.5-.2-1.6-.2-2.2s.3-1.4.3-1.6c.6-1.9,1.8-3.1,3.8-3.3-.2-.2.2-1-.3-.9-1.8.7-3.2,2.3-5.2,2.3s-3.7-1-5.1-1.7l3.5,1c2,.5,3.6-.2,5.1-1.5l-3.1-.4.3-.3c-2.4.4-3.5.8-5.3-1.1s-1.8-2.9-1.8-4.3.7-2.3.2-3-.7,0-.4-1.1,1.2.3,1.5,0l.2-.9.6,1.6c1-.5,1.4,0,2-1.3,1.2-2.6,0-5.2-1.1-7.5s-.4-.2-.5-.4-.3-1.2-.3-1.2c.1-.5,1.4,0,1.7.2,1.5,1,5.5,5.1,6.6,6.5s2.2,2.8,2.9,4.3,0,.4,0,.6l.5-1.5h-.3c0-.1.2-1.8.2-1.8-.9-.3-2-1.3-2.5-2.1s-.6-1.1-1.3-2c-1.8-2.4-2.7-5.1-4.1-7.7.4-.2.9.9,1.1,1.2.5.9,1.1,2.3,1.7,3.3s0,.5.4.2c-.4-1.2-1.1-2.5-1.6-3.6-1.2-3.4-1.4-7.3-1.7-10.9s-.4-2.7-1-3.4-.9-.4-1.2-.6c0-.8.2-1.2,1-.9s1.3.7,1.5.8ZM49.7,4.1c-.1-.1-.5-.3-.6-.4-.2.2.9,2.8,1,3.3.5,2.2,1.1,5.5,1.4,7.6s.2,2.3.4,3.4l.6-.7c.3,0,.8,1.3.4,1.6h-.4s.6,1.2.6,1.2l.6-.2-.4-.3.3-.8c.7.2.5,1.3,1.2,1.3s.3-.5.5-.1c.3.3-.3,1.3.4,1.2,0-1.5.3-2.9.2-4.4s-.3-1.4-.2-2.2c-.9.5-.3.6-.2,1,.2.7-.8.9-1-.2l.3-.2c-.9-.9.2-.6.5-.8s-.2-2.2-.3-2.6c-1.2-3.2-3.1-5.1-5.2-7.5ZM57.6,17.8c.5-.5.6-.8.9-1.5.8-2.3.4-2.7,0-4.9s0-.6,0-.9c-.6.2-.3.9-.5,1.3s-.5.2-.6.8c-.3,1.8,0,3.6,0,5.4.2.3.2,0,.2-.2ZM64.4,15.6c-.1-.1-.8.4-1,.5-2,1.7-3.8,4.7-4.9,6.9s-.4.4-.6.7c0,.4,1.1.9.9,1.4h-.5s.2,1,.2,1h-.7c-.5-.6.9-1.4-.2-1.6l-.4,3.2h.5c.2.9-.1.8-.7,1,.8.6.6,1,.6,1.8l.3-.7h1c0-.1-.6-.2-.6-.2,0-.4-.4-.2-.5-.3-.3-.5.4-1.2,1-.9l-.2.7h.5c.9-2.5-.4-.8-.9-1.2,0-.8.4-1.4,1.2-1.6.2.2-.5,1.3.2,1.3.7-1.3,1.3-2.8,2.2-4s.2-.5.5-.4c-.6,1.4-1.6,2.7-2.2,4.1s-1.1,2.7-1.1,4.2l1.6-2.3c1.1-.3-.4,1.2-.5,1.4-.2.3,0,.5.2.3s.5-.9.8-1.1c1-1,1.8-1.3,2.7-2.7,2.3-3.9,1.3-5.6.6-9.5s0-1.5-.1-2.2ZM60.5,15.8l-1.1,1.3c0,.9-.6,1.2-.8,1.6s-.7,1.3-.7,1.4c-.1.1-.4,0-.5,0,0,0,.6,1.3-.3,1.7s-.6.2-.9.2c.3,1,.4,2.1.3,3.1.5,0,.3,0,.4-.2.7-1.3.9-2.9,1.7-4.2s.5-.8.7-1.1c.3-.4,1.1-1.2,1.2-1.6s-.3-.4-.4-.8.3-1.1.4-1.5ZM54.6,20.2c-.1-.2-.9.5-.9.8l1.2.6-.5-.4.2-.9ZM47.2,21.6c0,0-.4-.3-.5-.2,0,1.6.6,4.5,0,5.9s-1.4,2.3-1.6,2.4c-.4.3-1.2.2-1.7.2.4,1.8.2,5,2.3,5.8s3.8.6,5.3-.8c-.5-1.1-1.3-1.8-1.8-2.9s-.3-.9-.3-.9c0-.2,0-.6-.2-.9l.2-.6c.3,1.3.8,2.6,1.6,3.7s1.4,1.4,2.8,2.1,0,.6.3.6l.4-.9-.4-.3-.3.3c-.8-.8-2.6-1-2.3-2.4l.7.2.3-.7c.6.2.4,1.1.5,1.2,0,.1.7.4.7.7,0-1.6-1.4-3.1-1.7-4.7-.4-.2-.3.2-.4.3s-.6,0-.8,0v-1.2c.2-.2,1.1.4.9,0-.6-1.6-1.6-3.1-2.3-4.6-.6-.7-1.1-1.6-1.8-2.2ZM55.1,22.9c-.9.3-1.6-.8-2.6-.7.2.6,1.4.7,1.6,1.1s-.6,0-.6.1l-.3.4,1.8,2v-2.9ZM52.3,26.8s-.6-.4-.5,0c.4.8.5,1.8.8,2.7s0,.5.4.4c-.4-.4-.1-1.8-.2-2s-.2,0-.3-.2c-.1-.3,0-.7-.2-.9ZM53.3,27.6h-.3c.2.7.4,1.4.4,2.1s0,2.8.3,3.2.4.3.4.3c.2.3.1.7.5,1l.6-.6-.3-1.1.6-.3c.2.6.7,1,.4,1.7h.5s-.5-2.3-.5-2.3c-1.1.5-.7-.3-.9-.7s-.3-.1-.4-.3c-.5-.9-.9-1.9-1.3-2.9ZM66.8,33.5c-.7-1.4.6-2.8.2-4.3-3.9,2.9-6.3,8.2-5.4,13l.7-.8c-.1-.2-.5-.2-.5-.4-.2-1.1.7-1,.9-1.7l-.9-.4.4-2.2c.6,0,.4.5.7.7,0-1.8.8-3.5,1.8-5.1s.1-.3.1-.5c.9,0-.3,1.2-.3,1.4-.8,1.8-1.3,3.6-1.2,5.5s.5,1.2-.2,1.8c.4.3,1.1-.9,1.4-1.1.5-.4,1.4-.8,1.9-1.2s1.3-1.3,2.2-1.8c.1,0,.1.4,0,.4s-1.5,1.1-1.7,1.4-.6.9-.9,1.1-1,.4-1.2.4l.4.3v.5c-.4,0-.1-.5-.5-.3-.6.2-.2.8-.3,1s-.6.2-.6.5c1.2-.4,2.2-.3,3.4-.9s3.3-3.2,3.9-4.4c1-1.9,1.3-4.5.9-6.6l-1.2,1.8c-.7.6-2.9,1.3-3.2,1.7s-.2.6-.2.8c-.6.2-1.1-.6-.4-.7ZM43.8,34.4c0-1-.3-1.9-.5-2.9s.2-1.6-.5-2c0,1.8-.6,3.6,1,4.9ZM62.2,30.6c-.1-.1-1.2.8-1.4,1s-1.4,1.5-1.2,1.6c.3,0,2.7-2.5,2.6-2.6ZM56.4,34.8c-.1,0-.5-.1-.6-.2l-.3.9,1.2.7c0-.3,0-1.1-.2-1.3ZM52.8,36.3c0-.2-.8-.7-1-.6s-.3.3-.4.4-.4,0-.7,0-.8.2-.9.4l2.9-.2ZM57.2,44.3c-.4-1.7-.9-3.3-.7-5-.6-.2-.7.3-.8.3-.9.2-.7.2-1.4.5s-2.5.7-3,1.7-.7,2.2-.7,2.4c0,2,1.6,3.3,2.4,4.9s.2,1.3.6,1.5l-.2.8,1.7-.8c.4-.6-.5-.6-.2-1.5.7-.2.5.4,1,.5l.4-.6c0-.3-.7-.3,0-.9s.2.3.5.3v-.7c-.6.2-1.3.2-1.4-.6.4-.3,1-.6,1.4-.2s0,.6.3.6l.2-1h-.5c0,0,0-1,0-1l.5.2c0-.4,0-.8,0-1.1s-.2-.2-.2-.3c-.3,2-1.9-.1-.3-.4l.3.4ZM59.6,43.9l-.2-1.4-.4.5-.6-.2c.3.6.6.9,1.2,1ZM63.7,42.9l-1.5.7h1s0,.5,0,.5c.4.2.3-.3.4-.3.7,0,1.1.2,1.5-.7-.2-.2-.6.6-1.3.2s-.1-.3-.1-.3ZM72.8,43.9c-.6,0-.9.6-1.5.8s-5.2,1-5.8,1-.2-.4-.5-.3-2,.7-2.2.8c-2.1,1-2.2,3.3-1.9,5.3-.4,0-.9.2-.9-.3h-.2s-.6.7-.6.7c1.7-.4.7.7.7.9s.6.9.8,1.3c.4.8.6,1.7.9,2.5s1.9.8,2.6,1,1.2,0,1.5.1c.4.2.6.8,1.2.6l-.2-1.4c.4,0,.5.1.5-.3,0-1-.3-1.9-.6-2.8-.6-.4-1.1,0-1.6,0-.9,0-2.6-2.3-2.7-3.3.9-.2,1,.9,1.6,1.6,1,1,1.6.9,2.9.7,0-.4-.4-.6.1-.8,1.2-.5,2.7.2,4-.2,0-.6-.6-.5-.8-.7s-.3-.5-.6-.7-1.1-.6-1.2-.7,0-.3,0-.4c0-.2-.3-.4-.3-.6,0-.3.8,0,.3-.8s-.5-.1-.3-.7c2.1,0,4.1-1,4.7-3.1ZM45.2,45.5c-.5,0-.3,0-.3.3-.4,1.1,0,5.7.7,6.8s.6.5.7.6c0,.2,0,.4,0,.6.2.4,2.1,1.9,2.6,2.2s.4.3.5,0c-.1-.8-.2-1.6-.5-2.4-.7-1.6-2.7-3.5-3.2-5s-.3-.9-.3-1.3-.1-.6.2-.6c0,1.2.7,2.2,1.2,3.2s1.1,1.4,1.7,2.2.9,1.2,1.1,1.8c.5,1.3-.2,2.7,1,3.7l.5,1.7c0-2.1.5-3.8-.2-5.8s-1.6-3-2.5-4.1-2.7-2.3-3.2-3.8ZM51.8,50c-.8-.9-1.1-2.3-2.1-2.9v1.9c.6-.6,1.2-.2.9.5.8-.4.6.5,1.2.5ZM56.8,51.6h-.3c.3.7,0,1.1-.2,1.6h.5c.5.6-1.4,1.3-1.6,1.1,0-.7.2-1.1.9-1v-.3c-.4.2-.5,0-.5-.4h-.2c-1,.7-2.2,1.9-2.3,3.2s.1.8.1,1.2c0,.5-.4,1.2-.4,2,0,2.1.9,3.3,2.2,4.7.1,0,1.1-.8,1.3-.9.6-.5,3.1-3,3.2-3.6s-.1-.6,0-1.1.5-.4.5-.6c.3-.8.2-2.6-.2-3.3-.7.3.1.8.1,1.3s-.4.9-.1,1.4l-1.4.5c-.3-.6.1-.7.3-1.1s-.1-.3,0-.5.3,0,.4-.2c0-.4-.2-1.1-.4-1.4.3,0,.6.1.5-.3-.7.2-1.4.1-1.2-.8s1.1-.5,0-1.2l-.3,1.4c-1.3,0-.6-1-1-1.7ZM76.9,51.9l-1.5,1.5c-2.3,1.9-5.1,3-6,6.1s0,1.2,0,1.7c.4-.3.4-.9.6-1.4,1.1-2.3,3.1-3.9,5-5.5s.9-.4,1.1-.6c.3-.4.4-1.4.7-1.9ZM49.4,57.8c-.1-.1,0-.4-.3-.7-.5-.6-2.1-1.2-2.7-1.8s-.4-.9-.7-1-.6.2-.9.2c-.6,0-1.6-.5-2.3-.5-.6,1,.7,2.6.2,3.5s-2.2.9-2.6,1.3c0,.6,1.6,2.2,2.1,2.4s.9,0,1.3.1c1.7.5,3,1.6,5,.6s2.2-2.9,1.4-4-.4,0-.5-.1ZM75.4,54.9c-.2-.2-1.2.9-1.4,1.1-.5.6-2.7,4.3-2.6,4.8l.5.4c-.5,1,.4.4.5,1-.6.8-.6-.5-1.2-.4v1.4s-.7-.3-.7-.3c-.5.6-.3,1.4.4,1.7.2,0,.6-3.3,1.2-1.1l-.4,1.1h.9c.3-.1-.1-1.3,0-1.5.3-.5,1.3-.5,1.7-.6,1-.3,4-3.3,4.5-4.2s.7-1.8.6-1.9c-.6,0-2.6.8-3,.5s-.1-.5-.3-.6-.7.3-1-.2.3-.6.3-1ZM68.4,56.1c0,0-.1-.1-.2,0-.7,0,.3,1,.4,1.2s-.3.8,0,.9l.5-1.3c-.3-.1-.6-.7-.7-.7ZM71,60.3l1.4-2.9c-1,.8-1.3,2.1-2.1,3,.1.2.5,0,.6-.1ZM65.8,58.7c-.1-.1-1.2-.4-1.5-.4,0,.3.2.1.3.2.1.2,0,.5.1.7l1.3.2v.7c.7-.4,1-.4,1.7,0l.2-1c-.6,0-.9.5-1.6.4s-.3-.5-.5-.7ZM37.5,60.3c-.2-.1-.5,0-.8-.2s-1.4-1.6-1.7-1.3c.8,1.9.9,5.1,2.5,6.4s3.8,2,6.2,2,.8-.2,1.2-.2l.4.7.8-.3c0,0-.1.5-.2.6-.7.7-5.3.5-6.4-.1v.5s-2.4,1.1-2.4,1.1c.8,1.4,3.3.4,2.1,2.7l-1.2,1.6c.5,0,.9.2,1.4.1,2-.1,3.1-1.5,4.5-2.7s2.6-2.2,2.6-1-1,2-1.1,2.2c-1.3,1.9-3.8,3.3-6.1,3.1-.2.7.9.6,0,1l-.5,3.2c.2.2,1.3-.5,1.5-.8s0-.4,0-.5.3.2.6,0,.5-.6.6-.7.4,0,.5,0-.4-.7,0-1,.5,0,.7-.1c.4-.2.6-.6,1.2-.5l-.2-.3,1-.3.6.3c.2-.8-.6-.3-.7-1s0-.3.3-.4c1.7.8.9-.5,2.2-.7v.8c.3-.6,1.4-1.3,0-1.1-.4-.6.7-1.4.7-1.5s-.3-.3-.3-.5.2-.6.2-.9c0-.7-.4-1.1.8-1.3.5.6-.4.9-.4,1,.2.7.9.2.7.9l-.7.8.7.2.5-2.9c1.1-.4,1.1,1.6.3,1.7l.3.3c-.6.8-.2,2.4.7,2.9l-.2.5c.9,0,1.7,0,2.6.4s1.3,1.3,1.5-.2-.3-1.1-.3-1.2.3-.3.3-.5-2-2.4-2.3-3.1,0-1.3-.2-2-1.7-1.5.7-1.7c-.1.6,0,1.1.1,1.7,1.1,3.3,1.6,3.7,4.4,5.3s1.9,1.4,3.3,1.5c-.3-1-1.4-1.5-1.9-2.4s-.7-1.3-1-1.9c-.7-1.4-.6-3.1-1.9-4.4s-1.1-.4-1.9-.6-.4-.4-.6-.4-.3.3-.6.2-1-.4-1.1-.6c-.4-.7.5-.9.8-1.4l-.7-.2c.3.3-.4.9-.7,1-.8.5-1.9,1.1-2.8.9,0,.3,0,.2.1.3s.7.9.8,1c0,.4,0,.9,0,1.4v.3c-.1,0-1,.2-1,.2-.4-.6-.5-1.4-.9-2-.6-.9-2.4-3.1-3.3-3.6s-.9-.4-1-.4c-.8,0-1.9.1-2.7-.3s-1.8-1.3-2.7-1.7ZM61.3,59.5l-1-.5-.3,1c.4-.2.5,0,.9.2l.5-.7ZM63.9,59.7c-.5,0-1.8-.8-2-.3l-.2,1,2.3-.7ZM53.2,62.9c-.2-.3-.4-.5-.6-.7l-.9-2-.3.9c.6.2.8,1.1,1.1,1.6s1,.5.6,1.5l1,.2c.3-.4-.8-1.2-1-1.5ZM67.9,64.6c-.4-.7-.2-.4-.5-1.2-.4-1.1-1.3-2.2-2.5-2.3s-3.3.5-3.5.7c-.6.4-.3.8-.4,1.1s-.2,0-.3.2c-1,3.7,2.5,4.4,4.1,7,.8-1.1-1-2.3.9-2.9s4.3.9,2.2-2.6ZM59.6,61.6l-1.2.3c0,.3.6.3.7.6s-.3.7.1.9c.3-.3,0-.9.1-1.3s.4-.3.3-.6ZM81.9,63.6c-.6-.3-1.9-1-2.5-1.2s-2.1-.5-2.2-.4-.1.4-.4.6c-.9.7-2.4,1-3.5.9v.9s1.4,0,1.4,0l.4,1.2c-.5.4-1.4-.9-1.4,0,.7.2,1,.9,1.5,1.4.3-.5.4-.8.4-1.4l.4.2v.9c.2,0,.8-.1.9.3l-.3,1.3.7.5c.1-.3-.3-.4-.3-.6,0-.5.7-.9.8-.1h.4c.5-.5,1-1.1,1.6-1.5s3.2-2,2.8-2.4c-.5,0-.6-.4-.8-.5ZM48.4,63.5c-.3-.2,0-.6-1.1-.3l1,.8h1.1c-.1-.4-.6-.3-1-.5ZM36.3,66.8s-.3,0-.4-.2c-.5-.5-1-1.1-1.7-1.6.2.6,1.3,1.9,1.8,2.1s.3-.2.3-.3ZM74.2,67c-.6-.5-1.5-1.9-2.3-1,0,.2,1.9.8,2.3,1ZM75.8,68.8c-.1-.1-2.4-1.4-2.7-1.5-.9-.4-1.9-.5-2.8-.8.2,1.2,1.6,1.3,2.5,1.9s2.2,1.6,2.5,2.8l-1.2-1.4c-.8-.1-2.1-1.3-2.8-1.3s-1,.7-1.4.7,0-.3-.2-.4-1.1,0-1.2,0l-.2.5c.5.2.6,0,1-.2l.2.4.4-.2c0,.8,0,1.3-.9.9v.7s-.7,0-.7,0l-.3-1-1.2.7c-.6-.4-.3-1-.3-1.6-1,.6,0,2.3-.8,3.3,2-.5,4.2.3,5.1,2.3l.4-.4v-.7c2.1-.3,4.6,1.5,6.7,1.2s1.6-.8,2.2-1.1,1.2-.2,1.4-.7c0-.1-1.7-.7-2-.8-1.3-.7-2.9-2.1-3.7-3.1ZM59.8,67.3l-.7.2c.4.6.6,1.1.5,1.9.3,0,.1-.4.5-.5s.5,0,.8,0c-.4-.5-1.1-.8-1-1.6ZM59.2,72.2c.8-.5,0-.9-.1-1.3s0-1.1-.6-1.3l.7,2.6ZM63.2,71.4c.7.6.2,1.2.2,1.6s.5.3.5,0c0-.4-.2-1.8-.4-2.1s-2.3-2-1.8-.5l.6-.2c.5.4,0,.8,0,1.2.4,0,.7-.2,1,0ZM69.8,74c-1-1-2.5-.8-3.8-1.1,0,.3.1.4.3.5.5.5,1.4,1.2,1.9,1.7s.4.5.2.7c-.5-.8-1.6-1.1-2.3-1.6s-.4-.9-.9-.8c-.2,1.3.4,2.6,1.1,3.7s1.3,1.5,1.5,1.7.4,0,.5,0c.2,0,.2.3.3.3,1.2.3,2.7-.3,3.7-1,0-.3-.2-.1-.3-.3-.7-1-1.2-2.9-2.1-3.8ZM64.5,75.4c-.3-.7-.3-1.4-.7-2-.8.7.3,1.8-.3,2.8l.7-.2-.2,1c1,0,.5.4.7,1s.9.8,1,.7v-.5c-1.2-.3-.4-.5-.4-.9s-.8-1.6-.9-1.9ZM49,74.6l-.9-.3c-.6.6.2,1-.2,1.7l-.9-.5c0,.5-.5.4-.8.7s-.9,1.3-1.2,1.5c-.5.3-1.1,0-1.6.2s-.2.3-.3.3c-.6.4-2.3,1.4-2.6,2-.8,1.5-.2,3.2-.7,4.6s-.9,1.1-1.1,1.7c.4-.2,1.6-.5,1.6.2h.2c0-.8.5-.3.9-.4.6,0,1.1-1.3,1.9-.2s0,.8.3.8c.8-2.3.6-4.9,1.5-7.1s1.9-3.5,3.4-3.8l-.2-.9.7-.5ZM57.8,74.8h-1.7c0,.5.6.5,1,.7.1-1.3.4-.1.4,0,.2.3.5.3.7.4.3.2.2.7.8.6s.8-.4,1.1-.5.7.2,1.1,0l-.2.9c.5-.3.7.2,1.2.2l.2-.7-.9.2c-.4-.7.5-.8.3-1.6-.6-.1-.2.3-.4.5-.5.3-1,.1-1.5.2s-.8.7-1.3.1v-.5c0,0-.9,0-.9,0v-.5ZM50.4,76c-.4,0-.7-.3-.7-.7-1.2.7,0,.6,0,1.4.1.2.9-.5.7-.7ZM53.2,76l-1.2-.3.4,2c0,.3-1,.3-1.2,0v-1s-.8.8-.8.8c-.4-.4-.8-.3-1.3-.3v-.7s-.6.7-.6.7c0,0,0-.7-.4-.3s0,.8,0,1.1-.4.4-.4.6c-.6,1.6-1,5.3-.7,6.6s.8,2.6,1.2,2.6c.5-.2.3-.7.3-.8.1-.2,1-1.1,1.2-1.1,1.4,2.1,4.1,2.4,6.3,2.9-.5-1.4-1.3-3-1.7-4.5s-.4-4.8-1.1-5.5-.7-.2-.7-.4c0-1.1.6-1.2,1.4-.6l-.3-1.6c-.7-.2-.2.9-.3,1-.6,0-1.2-.5-.6-1s.7,0,.6-.4ZM73.5,76.7c-.1-.2,0-.9-.5-.8l-.8,1c0,.5,1.6,2,1.2,2.3-1.7,0-3.2,1.3-5,.9v.7s-1.6-.2-1.6-.2c-.2,2.2,2.8,2,4.3,2.3.2,1-.6,1.7-1.2,2.4.8,0,2,.4,2.7.9s1.9,2.3,2.4,1.9v-.5s2.1.5,2.1.5l-2.6-3.4c-.4-.9-1.2-1.8-1.5-2.7s.2-.6.5-.7c1,1.1,2.1,2.5,3.7,2.7s2.9-.2,3.8-.3.5.1.4-.2c-1,0-1.2-1.1-1.6-1.5s-2.7-2.9-2.9-3.1c-.4-.2-1-.2-1.2-.3s-.2-.8-.7-.9l.3-.9c-.3,0-.4.3-.8.3s-1.1-.3-1.1-.4ZM56.5,76.4c-.6-.1-.2.6-.4.8l-1.5.3.8.2v.9c0,0,.5-.8.5-.8.6-.2.4.1.8.3.5-1,0-.9-.2-1.7ZM78.7,79.1c-.4-.8-.9-1.8-1.6-2.4.3.9.8,1.9,1.6,2.4ZM63.5,78.3c-.1,0-2.7-.4-3-.3s-.4,0-.4.3c1.3,0,2.8.3,3.9,1s1,.7.8.9c-.8-.6-5.8-1.5-6.2-1,0,.7-.4,1.5-.3,2.1,0,1.6,2.5,4.1,3.9,4.8s1.5.6,2.1.4l.2.7c.3-.8,0-1.2-.7-1.6.5-.7,1.1-.3,1.6-.3,1.2,0,3.3-.1,4.2-.8s.5-.4.4-.7c-.8,0-2.8-.4-3.4-.9s-.6-2.9-1.8-3.6-.8-.5-1.2-.8ZM45.5,85c0-2.2.3-4.2.9-6.2-1.5,1.8-1.4,4.4-1.8,6.6s-.7,2.1-.8,3,0,.3.3,0c.5-.6.7-1.4,1-2.1s.3-.1.3-.2c0-.2-.3-.8-.3-1.1h.5ZM55.9,80.5c-.9.8-1.2-.6-.9-1.4l-.6-.3.7,4.2c.4.3.6-1,.8-1.2l-.3-.5.4-.8ZM57.1,84c0-.1-.3-1.4-.3-1.8,0-.5.2-1.4-.3-1.6v1c.1,0-.4.3-.4.3.4.7.4,1.7.2,2.4s-.7,0-.7.5.3.9.4,1.3c.3-.2.2-.5.3-.7.3-.6.2-.5.4-1.1s.4-.2.5-.3ZM38.2,85.2c.6-.7,1-3,.9-3.9-.3,0-.3.4-.4.6-.4,1.3-.5,2.7-1.6,3.7.2.2.9-.2,1-.3ZM60.1,85.6c0-.3-.2-.4-.3-.6-.7-.8-1.4-1.6-2.1-2.3.2,1.5,1.1,2.3,2.4,2.9ZM76.2,84.6c0,0-1.6-1.1-1.3-.5l2.3,2.9c0-.3,0-.6-.2-.9s-.6-1.4-.7-1.5ZM58,85h-.7c.3.9,0,1.6-1,1.4l1,2.1,1.1-.3c-.3-.8-1.2,0-1.5-.8.3-.4.5-1.1.7-.3,1.8-.9.2-.9,0-1.1l.3-.9ZM37.7,85.9c-.8.1-1.6.6-1.7,1.4h1s-.2-.6-.2-.6l.9-.8ZM65.7,88.7c-1.3-1.2-3.4-.9-4.8-1.5s-1.2-1.2-1.7-1c.7.5.2.8-.5.8,0,.5,0,.3.3.4.8.5,1.2,0,2,.2l-.2.8c.6.2.6-.3.8-.5s.8,0,1.1,0l-.3.9.6-.7.9.4c0,.6-.6.5-1,.5l.5,1c.8,0,.3-.9.7-1.1s.9-.2,1,.3l.8-.4ZM70.8,86.7c-.6-.2-1.3.2-1.9-.4,0,.6-.3.8-.9.9l.3.6-.9,1.5c-.3-.2-.7-.3-.6-.8l.9-.7c-.4-.5-.7-.5-1.2-.3.4.7,0,.9-.2,1.5s0,.6,0,.8-.5.3-.6.6c-.4.6-.5,2.8-.5,3.6,0,2.4.7,4.9.2,7.4.4-.3.6-.9,1-1.2s.5-.1.6-.2.6-1.7.8-1.9,1.5-.4,1.9,0l.3-.3c1.2.3,1.4,1.3,2.3,1.9.2,0,1-2.7.7-3.1s-.7-.3-1-.6c-1.6-1.4-2.8-2.6-3.4-4.6s-.2-1.1-.4-1.6l.3-.2.5.4c-.1-.6-.1-1.1.6-.8s.9,2.7,1.3,3.5,1.2,1.2,1.3,1.3c1.3,1,3.1,1.5,4.7,1.6,0-.4,0-.3-.3-.4-.5-.2-1.2-.3-1.8-.5-2.5-1-4.5-4-4.8-6.6-.5-.1-.3.3-.6.4s-.5.1-.8.1c.2-1.6,1.2-1.3,2.4-1-.2.8-.4.8-.2,1.7.4,1.5,1.9,3.6,3.2,4.5s2.2,1.2,2.4,1c-.3-.8-.7-1.6-1-2.4-.5-1.2-.4-1.4-1.3-2.5s-2.3-2.5-2.7-2.8-.4,0-.6,0,0-.2,0-.2ZM51.1,88.5c-.1-.2-1.4-.5-1.5-.4v1s.6-.8.6-.8c.8.2.7.9.4,1.5l1.9-.7c-.1-.5-1.3,0-1.4,0,0-.2,0-.5,0-.7ZM63.7,91.8c.5-1.3-1-1.7-2-1.4l-.3-.4c0-.2.6-.4.2-.7-.7,0-1.5-.3-2.1.4l.4.8-1.1.9c-.5.2-.4-.3-.5-.3-.3,0-.5.3-.9-.2l-.8,1.5c.6.3.6-.9,1-.9,1.2.2.6.8.6,1.4.1,1.2.9,2.4,1.1,3.6s.1,2.5-.2,3.7-.8,1.5-.8,1.8c0,.7,1.2.9,1.2,1.8.3,0,.3-.4.3-.6.5-2,.9-4.3,1.3-6.3s.4-.8.5-1.3c0-.7-1.7-3.6-1.6-3.7.5,0,.4,0,.6.2,1.9,1.7,1.9,3.3,2.2,5.8s0,.8,0,1.1c.9-.2.6-1.3.7-2s.3-.4.3-.5-.4-1-.4-1.4c-.1-.9-.2-1.2-.4-1.9s.1-.7,0-1h.5ZM54.4,93.1c-.2-.7-.2-1.7-.7-2.3s-1.6-1.3-2.1-.7c0,0,.3.2.3.3,0,.8-3.2,3.7-3.5,5.1s0,3.9.2,4.5c.1.8.6,2.1,1.2,2.7.3-.8,1-1.5,1.4-2.2s.3-1.4.8-1.3c1.1.7.5,2,1,2.9s.3.1.3.2c.7,1.1,1.1,1.9,2.5,2.1-.7-1.4-.7-2.9-.7-4.4s.4-5-.3-6.6-.3-.2-.3-.3ZM57.3,90.1c-1.1.5-2.1-.5-2.9,0,.4.6.6,0,.9,0,.6,0,1.6,1,2.1,0ZM48.5,91.1l-.9.2c.2.5.2,1.3-.5,1s-.1,0-.6-.1-.3-.3-.6-.3c-.9,0-.5.7-.6,1.2-.6,2.3-1.2,3.4-2.6,5.2s-.6,1.3-1.3,1.1l1.9-2.1c.1-.5,1.5-3,1.2-3.3-1,0-1.6,1-2.1,1.8s-.8,1.6-1.1,2.3l-1.5,1.7.3.4c.4,0,.8,0,.8-.5.5-.1.2.3.6.4.9.1,1.5-.5,2.1-.5s1.7.2,1.7,1.1-.3.1-.3.2c-.2.5-.2,1-.4,1.5s-.5.6-.5,1c.1.1,1.1-.5,1.3-.6s.9-.9,1-.9c.3,0,.6.2.9.2-.2-.9-.2-1.8-.2-2.7,0-1.3.5-3-.1-4.2l.7-.6h-.4c0-.6,0-1.1.5-1.2v.5c0,0,.5-1.1.5-1.1l-.5-.4.7-1.1ZM58.4,101.3c.3-1.1.9-2.2.9-3.4s-.5-3.4-1-4.3,0-.4-.3-.4v1.2c-.7,0-.6.4-.8.7s-.4.2-.4.3c-.1.4,0,2.7.1,3.3s.9,1.9,1.2,2.5,0,.3.4.2ZM74.5,98.4c.3-.8,1.1-1.4-.3-1.4l.3,1.4ZM64.8,101.7c.6-1.3.5-2.6.3-4-.6.4-.3,1.6-.3,2.3s-.2,1.1-.3,1.6h.3ZM60.1,107.2c0-.5-.5-.7-.7-.2-.2.7.5,1.5.1,2.1h.5s0-.4,0-.4h.5c0,0-1-1.2-1-1.2l.5-.3ZM62.2,111.4l-.2-2.4c-.3,0-.3.8-.6.9s-.7-.3-1.1-.2v.5c.1,0-.5.2-.5.2v.3c0,0,1,0,1,0v-.7s.9.2.9.2l.5,1.2ZM63.2,147.8c0,.3.3.6-.1.9h-.6c0-.6,0-.7-.5-.9,0,.5.2.7-.2,1,.5,0,1.2,0,1.2.7h-.3s.5.7.5.7h.3s-.3-1-.3-1l.5-.3c0,.5,0,1.2.5,1.4,0-.5,0-1,0-1.5s.2-.5.2-.7c0-2.3-.5-4.6-.6-6.9-.4.2-.6.6-.5,1l-.7-.2c0-.3.2-.4.3-.6.1-.5-.3-.2.3-.8s0-.3,0-.3c.4-.3.2.5.7.3l-.2-1c-.5-.2-.4.4-.8.4-.9,0-1-.8,0-1.1v-.3c-1.1-.1,0-1.3.3-.3l.3-.3.4.6-.4-4.4-.2.9h-.5c0-.4,0-.9.3-1.2s.4.6.4,0c0-1.5-.4-3.2-.6-4.5s-.3-3.5-.4-5.1c0-3.4.3-6.8,0-10.1-.4.3-.6.4-1,0-.2-.8.8-.3,1-.6.1-1.6-.2-2.2-1.2-.7s-.9.2-.8-.5c.4-.2,1.1-.5,1-1.1l-1.1.4-.6-.5c.5.9.2,1.9.3,2.8.3,3.2.8,6.6.9,9.8.2,4.6-.2,9.4.2,14s0,1.1,0,1.7c1.4.5.5.9.4,1.9s.2,1.8.2,2.7c.6.1.4-1.1.5-1.4l.3.7c.4.2.3-.4.4-.3.5,0,.4.6.5.7.1,0,.4,0,.5.2s.2.9.2,1c-.1.3-.5,0-.6.3s-.1.6-.4.7c-.5.3-.2-1-.5-1l-.8.2.2,1.4.2-.5c.8.2.6,1,.7,1.7,0,0,.4.2.5.2,0-.5-.2-.9-.2-1.4l1,.2c0,.6-.2,1.3-.9,1.2ZM77.5,118.3c-.5,0-.3.1-.4.4-.4,1-.9,1.9-1.2,2.9l.7-.7.8-2.6ZM72.9,133.1c.3-.3,0-1.3,0-1.6,0-.5.6-1.5.8-2.2s.2-1.5.4-2.2-.5.4-.7.1v.3s.3,0,.3,0l-.4.8-.2-.3c-.8.5,0,.5,0,.5.2.3-.4.5-.6.7s-.3.7-.6.9l.7-.3-.2,1-.5-.5c0,.5-.3.9-.3,1.3s-.1.5.2.4l.3-.7c0,.2,0,.5.1.7.1.3.5.1.4.5s-.8,0-.9,0l-.7,2.3h.5c0,0-.3,1.1-.3,1.1-1-.6-.5.9-1.1,1.5l.3.3.2-1.2c.5-.2.6.7.5.9s-.4.2-.5.3,0,.3-.1.5-.5.2-.7.6c-.4.8,0,1.4,0,1.5,0,.4-.9,1.3-.8,1.9-.6-.2,0-.9-.2-1.4l-.6.2c-.1-.3-.3-.4-.6-.3-.3.7-.3,1,0,1.7,0,.3-.5,0-.5.1,0,.1,0,.5-.4.6.2.3.5.1.7.2.6.3.3.9-.3.8s0-.5-.4-.4c-.4,1.8-1.1,3.6-1.1,5.4l1-.5v1.3s.6.1.6.1c.3,0,.1.8-.5.7s0-.3-.2-.3c-.3,0-.5.4-1-.4l-.7,3.4.2.3c1.9,0,.8.9-.3,1.2l.9.4v.5c0,0-.7.2-.7.2.3.7.3,1.5.5,2.2s.4.2.4.3c0,.2-.2.4-.2.7s.3,2.3.5,2l-.2-1.2,1.2-.4.4.4-.4.8-.4-.3-.4.8c.9.4-.3.9-.3,1s0,.7.3.6l.5-.7c-.3.9.8,1.9,0,2.6-.6-.2-.1-.5-.6-.7l.2,4,.7-.5.2,1.1c-.8.3-.7.6-1,1.4.4.4.4-.4.6-.4l.3,1.3-.5.2c-.1.6.3,1.5.6.6l.6.3c.3-.6.2-1.3.4-2,.3-1,.8-1.6.8-2.8s-.5-.7,0-1.3l.7.3c-.2-.5.3-1.2.3-1.5s-.5-.8,0-1.5l.7,1c.1-.6.2-1.2.4-1.8s1.1-1.1-.4-1c.1.5.2.9-.4,1-.4-.2-.3-.7-.1-1s.4-.1.5-.2,0-.3,0-.4c.4-.5.9-.4.6-1.4.5-.2.3.4.4.4.6,0,.2-.6.3-.9.1-1,.3-2.1.4-3.1s.3,0,.3-.2c.2-1.2-.4-2.5.2-3.6,0-.3-.3.1-.3.2-.5,0-.6-.2-.5-.7l.6-.3.2.4c.2-.1.2-.2.3-.4.3-2.1-.1-4.7.2-6.8h-.3c.1-2.1.5-4.2.5-6.4l-.3-.3c.7.1.8-1.7.7-1.9h-.3s.3-.2.3-.2l-.3-.2.2-1.6h-.9s-.1.8-.1.8l-.6,1.1c0-.7.5-1.3.5-2s-.2-.3-.2-.5c0-.8.4-.5.6-.6ZM95,138.8l-.2-.5c-.3-1.8.6-3.4.9-5.2s.2-.6-.1-.6c-.3,1.2-.6,2.6-1,3.8s-.2.7-.6.7l.3.3c-.4.7-.8,1.3-1.1,2-1.1,2.8-1.5,5.6-2.8,8.4s-1.8,4-2.9,5.8-.8,1.2-.8,1.2c-.2.1-.5,0-.7,0,0,3.2-.5,6.4-.9,9.5.5-.2.5-1.1.9-1.4,1-1.1,1.9-1.9,3.1-2.8s2.7-3,2.8-3.2c.7-1.2.7-2.6,1.1-3.9s2-5.6,2.2-7.1-.3-2.1.4-2c-.5-.5-.1-.5,0-.8,0-.6,0-1,.2-1.6s.4-1.2.3-1.5-.3-.1-.3-.2c-.2-.7.3-1.6.2-2.3l.3.7.2-1.7-.3.3-.2-.5c-.5.5-.2.9-.4,1.4s-.6.3-.3,1ZM69.3,138.5c-.1-.6.7-.4.8-.8.3-.8.5-2.3.5-3.2-.4.6-1.2,1.6-1,2.3s.4.3.3.7l-.7-.2-1,2.9c.6,0,.6.4,1,.7l.5-2-.5-.4ZM54.6,140.9l-.2-1.9-.6-1.2c-.3.8.1.7.2.8.2.6.2,1.2.4,1.8s0,.5.3.5ZM86.6,179.7c0,.2-.3.6-.2.7l.6.2c.2,0,.3-.9.8-.7,0,.8.2,1.1-.7,1.5l.5.8c-.3-.7,0-.4.2-.7.2-.5.5-1.3.7-1.7s.6-.2.5-.6h-.5c-.1-.1.4-1.6,0-1.9v.9c0,0-.6,0-.6,0l.2.5c-1.4.5-1.6-1.4-.3-1v-.6c-.1,0,0-.4,0-.4.3,0,.7.5.9.5.4,0,1.6-.9.5-1.2s-.4.7-.8.7c-.4-.8.1-1.3.6-1.9v.9c1.2-.8,1.6,0,1,1h.5c0,.1.5-1.1.5-1.1l-.5-.4.2-.8c-.7.3-1.1,0-1.7,0l-.2-.8.5.4,1.5-.2.3.7c.5,0,.3-.2.3-.5h.8s0-1.2,0-1.2l1-.7c-.5,0-.7-.6-.5-1l-.7.2c-.5-1,.2-1.3.5-.3l.3-.3,1.3.5c.2-.8-.8-.3-.7-1.2.9,0,1.6,0,1.7-1.1l-.3-.2c.2-.4,0-.7.7-.6,0-.3-.4,0-.6-.3s-.1-.5-.3-.7l1.4-.3.2.5.7-1.7h-.7s0-.6,0-.6c.2-.6,1,0,1-.1v-1.2c-.1,0,1-.5,1-.5v-.3c-1.3-.1,0-.5.1-.6s.2-.7.3-1c2.6-4.7,4.8-9.4,7.9-13.8s.7-.5.8-.8c.4-.7.5-1.9,1.3-2.4s.3,0,.5,0l-.3-.6c.2,0,.5-.6.6-.6.1,0,.3.1.6,0s1.3-1.6,1.3-1.8-.3-.4-.4,0,.2.5-.2.7v-.5c-.7,0-1.1.2-1.3.7l.8-.2c.4,1.1-1.2.1-1.1,1.4-.8,0,0-.7-.6-.7l-.4.5.3.5h-.5s-.2.9-.2.9l-1.1-.5c0,.2-.7.7-.7.7,0,.1.1.3,0,.5s-1,.9-1.2.9l-.2-.4c-.7.6-1.3,1.1-1.9,1.7-4.3,4.4-8,9.5-12.1,14s-1.2,1-1.8,1.5c-2.7,2.9-4.3,6.5-5.2,10.4s-.2,1.1-.2,1.2,1.6,1.2-.4.9l-.5,1.7c.8.5,1.8.7,1.1,1.8l.2.3c.6-.6.7-.2,1.3,0l-.3-.7c.7,0,.8,0,1.1-.5.3.2.2.4.3.7-.1,0-.4,0-.5,0v.9c-.8-.4-1,.3-1.7.5l-.4-.5-.9.5-.5-.4c-.5,0-.4.4-.6.7s-.3.1-.3.2c0,0,0,.3,0,.5,0,.3-.3.5-.3.8,0,.4.4.7.3,1.2s-.3.6-.3.8c0,.4.6,1,.1,1.8,0,.3,1.8.2,1.6,1l-.9-.3c-.4,1.7-2.8.3-1.4-.6-.7-.2,0-1-.7-1l-.7,2.1c.6,0,1.2.7,1,1.3-.9.5-2.3.3-2.2,1.7l.6-.3c.6.4.5.7.3,1.3.6-.3.9.5.9-.1.9.4-.4-1.2-.4-1.3l1-1.1c.6,0,.8.6,1.1.9l-.3.2.8.6.3-.7h.8s.2-.7.2-.7l-.8.3c-.5,0-.8-.9-.7-1.2s.3-.1.5-.2.1-.3.3-.4.5,0,.6,0-.1-.2,0-.3c.5-.9.8-.4,1.6-.5l1.1,1.2c.4-.6-.2-.9-.2-1.3s.5,0,.4-.4l-1.1.3-.2-.7c.6,0,.6-.7.9-1,.6-.7.9-1.2,1.6-.4-.1.5-.5.4-.6.5-.3.3-.1,1.1-.6,1,0,.3.4.2.5,0,.7-.4,1.3-1.9.7-2.5l-.2.5c-.2-.1-.5-.1-.6-.2-.3-.2,0-.6-.3-.5.2.9-.6.3-.8.5s0,.4-.2.6c-.3.3-1.2.9-1.4.2s0-.5,0-.6c-.3,0-.6,0-.8-.3l.3-.8-.3-.4c0,.8-.3.6-.4,1.2l-.9-.2c.1-.6.5-1.2,1.2-1,0-.3-.3-1,.3-1.4.3.6.4,1.2,1.1,1.4,0,.4-.4.5-.7.5.3.6.2.5.2,1,1.3,0,.8-.7,1.1-1.1s.5,0,.6,0,0-.6.8-.1-.2.5.8,0c-.6-.5-.4-1.2-.9-1.9.3,0,.7,0,1,0ZM52.1,143.3l-.2-2.6c-.3,0-.4.4-.5.6,0,.4-.1,3.2,0,3.6s.3.2.3.3c0,.8-.3,1.7-.2,2.5.4,0,.1-.7.3-.9.4-.6.6.8.4,1h-.5c.2,1.2.6,2.4.8,3.6.7,3.7,1.3,6.2,2.9,9.6,2.4,5.2,3.9,11,5.9,16.5s2.3,4.4,2.8,6.2.1,1.5.3,2.2.4,1.3.7,1.5v-1.3s-.9-3.6-.9-3.6c.2,0,.4.7.5.8.2.7.3,1.5.5,2.3s0,.5.3.3c-.2-1.3-.5-2.5-.7-3.8s-.8-1.7,0-1.4l.6,3c.6-.2,0-1.1,0-1.7s0-1.5,0-2.3l-2.1-14.1,1,2.9h-.3c.5,2.1.6,4.2.9,6.2s.3.6.3.9c.2,1.2,0,2.4.4,3.5.3,0,.2-.4.2-.6,0-2.4,0-3-.3-5.2s-.1-.7.2-.6c0,0,0,1.2.2.4-.1-.9-.3-1.9-.4-2.8-.5-6-1.2-12.5-4.3-17.7s-1.1-1.4-1.4-2c-1.6-2.7-2.9-5.5-3.9-8.5l-.5.3,2.8,7-2.9-6.6c0-.5.1-.7-.4-1,0,.2-.7,1-.9.9.2-.5-.2-1.1-.3-1.7s.1-.3-.3-.3l.2,2.3.5-.2v.5c-.9,0-.5-.7-1-1,.6,1.3-.2,4.8.2,5.8s.3,0,.3.2h-.3c0,0,0,.3,0,.3l.4.2v.4s-.3-.2-.3-.2c-.2.3.4,1.5-.2,1.7-.2-1.8.4-4-.5-5.6.3-.4.3-.8,0-1.3s-1-.4-.5-.9h.4ZM60.8,152l-4.9-9.5c1.2,3.4,2.7,6.7,4.9,9.5ZM12.1,146.4c-.4-.3-.1-.8-.2-1s-.4-.2-.5-.4.1-.8-.4-.9l.3,2.4.9-.2ZM15.1,150.4c-.8-1-1.2-2.5-2.2-3.4v1.2c0,0-.4,0-.4,0,.5,1,.5.3.9.3,1,0,.8,1.3-.2.9l-.5-.7c-1.2,1.6,0,.9,1.1,1.2l.2-.3c1.1.6,1.2,1.9-.3,1.4,0,.6,0,.7-.5,1l1,1c0-.5.5-.4.9-.5-1-1.6.6-2.1.5-.6s-.4.5-.4.9h.7c0,.6,0,.7-.5,1l.4.8.7-.2-.3-.7c.8-.3.6.2.9.5s1.5.8.6,1.1-.6-.7-.8-.5c0,.5-.6.3-.9.8l1.7,1c.3.4-.9,1.4-1.4.9v.9c0,0,.3-.4.3-.4h.4s0,.4,0,.4l1.6-.7.2,1h-.5c0,1.1,0,.8-.9.9s-.5,0-.2.3c.7,0,.8,0,1,.7l1-1.2h.3s.2.4.2.4l.8-.3c0,.5-.6.6-.7.9-.3.6.5,2-1.3.8-.3,1.7,2,.9,2.1,0s-.8-.2,0-.8c.7-.1.6.6.6,1l1-.9c.3.6-.2.9-.4,1.4h-1c0,.3.3.1.4.4s0,.8-.3,1-.7,0-.6.4c.2.6.4,0,.5,0,.4-.1.8,0,1-.5l.9.4c0,.5-.9.9-.9.9.3,1.1.8-.1,1.3,0,1.1.6.5,1.5-.6,1.3-.2.2.9,1.3,1,.9,0-1.4.7-.6,1.2-.4s.4,0,.5,0c.4.3.2.9-.3.6-.4.5.3.2.5.5s.3,1.6.5,1.7c.4.2.1-.5.5-.7s.6,0,.8,0l.2.8.8.2v.9c1-.3,1.6.8.4,1.1l1.8,1.5c.2-.6.7-.6,1.3-.7v.9c-.2.1-.8-.2-.7.3l1.6,1.5c.1-.6.6-.3,1.1-.3l-.7.7c0,.4.5.1.9.3.1-1.9.3-.7.7-.2s.9.3,1,.8-1.3,0-1.6,0l1,1v-.5c0,0,1,0,1,0,.2.2.2.2,0,.4-.3.5-1,0-.8.4.4.9.9-.1,1.6.3v.5s-.6.2-.6.2l.9.7c.8-.8.5.4,1.3.2.2.7-.6.4-.3,1s.9.6,1.1.7c.3.3.9,1.6,1.2,2,1.1,1.7,3.3,3.9,4.7,5.5,2.2,2.7,4.2,5.7,6.5,8.4s3,2.7,4.6,4.1h.3c-.5-.7-1.3-1.1-1.8-1.7s-.8-.9-.7-1.2c1,1.1,2.1,2.1,3.1,3.1s.1.5.2.5.8.3.9.5l-1.7-2.3c-1.5-1.2-2.6-2.9-3.8-4.4l-3.8-5.7c.2-.7.5.3.6.4.3.4,1,.7.8,1.4h.5c-.1.3.6,1.5.9,1.9s.6.4.5,0c-1-2.5-2.6-4.4-3.8-6.8s-3-7.2-4.2-10.5-.5-1.9-.8-2.7c-.5-1.2-2.3-2.8-3.4-3.8-4.8-4.5-10.6-7.6-15.9-11.1s-7.3-6.5-9.1-8.7ZM83.2,152.7v3.2s-.3.3-.3.3l-.5-6.4c-.3,0-.2.9-.2,1.1,0,1.2.2,3,0,4.2s0,.5-.3.6c-.2-2.6.3-5.7,0-8.2s0-.3-.3-.3l-.5,5.2-.3-.9v1c-.5-.3-.3.3-.7.3.4-1.3.8-2.7.9-4.1s.1-.7-.2-.6c0,.4-.2.9-.4,1.2-.6,1-1,2.1-1.5,2.8-3.4,5.4-6.6,11.1-8.4,17.3s-.8,4.2-1.1,6.3c-.9,4.7-2,9.4-2.6,14.1s.1,2.7-.4,4l.4.2c-.6.3,0,.5,0,.8,0,1.1-.4,2.1-.4,3.2.2.2.3-.2.3-.4.1-1.1.1-2.2.3-3.3s.2-.3.2-.5c.1-1,0-2,.4-2.9-.9-.3,0-.5,0-.5s-.1-.3-.1-.5c.5-2.9,1-5.7,1.5-8.6.7-.1,0,.8,0,1.2-.3,2-.5,4.1-.7,6.2l-.3.3c.1,0,.3,0,.4.1,0,.2-.2,2.7-.2,3.1s0,.6,0,1-.2,1.2,0,1.8l.4-.9.3.7c.4-2.5.8-5.3,1.5-7.8s.3-.3.2,0c0,.8-.4,1.6-.6,2.3s-.2.8-.3,1.2-.9,4.6-.6,4.6l.3-.9c.4,0,.4,0,.3.4,0,1.1-.9,3.2-1.1,4.4s-.5,2.4-.6,3.7l5.1-13.5h.4c0,0-1.9,4.5-1.9,4.5v.6c.3-.4.2-1.2.8-1.2,0,.8-.5,1.6-.8,2.4s-.2.6.2.2l2.5-4.5c1-1.8,2.2-3.9,3-5.7s1-3.1,1.2-2.8v.5c.7-1.8,1.7-3.9,2.1-5.7s.3-1.2.1-1.7l.3.2c0-.9.2-1.6.5-2.5s.5-1.5.7-2.6.5-1.6.6-2.3.1-.6-.2-.6l-.4,1.9c-.3,0-.2-.4-.2-.6,0-.9.6-2,.8-3s.2-2.5.6-3.6l-.3-.4.5.2c.3-3.2.4-6.3.2-9.5l-.3-.3ZM33.1,150.2c-.3-.6-.9-1-1.6-1,0,.8.9,1,1.6,1ZM42.1,154.8c-1.2-.7-2.4-1.4-3.5-2.1s-2.3-2.2-3.8-2.4l7,4.9.3-.3ZM34,151.7l-1.3-.7c.3.5,1.7,1.4,1.9,1.9s0,.3,0,.3l-1-1c-.2.2.3.7.4.9.4.7.4.4.6.7s.9,1,.7,1.2l-.5-.3c.2.3.3.8.5,1.2,1.5,2.6,3.2,5.3,4.7,8,3.4,6,6.4,12.5,8.6,18.6s1.1,2.3,1.8,3.8,0,.6.1.8.4.1.6.4-.1.7,0,1l.4-.7.6.8-.7.4.3,1.2.5-.6c.7-.3.4.5.5.7.2.4.4.8.6,1.2h-.9c0,0,1,1.9,1,1.9l.9-.2v.9c.1,0,.8.2.8.2l-.5.8v.6c0,0,.5.2.5.2l1-1,.4.3-.3-.8.4-.3c.3.5.3.6,1,.5.1.6-.2.5-.5.8l.4.7c1.3.2,1-.9.9-1.8-.5,0-.9,0-1.2-.4,1.5-.6.2-.9.2-1.1,0-.3.4-1,.7-1.2-.4-.2-.4-.2-.3-.6h.6c.2.8.8,1.1,1.7,1l-.3.5h-.6c0-.1.2.3.2.3h-.4c0,.4.4.4.6.6s.4,1.2.5,1.3.5,0,.6.3-.2,1.4-.8,1.4l.3.6c.3,0,0-.3.4-.4s.4,0,.6,0,.7-.6.5-.8c-.9.5-1.2-.6-.3-.5s.4.6.6,0c-.5-.1-1.2-.4-1-1l1.5.2-.2.8h.3c.3-.4,0-1.1,0-1.5s.8-.7.9-1.1c-.1-.1-.1-.2-.3-.2-.6.2-.1.1-.6,0s-.3-.3-.6-.2c0,.7.7.7.5,1.6h-.9c0,0,.2-1.3.2-1.3-1.6-.3-.3-.7-.2-.9s-.7-.7,0-1.2c-.4,0-.6,0-.6-.5l1-.3c-.3.9.9,1,.4,2l1.1.4.2-.4.4.3v-1s-.9.3-.9.3c-.8-.5-.3-1.1-.3-1.6s-.7-1.7-.4-2.5l-.6-.2-.4.4-.4-.3.2-.8.4.3c.2-.7-1.2-1.8-.3-2.4s.7.5.5-.3,0-.3-.2-.3l-1-.4v-.9s.7,0,.7,0c0,0-.5-1.7-.9-1.4.1.9-.4,1.1-1,.5s0-.8-.3-.9c-.4-.2,0,.7-.7.6s-.7-.6,0-.8.2-.1.4-.6.3-.1.3-.3c.2-.4,0-1,.7-.9l-.7-2.1c-.6-.1-.2.4-.5.8h-.7c0,.8-.3,1.2-1,1.1v-1.2c-.1,0,.3-.2.3-.2v.3c.4-.3.6-.8.4-1.2h.7s-.3-1-.3-1l-1.6.3c-.4-1.4.9-.7,1-1.1l-.3-.9c-.3.2,0,.6-.7.7l-.2-.8.5-.4c-.4-.7-.9,0-1.3-.6-.4.2-.1.5-.2.7-.2.8-.8.5-1.3,0l.7-.4-.3-.5v-.4c-.7,0-.2-1,.5-.7s.4.3.6.4c.1-.1-.9-1.3-1-1.6s.1-.5,0-.5c0,0-.3,0-.5-.1-.4-.4-1.1-2.1-1.6-2.7-1.6-2.3-4.3-5.1-6.2-7.3s-3.1-3.2-4.4-3.8-.3,0-.3,0c.1.3,1.4.8.6,1-.8-.7-1.9-1.8-2.8-2.4s-.5-.3-.6,0c1.5,1.3,3,2.7,4.3,4.2s1.3,1.5,1.6,2,.3.5,0,.6c-1.4-1.5-2.5-3.1-3.9-4.6s-2.7-2.6-2.9-2.7-.3,0-.3.3l3.1,3.5-.3.3c-.6-.9-1.3-1.9-2.1-2.7s-1.1-1.3-1.8-1.3c-.3.2,0,.4.2.5.7.8,1.4,1.6,2.1,2.4s.5.3.2.5c-1.6-1.6-2.8-3.6-4.5-5l-.3.5c0-.3-.4-.8-.6-1ZM64.1,151.6l-.9-.2c-.2.3.8,1.6.5,2.1.4,0,.3,0,.4-.3.2-.5,0-1.1,0-1.6ZM120.7,156.1c0,0,0-.2,0-.3l-1,1.1h.7c0,0-.3,1-.3,1l1.2-1.6c0-.2-.3,0-.5-.1ZM118.2,161c.6-.7,1.1-1.7,1.4-2.6-.6.7-1.2,1.7-1.4,2.6ZM118.2,159.4l-1.2,1.2-.2,1.1c.3-.5.8-1,1.1-1.6s.4-.3.3-.7ZM116.7,161.9l-.5-.2-1.1,1.7c.5,0,.7-.5.9-.8s.7,0,.6-.7ZM115.3,165.7l.5.3.7-1.3-.4.5c-.8-.3-.5,0-.8.2s-.4,0-.7.2-.7,1-.6,1.4c-.6,0-.9-.6-1.1-1-.7.6-1.1,1.6-1.7,2.2-4,4.1-8.4,7.9-12.5,11.7s-6.5,6.4-10.6,8.9-2.2.8-2.8,1.6c.4,0,1.1-.8,1,0-1.1.3-2.3,1.2-3.3,1.9l-1.2,1.6c.2.2,2-1.9,1.7-.5-.2-.1-.4,0-.6,0-.7.4-2.4,1.7-3,2.2s-.5.3-.2.5l8.6-4.8.2.2-9.5,5.2-2.6,2.7,3.1-1.7c1.4-.2,2.5-1.1,3.9-1.3l4.9-2.2h.4c0,.1-.5.5-.5.5.8-.2,2-.1,2.6-.4s.1-.3.3-.3c2.9-.8,3.6-.8,5.9-2.7s6.1-5.5,8.3-9,.7-.2.4-.8h.5c.1-.6.5-1.2.8-1.7,2.2-3.2,4.5-6.6,6.6-10s1.4-1.6,1.5-2.7c-.6-.2-.4.8-.6,1s-.6,0-.5.4c-.8-.6.5-1.4.9-1.7s-.5,0-.3-.6.6,0,.7-.1v-.3ZM17.7,169.9c-.3-.2-.6-.2-.8-.3-.9-.6-1.8-1.4-2.7-1.9s-.4-.4-.6-.1c2.2,2.3,5,3.8,7.5,5.7,0,.1-.2.1-.3,0-.4-.2-1.2-.9-1.7-1.1-1.7-.9-1.4-.8-2.7-1.8s-2-1.3-2.9-2.1c-.3.3.1.4.3.5.4.5.7,1,1.1,1.5l6.9,5.5h-.3c0,0-3.3-2.5-3.3-2.5l-.3.3,4.1,3.7c1.8,1.6,2.6,2.2,4.5,3.5s2.5,2,3.8,2.9c.3-.9.8.4,1.6.2l-.2.7c.3,0,0-.6.6-.3.9.4.3.9.3,1.2,0,.5.8.8,1,.4l-.3-1c1.1,0,.5.9,1.1,1.4,2-1.5.8.8,1.5,1.2s.8,0,1,0,.3.8-.2.8-.9-.4-1,0c.4.4,1,.3,1.2.4s.3,1,1,1.3l.4-.9c-.4.1-1-.9-.9-1l.9.2c0-.5,0-1,.6-.9.4.1,0,1,.6.9-.2-.4.5-.7.6-1.2.5.7,1.7.1,1.8,1.2-.4-.2-1.2.5-1.3.5-.1,0-1.2-.6-1.6-.3.7.7,2.7,2.1.1,1.2l-.8.5v.3c0,0,1.1.2,1.1.2l.2.9.3-1h1s0-.6,0-.6c.6,0,1.5.3,1.4,1l.5-.4c-.8-.3-.4-1-1.2-1.4l.3-.4c.8.6.9-.7.4-1.1s-.8-.2-1-.4,0-.5,0-.7c-.1-.4-1-1-1.2-1.4l-.6.7,1,.3v.7c-.5-.1-.6,0-1,.4l-.5-.2c0-1.6-.2-.9-.9-1.2s-.2-.4-.3-.4c-1.1.1-.3,0-.8-.2s-.6-.1-.8-.1l.3-.9c.6.3,1.8,1,2.4,1s.1-.6.3-.7l1,.3-.8-.9c-.2.6-.5.3-1,.4s-.3.2-.4.2c-.9,0-.7-1.2.3-.8,0,0-.6-.5,0-.7s.3.7.8.5c-.2-.7-.9-1-1.5-1.4l-.3.3h-.4s-.6-.6-.6-.6l.3-.6c-.3-.1-.4.3-.6.3s-.7-.5-1.1-.3l.7.9-1.2-.2.7-1.9c-.9-.2-2.6-1.9-3.2-2s-.9.7-1.4.4v-.7s.5,0,.5,0v-.5s-10.5-6.6-10.5-6.6c-.5,0-.1.2,0,.3,1.4,1.2,3.2,2.2,4.6,3.4,0,.1-.2.1-.3,0-1-.3-3.9-2.8-5.1-3.6s-1.4-.9-2-1.4ZM67.9,173.1l-1,.2c.2.8-.2,1.2.6,1.7l.4-1.9ZM82.6,177.7l-.5-.3c-.5-.2-.5,1.3,0,1.5.4.2.5-1,.4-1.2ZM61.1,180.8l-.6-1.4c-.4.3-.5.7-.4,1.2l1,.2ZM123.9,185.7c-.5-.3-1.7.4-2.2.3-.1.6.4.2.7.3l-.3,1,2.2-1c0,0-.3-.6-.3-.7ZM119.6,186.3c-.6.3-1.9,0-1.9.9h.9s0,.5,0,.5l-.6-.2-.5.7-.3-.5-.6,1.2c-.9,0-.6-.6-.7-.7s-.6.4-.8,0v-1c0,0-1.1.2-1.1.2l.2.7c-.3.3-1.9-1.2-1.4.5-.2.2-2.4-1.1-2.3.4l-.3-.2-.3.7h-.4c0,0,.2-.7.2-.7-.2,0-.4,0-.6,0-3.2.9-6.6,2.7-9.6,3.9-5.2,2.1-11,2.9-16.2,5s-1.8.8-2.4,1.3c.8-.2,1.5-.6,2.3-.8s.5-.3.5,0c-.4.3-1.1.2-1.4.4s-.1.3-.3.4c-3.5,1.5-6.2,2.4-9.2,4.8s-.8.7-1,1l7.5-4.5c.5,0,.1.2,0,.3-1.3.8-2.8,1.5-4.1,2.3l-2.5,1.9,2.2-.6c.4-.5,1.2-.7,1.8-.9s.6-.7,1.4-.3l-.3-.2c.5-.8.6,0,.6,0l3.4-1.4c1.4.1,2.8-.5,4.1-.7s.8-.2.8.2c-2.5.7-6.2,1.1-8.5,2.3s-.3.3,0,.3c1.5-.6,3-1.1,4.5-1.5s.6-.2.6.1c-3.8,1.3-7.9,2.1-11.4,4.1l-.7.7,8.4-3.1.6.2-5.4,1.7.3.3c.2-.2.4-.4.7-.5,2.3-.7,5.1-1.6,7.3-2.1s2.8-.3,4.2-.7c0,.5-.1.3-.4.4-2.2.7-4.7.9-6.9,1.6s-1.7.7-2.6.8l.7.2-.6.2v.3s4.2-.9,4.2-.9l-.3-.3h1.2s-.2-.3-.2-.3c1.9,0,3.3-.8,5-1.4v-.5s.5.5.5.5c2.5-.4,5-2.1,7.5-2.6s.6,0,.3.2l-8.4,3.2-4.3,1.1c0,.3.4.2.6.2.6,0,1.9-.3,2.4-.4s1.2-.6,1.8-.7c5.2-1.4,10.3-2.2,15.3-4.5s.7-.6,1.2-.6l-.5-.3c-.3-.6.2-.6.7-.6v.7c1.1-.2,1.7-1,2.5-1.5,2.3-1.4,4.4-2.7,6.7-4.1s.5,0,.6-.2c.5-.3.7-1,1-1.5l.3.5.5-.2c-.4-.7.3-1.3.6-.5.8-.8,1.7-1.2,2.6-1.8s.2-.3.3-.4c.4-.3,2.1-1.1,2.1-1.5l-.2-.7.4-.2c-.1-.6-1.1.3-1.2.4,0,.2.2.6.1.8s-.8.3-.9,0l.3-.6c-.1.4-.9.5-1,.5,0,0,.3.5,0,.6h-.5c-.3-.5.2-.6.3-.9s-.2-.5-.1-.6c.1-.5,1,0,.8-.6ZM44,189.9c0-.1-.1-.6-.2-.8-.3,0-.1.2-.2.3-.2.1-.5,0-.7,0l1,1.4c.5,0,0-.8.6-.7,0-.4-.5-.2-.5-.2ZM81.8,190.1c0,0,0-.3-.1-.3l-1.5.9.7.3-.2-.3c.7,0,1.2-.5,1.5.3l.4-.9c-.3,0-.6,0-.8,0ZM17.6,191c0,0,0,.2,0,.2.8.2,1.6.7,2.4,1s.6.2.3.4c-4.2-1.3-8.5-2.1-12.9-2.1l.2.3c4.6,0,9,1.5,13.4,2.8.4.4,0,.3-.2.2s-1.8-.7-1.9-.6l.3.4c0,.1-.2.1-.3,0-1.4-.2-3.1-.9-4.6-1.2s-1.8-.3-2.6-.5-.6-.2-.5,0c1.5.6,3.1,1.1,4.6,1.7s3.6,1.9,5.4,2.9.5.1.1.4c-.6-.1-1.2-.7-1.7-.9-.8-.4-2.4-.7-3.2-1.2s-.2-1-1.1-.9c-1.3,0-3.2-1.1-4.6-1.7s-1-.5-.8,0c1.9,1,3.8,2.1,5.7,3s5.4,2.5,8,3.9.2.4.4.5.7-.2,1.1,0v.7c.4-.3.6-.4,1.1-.2v.5c0,0,.8.5.8.5v-.3c.5,0,.8,0,.8.5l-.3.2,1.7.9c.4-.3.5-.6,1.2-.2l.4-.3v.8s-.5.4-.5.4c.5,0,1.6-1,1.9-.7v1c0,0-.3.2-.3.2-.2,0-.7-.5-.6.2.6-.1,1.3.7,1.6.7s.1-.7.7-.5,0,.8,0,.9.7.3.8.3.6,0,.3-.1l-.2-.3c.4-1.3.6-.3.6-.3l.6-.3c0-.3-.2-.1-.2-.2-.4-.6.2-.8.8-.5.9.5.4,1.1-.3.5l-.6,1c.7.2.9,1,1.7.9l-.5-.4v-.7s.8,0,.8,0v.4c.2.6.5-.6,1-.5l.4.6-.4.8,2.2.3c.7,0-.3-.5-.4-.3l.2-.7c-.6-.2-.3.6-.6.7s-1-.8,0-.9l-.3-.6.4-.3,1.6,1.4c0,0,.9-.8.9-.9.1-.3-.2-.6,0-.7s.3,0,.4,0c.2-.1,0-.5.5-.3l.4,1h-.7c.5.8-.4,1.1-.5,1.7h1.4c-.6-.8-.4-2.4.9-1.7.1-.3-.3-.5-.3-.6s.7-1.1.7-1.1c.8-.2,0,.7,0,.8,0,.3.2.7.5.9l-.2.4c.7.2,2.7-.9,1.7.7.1.1,1.1-.4,1.2-.5.2-.2-.5,0-.3-.6,1.1-.7.5.1.6.4l.8.3c0-.8.6-.8,1-.3l.6-1.2c1,0,.7.8,0,1.2l1,.2c.3-.4-.2-1.6.3-1.7l1.1.6c-.2.4-.2.5-.7.4,0,.6,0,.5.4.7l.4-.5.6.2c.1-.5-.3-.3-.4-.5s0-.5.2-.5,1.2.5,1.3.6c0,0,0,.4.2.5s1.2.2,1.3.2v-.3c.6-.8.3-.3.9-.3s.4,0,.7-.1l-2.6-1.6c-.2.9,1,.6,1,1.5l-.8.2-.5-.7c.9-.3,0-.8-.3,0l-.8-.8.7-.6-1.1-.3c-.2,0-.5.6-.8.7s-.4-.2-.8-.1-.1,1-1,.7c-.9-1.1.4-.6.4-.7s0-.4,0-.5c.2-.2,1,0,1-.7-.5-.2-1-.6-1.6-.8s-.4,0-.6,0,0-.3-.2-.3-.4.2-.7,0-.9-1.4-1.7-.8v.9c-.8-.2-1.7,0-1.6-1l.6.2v-.3c0,0-.5-.2-.5-.2v-.4c0,0-.3-.3-.3-.3-.5,0,0,.9-.2,1-.3.3-1.1.3-1.1-.2,0-.9.9-1.4-.9-1.5.2.6.8,1.1.2,1.7h.5s0,.5,0,.5h-.9c.3-1.3-1.3-1.5-.7-2.8-.9-.4-1,.1-1.7.3l-.4-.3v-.7c0,0-1.2,0-1.2,0,0-.7-.5-.5-.9-.9v.5c-1.3.3-.4-1-1.6-1v.5c-.8.2-1-1-1.5-1.1s-.8.2-1.3,0-.3-.5-.6-.6c-.9-.5-5.7-1.7-6.9-1.9s-.5-.1-.4.2l1,.3c.3.2-.2.2-.3.1-.9-.3-1.9-.8-2.8-1.2-3.4-.9-6.8-1.9-10.4-1.7s-.9.2-1.3.2l1.3.5c1.4-.2,2.6.1,3.9.4,0-.1,0-.4,0-.3l3.7,1c-1.3-.2-2.5-.5-3.8-.7ZM77.7,190.7c0-.1-.6-.4-.7-.4-.7.5-1.1,1.3-1.6,2-.1.3.3.2.3.4,0,.3-.3.9,0,1.1.8-.6-.3-1.8.8-2.5h1c.2.4-.5.2-.3.5s.3.3.5.3c0-.5.3-.9,0-1.3ZM46.4,192.7l-1.3-1.7-1.3,1.5.4.6.8-1.5h.4c.2.4.5.9,1,1.1ZM42.1,191.5l-.7-.2-.2.7-1-.3c.3.2.9,1.1,1.2,1.2s.9-.3,1.4.4c.1-.2,0-.7,0-.8.1-.4,1.2-.5-.2-1.3v.9c-.4.8-1.7.4-.9-.5s.4,0,.3-.3ZM79.5,192.2c-.8-.1-.1,1-.2,1.3s-.8.6-.5,1.2l1.2-1.2v-.2s-.6-.4-.6-.4v-.7ZM46.7,194.5c0,0,.3-.6.5-.8l-.4-.6c-.1.8-1.1,1.4-1.3.3l-.5.4c0,.2.7.5.9.6s.7.1.8,0ZM77.6,196.2l.6-.7-.6-.4-1,1.9,1-.8ZM49.3,196.1c-.4-.4-.9-.4-1.2.1.5,0,.7.5,1,.9l.8-.2c0-.3-.3-.2-.4-.4s0-.4-.2-.4ZM51.3,199.3c-.3-.7,0-1.4-.9-1.7-.3.7,0,1.6.9,1.7ZM63.6,198.1c-.7.1-1.1.3-1.2-.5l-.2.4h-.3c.1,1,.7.6,1.5,1,.5,0,.2-.6.3-.9ZM76.9,205.8c-.8-.1-1.5.5-2.1.8s-.4-.2-.7.3l-2.3.9c.7,0,4.6-.9,4.9-1.2s-.4-.3-.3-.5l.5-.2ZM87.2,206.3c-.2-.1-1.3.5-1.7.2,0,.3.5.2.5.4,0,.4-.4.5-.8.3s-.5-1.1-1.4-.3c.3.1.4.2.3.6h.5c0-.1.3.5.3.5-.5.3-.7-.2-1-.2s0,.3-.2.3c-.4.1-.9.1-1.3.2.4.5.8,1-.2.7-.2.8.7.9.9,1.6l-1.2.5c.6.4.5-.2.6-.2.3,0,1.1,0,.9.5-.8-.3-1.1.7-1.7.3l-.2,1h.9c-.3-.8.4-1.2,1.1-.9s1.1.5,2,.6,1.7-.4,1,.4l-.4-.2.3.4-.6.4.2.3c.3-.3.8-.2,1.1-.3.5-.2.4-.6,1.4,0-.2.4-.4.6-.2,1h-.5c.4.5-.3.1-.2.7h1c-.2-.5-.1-.8.3-1l-.3-.4,1.7.3-.5.4c1,.8,1.7,0,2.7,0s1.9.5,2.7,0l-.5-.3c.3-.4.7-.7,1-.2l-.3.6c1,.3,2,.2,2.9-.3l.2.7c0,.2.2.2.4.2s.2,0,.3,0c.2,0-.2-.1.7-.2s.4-.2.6-.2l-.2-.5c.7,0,1,.5,1.7.2-.5.8,1.1,0,1.4.2-.5-.7.9-1.2.7-.2l.4-.5c1.6.8,1.2-.3-.2-.5v-1.6c0,0-1.1,0-1.1,0v-.5s-.7.3-.7.3l.2-1.4-.6.5-.4-.2.3-.7c-.5-.4-1,.8-1.2.5-.4-.4.7-.8.5-.9-1.6-.6-3.2-1.5-4.9-2s-5.3-1.4-7-1.6-1.5,0-2.2,0v1c0,0-.5-.4-.5-.4-.2-.3.7-.3.3-.6ZM82.9,207.3c0-.1,0-.2,0-.3l-.2-.2-1.3.2.3,1.2c.2,0,.3-.3.5-.4s1.1-.1.7-.5c0,0-.1,0-.2,0ZM82,208.5l-.6.2c-.6-.3.4-.7-.2-.9s-.3.4-.5.5h-.5s0,.4,0,.4l.8.3-.7.3c0,.7.5,1.5,1,.8-.8-.7.5-.8.5-1.5ZM107.3,213.7c0,0,0-.4-.2-.3v.7s-1-.2-1-.2c0,.3,0,.5.4.5s2.2-.4,2.6-.6.4,0,.4-.3c-.5-.2-1.9.4-2.2.1ZM95,215.6c-.3-.5-1.4-.2-1.9-.3,0,.8,1.4.4,1.9.3Z"/>
      <path d="M85.8,178.4c.4,0,1,.7,1.6.7-.1.4-.3.6-.7.7,0-.6-.7-.5-.8-.7s0-.5,0-.7Z"/>
      <path d="M49.4,38.5c.1,0-.4,1.2-.9.9l-.7-1.1c.5-.7.8.5,1.6.3Z"/>
      <path d="M69.8,54.2c-.4.8.3.6.2,1.3s-1-.3-.9-1l.7-.3Z"/>
      <path d="M62.5,188.8l-.6.2c-.3-.9-1.7,0-1.1-1.4.7.2,1.7.3,1.7,1.2Z"/>
      <path d="M61.1,184.1c.3.4,0,.8,0,.9,0,.2.3.3.3.5,0,.6-.7.5-.8,0l.3-.6c-.7,0-.4-.6-.5-1l.8.2Z"/>
      <path d="M60.6,182.2c0,0,.2.3.2.4,0,.8-1.3,0-1.7-.2l.5-.6c.2.2.9.2,1.1.4Z"/>
      <path d="M58.6,179.2c-.1-.2,0-1.2.2-1.2,1.2.6.2,2-.2,1.2Z"/>
      <path d="M59.9,190.5c.4-.3,1.4.8.4,1s-.6-.9-.4-1Z"/>
      <path d="M44,157.8c.2.2.6.4.8.7l.7,1c-.1.1-2.1-1.9-2.3-2.3.5,0,.5.4.8.6Z"/>
      <path d="M70.2,190h.3c-.1-.4.3-.5.2,0-.2.9-.8,1.9-.9,2.9-.5-.4.1-1.1.2-1.5s0-1.2,0-1.6l.2.3Z"/>
      <path d="M83.2,162c-.4-.3-.4-1.5-.4-2s0-1.3.4-1.5v3.5Z"/>
      <polygon points="72.1 170.4 72 169.8 73.3 167.2 72.1 170.4"/>
      <path d="M69,181.1c-.3,0-.2-.6-.1-.8,0-.8.3-1.6.6-2.4.5.9-.6,2.1-.4,3.1Z"/>
      <path d="M18.3,156.1l.4.7.4-.4.7.3c.1.6-.4.3-.5.3-.3.3,0,.3.3.3.4,0,.3.2.2.7l-.8.2c-.2-.5,0-.6,0-1h-1.1s-.2-.8-.2-.8l.5-.3Z"/>
      <path d="M27.5,168.1c-1.1.4-1.1-.7-1.2-.9s-.8.4-.7-.4h1.4c0,0,.5,1.2.5,1.2Z"/>
      <path d="M30.6,170.9c0,.3.6.7.2,1-1.7.2-1.9-.4-.2-1Z"/>
      <path d="M51.9,195.6l1.9,2.7c-1-.7-1.5-1.9-2.4-2.7h.5Z"/>
      <path d="M25.4,164.8c-.1.3-1.4,1.1-1.6.9l.2-.8h1.4Z"/>
      <path d="M23.6,163.3c.6,1.4-.8,1.2-.8,0,0-.2.7-.3.8,0Z"/>
      <path d="M34.2,173.3c0,.1.3.2.4.2.3.4-.4.8-.7.2s-.4-1.2,0-.9c.2.1.2.3.3.5Z"/>
      <path d="M49,192.1c-.7-.7-1.5-1.6-1.7-2.6l1.7,2.6Z"/>
      <path d="M113,190.4c0,.3,1,.5.7.8s-1-.2-1.4,0v-.7c0,0,.7-.1.7-.1Z"/>
      <path d="M114.1,192.6c0,.1-1.9,1.7-1.4.2.6-.1.5-.6,1.4-.2Z"/>
      <path d="M50.7,201.3c0,.1,0,.3,0,.5.9-.9,1.7.3.6.3s-.6-.2-1.1.2c0-.3-.4-.5-.4-.7-.2-.7.7-.6.9-.3Z"/>
      <path d="M46.7,202.4s-.4.3-.4.4c-1.1-.2-.4-1,.1-1.5l-.3-.2.7-.4c-.2.5.1,1.3,0,1.7Z"/>
      <path d="M50.1,203.6c0,0-.1.4-.3.5l-.8-.2.8-1c.2,0,.7,0,.7.3.2.6-.4.5-.5.5Z"/>
      <path d="M60.1,154.1c-.7-.8-1.5-2.2-1.7-3.3l1.3,2.1.5,1.2Z"/>
      <path d="M84,175.2c0,.3,0,.5,0,.8,0,.5-1,1.1-1.5.5s1.2-.5.9-1.3h.5Z"/>
      <path d="M85.3,173.5c0,.4,1.2,1.1.4,1.4s-.3-1-1.1-.7c0-.2.4-.9.7-.7Z"/>
      <path d="M91.9,172.1l-.2.8c-.9.6-1.4-1.2.2-.8Z"/>
      <path d="M87.2,177.3c-.3.4-1.4.2-1.2-.3.3-.9,1.5-.1,1.2.3Z"/>
      <path d="M86.5,193.8l-1.3.8c-1,.6-2.2.8-3.2,1.3s-.1.3-.3.3c-.9.4-1.9.8-2.8,1.1l3.3-1.7,4.4-1.8Z"/>
      <path d="M88,190.3l-.7.6c-.4,0-2.5,1.2-2.6,1.1-.3-.3.2-.4.3-.4.9-.5,1.2-.6,2-.8s.6-.5,1-.5Z"/>
      <polygon points="91.9 187 89.8 188.4 89.1 188.6 91.1 187.3 91.9 187"/>
      <path d="M70.5,154.9c-1,.8-.4,1.2-.6,2.3l-.9.5c-.7-.8.9-1.3-.6-2,.6-.5,1.2-1.1,2.1-.8Z"/>
      <path d="M68.8,161.2c.8,0,1,.9.2.8s-.4-.4-.7-.2l.3.7-.8.3v-1.7s.7.2.7.2l.3-.9v.9Z"/>
      <path d="M70,152.7c.1.8-.9.5-.3,1.5-.6.2-1.3.9-1.8.2,0-.7.4-1.1,1-.7l.4-1.2.7.2Z"/>
      <path d="M67,157.7l.2.7c.3,0,.5-.3.8-.4.6-.3.5.3,0,.5,0,.6,1.2,1.2-1,1.1l.2-1-.5.2v-.6c-.1,0,.5-.5.5-.5Z"/>
      <path d="M69.1,165.7v.5c-.1,0-.7,0-.7,0v.9s-.9-.2-.9-.2l-.2.4c-.4.3-.9-.5,0-1s1,0,1.2-.7h.5Z"/>
      <path d="M69.1,145.7s-.2,0-.3.2.1.5,0,.7c-.6.2-1.6-.2-1-.9s1.4-1.3,1.4-.2c0,.1,0,.2,0,.2Z"/>
      <path d="M70.7,158.5c.2.1.5,0,.7.1.2.3,0,.8-.3.9s-.2-.6-.5-.7c-1.1,1.2-1.2-.2-.3-.9.3,0,.3.4.5.5Z"/>
      <path d="M71.9,154.1l-.3,1.2.7-.2.2.7c-.8-.3-1.5.4-1.6-.6l.3-.2v-.6c0,0,.7-.4.7-.4Z"/>
      <path d="M68.1,164.5l-.2-.7,1.1-.7.5.4c0,1-.7,1-1.5,1Z"/>
      <path d="M71.3,142.9c.2.2.3.3.4.5l-.7.3v.7c-.7-.2-1.1-1.1-.2-.9l.3-.9c.1,0,0,.2.2.3Z"/>
      <path d="M66.5,152.2c-.2.3.8,1.3.3,1.4-1.1.3-1.4-1.5-.3-1.4Z"/>
      <path d="M72.2,147.3l.3.2c0,2.1-2.2.6-.3-.2Z"/>
      <path d="M67.6,151.5l-.2.4c.6.1.3.9-.1.8-.6-.4-.7-.7-.8-1.4l1,.2Z"/>
      <path d="M71.4,150.7c.1-.1,0-.5,0-.7.9-.1.4,1.5,0,1.6-1.7-.7-.2-.7,0-.9Z"/>
      <polygon points="71.9 152.3 72 153 70.7 153.5 70.7 152.7 71.9 152.3"/>
      <polygon points="67.7 156.7 67.2 156.7 66.9 155.3 67.8 155.4 67.7 156.7"/>
      <path d="M67.7,147.5s-.7.4-.8.7l-.4-.3.3-1c.3-.1,1,.4.9.7Z"/>
      <path d="M70.8,160.5v.7s-1.2.2-1.2.2l.2-.8c.3-.3.7-.1,1,0Z"/>
      <path d="M66.2,156.8c.1.2.5,0,.1.8h-.3c-.3-.5-.9-.8,0-1.3.1,0,0,.3.1.5Z"/>
      <path d="M71.3,140.3c.1.2.4,0,.1.9l-.5-.3-.2.5.3-1.7c.3,0,0,.4.2.6Z"/>
      <path d="M70.4,142.7c-.1.2,0,.5-.2.5l-.2-1.4c.3,0,.8,0,.9.3.2.5-.4.5-.5.7Z"/>
      <path d="M95.6,213.5c-.1.1-.4,0-.6.2s-.2.4-.3.5-1-.3-1.1-.6c.4-.5.7-.4,1.2,0v-.7c.2-.4.9,0,1.2-.2s.3-1.3.8-1.2.4.5.2.7c-.5.3-1,1-1.4,1.3Z"/>
      <path d="M103.6,213.4c0,0-.4-.1-.3.2l.7.3c-1.1-.3-.5,1-1.6.9.4-1,.2-1.6.2-2.6.4-.4,1.1,1.1,1,1.2Z"/>
      <path d="M84,209.4v.5s.7-.2.7-.2v.6s-.3.3-.3.3c0,0,1.2.4.9.7l-1.6-.3c.6-.9-1.6-1.4.3-1.6Z"/>
      <path d="M98.3,213.4l-.5.3c0,.2.7.4.3.7s-.5,0-.7,0l.2-.7-.7.2v.7c-1.8-.2.6-1.5,1.4-1.2Z"/>
      <path d="M100.7,214.1c-.6.3-1.1.8-1.9.5,0-.4,0-.3.3-.5.4-.2,1.4-.7,1.6,0Z"/>
      <path d="M91,212.5s0,.3.1.3,1.6.5,1.3.9-1.2-.7-1.7-.6c-.4-.2,0-.8.3-.6Z"/>
      <path d="M36.3,183.2l.5.9c-.8,0-.9,1.1-1.6,0,.7,0,.4-1,1-.9Z"/>
      <path d="M60.8,113.5c0,.3.3.7.3,1,.1.9-.8.5-.8,0s.2-1.3.5-.9Z"/>
      <path d="M62.5,27.9c0,0-.5.2-.3.8-.8,0-.1-1.1,0-1.4.3-.7.7-1.7,1-2.5.4-1.4.7-3.3,1-4.7s-.2-1.4.3-1.7c0,3.4-.4,6.6-2,9.6Z"/>
      <path d="M66.7,71.7l.2-.8c2.2-.6,1.4.8-.2.8Z"/>
      <path d="M58.3,54.4c.2.4.3.7.2,1.2h-.7s0-.9,0-.9c-1.3.3-.9-1.5-.2-1s.6.6.6.7Z"/>
      <polygon points="59.2 57.8 59.2 59.2 58.4 59.4 58.6 58 59.2 57.8"/>
      <path d="M56.1,42.9v.7c-1,1-1.2-.7,0-.7Z"/>
      <path d="M48,60.2c-.9,1.4-3,.9-4.2.2s-.8-.7-.7-.8c1.6.9,3,1.4,4.9.7Z"/>
      <path d="M55.4,18.1c.5.3,0,1.5-.9.9l.3-.8c0-.2.5-.1.5,0Z"/>
      <path d="M82,182.9l.2,1.4c.8-.2,1.7-.3,1.6.9l-1-.3v.5s-1.1-.3-1.1-.3v-2.1c0,0,.5,0,.5,0Z"/>
      <path d="M83.7,180.1c.7.4,1.6-.6,1.7.3,0,.5-1,1-1.5.9-.4-.1-.3-.9-.3-1.2Z"/>
    </g>
  </g>
</svg>