<?xml version="1.0" encoding="UTF-8"?>
<svg id="Layer_1" xmlns="http://www.w3.org/2000/svg" version="1.1" viewBox="0 0 25 25">
  <!-- Generator: Adobe Illustrator 29.2.1, SVG Export Plug-In . SVG Version: 2.1.0 Build 116)  -->
  <path d="M9.1,23.2s.4.4.6.5c.2.1.4.2.6.3.2.1.5.2.7.4,0,0,0,0,.1,0,0,0,0,0,0,.1,0,0-.2,0-.3,0-.2,0-.6,0-.8-.1-.3-.1-.5-.1-.8-.2-.2,0-.5,0-.6,0,0,0-.5,0-.7,0-.4,0-1.5-.2-1.7-.2,0,0-.1,0-.2,0-.2,0-.3,0-.5,0,0,0-.4,0-.5,0,0,0,0-.1,0-.2,0,0,0,0,.1,0,.2-.1.5-.2.7-.3.3,0,.5-.1.8-.2.3,0,.5,0,.8,0,.1,0,.8,0,1.1,0,0,0,.2,0,.4,0,0,0,.2,0,.2,0ZM9.8,24.1s-.2-.1-.2-.1c0,0-.2,0-.2-.1,0,0-.1,0-.2,0-.2,0-.1,0-.5,0s-.4,0-.6,0c0,0-1.4,0-1.4,0s1,0,1.8.2,1.1.2,1.2.2Z"/>
  <path d="M14.5,25s0,0-.1,0c0,0,0-.2,0-.2,0-.1,0-.2.1-.3.2-.2.7-.6.8-.8.1-.3,1.4-.9,1.5-1,.2,0,.4-.2.6-.2.2,0,.4-.1.6-.2,0,0,.2-.1.3-.1,0,0,.1,0,.1,0,0,0-.3.3-.3.4,0,.1-.5.7-.7.9-.2.3-.5.5-.9.7-.3.2-.6.3-.9.5-.1,0-.6.2-.7.2,0,0-.5,0-.6.1ZM17.4,23s0,0,0,0c0,0-.1,0-.2.1-.2,0-.4.2-.6.4-.1,0-.3.2-.4.3-.2.1-.4.2-.5.4,0,0-.2.2-.3.2s0,0-.2.1c0,0,0,0,0,0,.1,0,.3-.1.4-.2.1,0,.2-.1.4-.2,0,0,.2-.1.3-.1.1,0,.3-.1.4-.2.2-.2.4-.4.6-.6Z"/>
  <path d="M15.8,13.5c0,.2-.2.3-.2.5,0,.2-.2.3-.2.5-.1.3-.3.7-.4,1.1,0,.3-.2.5-.3.8,0,.2-.1.4-.2.6,0,.2,0,.5-.1.7,0,.2-.2.7-.2.8,0,.3-.2.6-.2.9,0,.3-.1.6,0,.9,0,.4,0,.7,0,1.1,0,.4,0,.8,0,1.2,0,.1,0,.2,0,.4,0,0,0,.6,0,.7,0,.2,0,.3,0,.5,0,0,0,.2,0,.3,0,0,0,0,0,0,0,0,0,0,0,0,0,0,0,0,0-.1,0,0,0-.1-.1-.2,0,0,0-.2-.1-.3,0,0-.1-.5-.2-.6,0-.1,0-.3,0-.4,0-.2-.2-1.2-.2-1.4,0-.1,0-.2,0-.4,0-.2,0-.4,0-.6,0-.1,0-.4,0-.4,0-.1,0-.4.1-.5,0-.2.5-1.6.6-2,0-.3.1-.6.2-.8.1-.4.3-.8.4-1.1,0-.3.2-.6.3-.9.1-.4.4-.8.6-1.2.2-.3.3-.7.5-1,.1-.2.2-.5.3-.7.1-.2.2-.4.3-.7,0-.2.1-.4.2-.6,0-.1.2,0,.2.2,0,.2,0,.3,0,.5,0,0,0,0,0,.1,0,.2,0,.4,0,.6,0,.2,0,.5,0,.7,0,.4,0,.7-.2,1.1-.1.3-.2.7-.2,1,0,.2,0,.5-.1.7,0,.2-.1.5-.2.7,0,.2-.3,1.2-.3,1.4,0,.2-.1.6-.1.6,0,.1-.1.9-.1,1.1,0,.2,0,.4,0,.6,0,.3,0,.6-.1.9,0,.3-.1.5-.2.8,0,.2-.1.4-.2.6,0,.2-.3.9-.3,1.1,0,0-.2.7-.3,1,0,0,0,0,0,.1,0,0,0,0,0,0,0,0,0,0,0,0,0,0,0,0,0-.1,0-.2,0-.5.1-.7,0-.2,0-.3,0-.5,0-.2,0-.3,0-.5,0-.5.1-.9.2-1.4,0-.3.1-.6.2-1,0-.2,0-.4,0-.6,0-.1.3-1.6.3-1.8,0-.3.2-.6.2-.9,0-.3.3-1,.3-1.2,0,0,0-.2,0-.2,0-.1.2-.6.2-.7,0-.2.2-.4.2-.6,0-.1,0-.3.1-.5,0,0,0,0,0,0Z"/>
  <path d="M13,24.6s-.1-.1-.2-.1c0-.1-.1-.2-.2-.3-.1-.2-.4-.4-.5-.6-.2-.3-.3-.5-.5-.8-.2-.3-.3-.5-.3-.8,0-.1,0-.3-.1-.4,0,0,0-.1,0-.2,0-.4-.1-.5-.1-.9,0-.4,0-2.1,0-2.5,0-.2,0-.8,0-.8,0-.2-.3-1.4-.3-1.7,0-.1,0-.5-.3-.6,0,0,0,.3,0,.3,0,.5-.3,1-.5,1.5-.1.3-.3.6-.4,1,0,.4,0,1.1,0,1.4,0,.3,0,.5,0,.6,0,.2,0,.4.1.7,0,.3.2.5.2.8,0,.3.3.6.4.9.2.3.4.5.5.8.1.2.2.3.3.5.1.1.2.3.3.4.2.2.3.4.5.5.1,0,.3.2.4.2.2,0,.3.2.5.2,0,0,.2,0,.2,0,0,0,.1,0,.2,0,0,0,0,0,0-.1ZM10.5,16.4s0,0,0,0c0,.2-.2,2.2-.2,2.5,0,0,0,.1,0,.3,0,.1,0,.3,0,.3,0,0,0,0,0,.1,0,0,0,.2,0,.3,0,.1,0,.6,0,.7h0c0,.3,0,.6,0,.8,0,.1.2.6.3.9,0-.1-.1-.2-.2-.3-.1-.2-.2-.5-.3-.8,0-.2-.2-.9-.2-1,0,0,0-.2,0-.2,0-.2,0-.5,0-.8,0-.2.2-1.6.3-1.7,0-.2.1-.4.2-.5,0-.2.1-.4.2-.6,0,0,0,0,0,0Z"/>
  <path d="M11.5,24.3s-.2-.1-.2-.1c-.2-.2,0,0-.3-.3-.1-.2-.3-.3-.4-.5,0-.1-.2-.3-.3-.4,0-.1-.4-.7-.6-.9,0,0-.3-.7-.5-.9,0,0-.3-1.1-.3-1.2,0,0,0-.8,0-.8,0,0,0-.2,0-.3,0,0-.1-.3-.2-.3-.2-.3-.4-.5-.7-.7,0,0-.2-.2-.3-.3-.1,0-.2-.2-.3-.3-.3-.2-.6-.3-.9-.4,0,0-.2,0-.1,0,0,0,0,.2,0,.2,0,.2.2.3.4.5.2.2.4.4.5.6,0,0,0,.1.1.2,0,.1,0,.2.1.3.1.2.2.4.2.7,0,.2,0,.5,0,.7,0,.3.1.6.3.9,0,.2.2.4.3.6,0,.2.2.4.3.5,0,.1.4.5.5.5.1,0,.2.2.3.3.2.2.3.4.6.5.2,0,.3.2.5.3.3.1.6.3.8.4,0,0,.3,0,.3,0,0,0,0-.1-.1-.2ZM8.9,22.3c0-.1-.2-.3-.3-.4,0-.1-.2-.3-.3-.5-.1-.3-.2-.6-.3-1,0-.2,0-.5,0-.8,0,0,0,0,0,0,0,.1,0,.2.1.3,0,.2.3.7.4.8,0,.1,0,.2,0,.3,0,.2.5,1,.6,1.2,0,0,.2.4.2.5,0,0-.4-.4-.6-.7Z"/>
  <path d="M19.5,18.3c.1,0,.3,0,.4-.1.2,0-.8,1.1-.9,1.2-.2.2-.3.3-.4.5,0,0,0,.2,0,.3-.1.3-.2.6-.4.8-.1.1-.2.3-.3.4-.1.2-.3.3-.4.5-.1.1-.3.2-.5.3,0,0-.3.2-.3.2,0,0-.5.4-.6.4-.2.1-.4.3-.6.5,0,.1-.1.2-.2.3-.2.2-.3.4-.5.5,0,0-.1.1-.2.2,0,0-.2.2-.3.1,0,0,.2-.3.2-.4s0-.1,0-.1c0-.1,0-.3.1-.4,0,0,0-.1,0-.2s0,0,0,0c0,0,.5-.3.5-.4.6-.4,1.2-.9,1.7-1.4s.5-.5.6-.7c.1-.3.2-.6.4-.9s.3-.5.6-.7.4-.3.6-.4c0,0,0,0-.1,0-.4.1-.7.4-.9.7-.2.3-.4.5-.5.8s-.1.3-.2.4-.2.3-.3.4c0,0-.2.2-.3.2s-.2.2-.3.3-.3.3-.5.4-.3.2-.5.3c-.2.1-.5.4-.5.3,0,0,0,0,0-.2,0-.2.2-.6.2-.7,0,0,0-.2.1-.3.2,0,.4-.2.5-.4s.4-.3.6-.5.2-.2.2-.3c.1-.2.3-.4.4-.6.2-.3.4-.5.7-.7s.6-.4.9-.4.6-.1.9-.2Z"/>
  <path d="M9.5,11.8c.2.2.4.5.6.7.1.2.3.4.4.6.2.3.3.5.5.8,0,.1.1.3.2.4.1.2.2.5.4.7.2.3.3.7.4,1,0,.2.2.5.2.6,0,0,.1.5.2.7,0,.4,0,.7.1,1.1,0,.4,0,.8.1,1.3,0,.3,0,.5,0,.8,0,.2,0,.3,0,.5,0,.2,0,.4,0,.6,0,.2,0,.3,0,.5,0,.3,0,.5.1.8,0,.2,0,.3.1.5,0,.3.2.6.3.9,0,0,0,.1.1.2.1.3.2.4,0,.3-.1-.1-.3-.3-.4-.4-.2-.2-.3-.3-.5-.5-.2-.3-.4-.5-.6-.8-.2-.2-.3-.5-.4-.8,0-.2-.2-.4-.2-.6,0,0,0-.2,0-.2-.1-.5-.2-.9-.2-1.4,0-.2,0-.4,0-.6,0-.2,0-.4,0-.6,0-.3,0-.6,0-1,0,0,0-.1,0-.2,0-.3,0-.5,0-.8,0-.2,0-.4,0-.6,0-.2-.1-.4-.2-.6,0-.1,0-.3,0-.4,0-.2-.1-.4-.2-.6,0-.2-.1-.4-.2-.6,0-.3-.2-.5-.3-.8,0-.1-.1-.3-.2-.4,0-.1-.1-.3-.2-.4,0,0-.1-.2-.2-.2,0,0,0,0,0,0s0-.2,0-.2c0,0,.1,0,.2,0ZM12.8,23.5h0c0-.2-.1-.4-.2-.6,0-.3-.1-.5-.2-.8,0-.3-.1-.6-.2-.9,0-.2,0-.6,0-.7,0-.1-.3-3-.4-3.3,0-.2-.1-.4-.2-.6,0-.2-.3-.8-.4-.9-.1-.3-.2-.6-.3-.9,0-.1,0-.2-.1-.3,0,.1,0,.2,0,.3,0,0,0,.1,0,.2,0,.1.2.7.3.9,0,.2.5,1.6.5,1.7,0,.3,0,.5,0,.8,0,.3,0,.5,0,.8,0,.2,0,1.7,0,2,0,.3.4,1.4.5,1.5,0,.2.5.7.5.8Z"/>
  <path d="M11.6,13s-.2.6-.4,1c0,0-.1-.1-.1-.1s0-.1,0-.1c0,0-.2-.2-.1-.2.2-.1.3-.4.3-.5,0-.2.1-.5.2-.7,0-.3.1-.6.2-.9,0-.1,0-.3,0-.4,0,0,0-.1,0-.2,0,0,0,0,0,0,0,0,0,0,0,0,0,.1,0,.3,0,.4,0,.2,0,.3,0,.5,0,.2,0,.4,0,.6,0,.2,0,.5,0,.7,0,.3,0,.6,0,.9,0,.2,0,.4,0,.6,0,.2,0,.3,0,.5,0,0,0,0,0,0,0,0,0,.2,0,.2,0,0-.1,0-.1-.1,0-.1-.2-.3-.2-.4s-.2-.5-.1-.5c0-.1.1-.3.1-.4,0,0,0-.2,0-.3,0,0,0-.1,0-.2s0-.2,0-.2Z"/>
  <path d="M15.6,6.7c0,0,0-.1-.1-.2-.1-.1-.2-.2-.3-.3-.1-.2-.3-.3-.5-.4,0,0,0-.2.2-.2,0,0,.1,0,.2,0,0,0,0,0,0,0,0,0,0-.1,0-.1,0,0-.2-.1-.3-.2,0,0,0-.1-.1-.2,0,0-.1-.1-.2-.2.1,0,.3,0,.3,0,0,0-.1-.2-.2-.2,0-.1,0-.3,0-.4,0-.2,0-.3,0-.5,0,0,0,0,0,0,0,0,0-.1,0-.2,0-.2-.1-.3-.2-.5,0-.2-.3-.4-.5-.6,0-.1,0-.3-.1-.4,0,0,0,0-.1,0,.1-.1.1-.5,0-.6-.1-.2-.2-.4-.4-.7,0-.1-.2-.3-.3-.4,0,0-.2,0-.3.1,0,.1,0,.2,0,.4,0,.2-.2.4-.2.7,0,.2-.2.4-.1.5,0,0-.2,0-.2.1,0,0-.1.1-.1.2,0,0,0,0,0,.1,0,.3,0,.6-.1.8,0,0,0,0,0,0,0,0,0,0-.1,0-.1,0-.2,0-.2.2,0,0,0,.2,0,.3,0,0,0,.1,0,.1,0,.3.2.5,0,.8,0,0,0,0,0,0,0,0-.2,0-.2.1-.3.2-.2.5-.5.6,0,0,0,.1,0,.2,0,0,.1,0,.2,0,0,0,.1,0,.2,0-.1.1-.4.6-.5.7,0,0,0,0-.1.1,0,0,0,0-.1,0s0,0,0,0c0,0,0,0,0,0,0,0,0,.2,0,.2,0,0,0,0,.1.1,0,0,.2,0,.3,0,.1,0,.3,0,.4,0,.2,0,.2,0,.2.2,0,0,0,.1,0,.2,0,0,0,.2,0,.2,0,0,.1,0,.2,0,0,.1,0,.4-.1.5,0,0-.1.2-.1.2,0,.1.2.2.3.2.1,0,.3,0,.4,0,0,.3.2.4.4.3,0,0,0,0,0,0,0,0,0,.1,0,.2,0,.1,0,.3,0,.3,0,0,.3,0,.3,0,0,0,0,0,0,0,0,.2,0,.6,0,.9,0,.2,0,.6,0,.8,0,.2,0,1.1,0,1.4,0,.2,0,.3,0,.5,0,.2,0,.4,0,.6,0,.1,0,.2,0,.4,0,.2,0,.4,0,.7,0,.2,0,.3,0,.5,0,.1,0,.3,0,.4,0,.3-.1,1.8,0,1.9,0,.2,0,.4,0,.7,0,.3,0,.6.1.9,0,0,0,.3,0,.3.1,0,.2-.3.2-.4,0-.1,0-.2.2-.4,0-.5,0-.5,0-.9s0-.7,0-.9,0-.4,0-.6c0-.3,0-.5,0-.8,0-.4,0-.9,0-1.3,0-.2,0-.4,0-.6,0-.1,0-.3,0-.4,0-.3,0-.5,0-.8,0-.2,0-.4,0-.6,0-.2,0-.4,0-.6,0,0,0-.8,0-1.2s0-.2,0-.3c0,0,.1-.2.1-.2.1,0,.2.1.3.2,0,0,.2,0,.2,0,0,0,0-.2,0-.2,0-.1,0-.3-.1-.4,0,0,0,0,.1,0,0,0,.1-.1.2-.2.2,0,.3-.1.3-.4,0,0,0,0,0-.1,0,0,0-.1,0-.1,0,0,0-.2,0-.2.1,0,.2,0,.3.1,0,0,.1,0,.2,0,.1,0,.1,0,.1-.1,0-.1,0-.3,0-.4.2,0,.2,0,.3,0,0,0,.1,0,.1,0,0,0,0,0,0-.1ZM14.5,4.4c0,0-.3-.2-.3-.3,0,0,0,0-.2,0,0,0-.2.1-.2.2,0,0,0-.1,0-.2,0-.2.1-.4.4-.5,0,0,0,.2.1.3,0,0,0,0,0,0,.1,0,.2.1.2.2,0,0,0,.2,0,.4ZM12.8,3.2c0,0,0-.1.1-.2,0,0,0,0,0,0,0,0,.1,0,.2,0,.2,0,.2.1.2.2,0,0,0,.2.1.3,0,0-.1,0-.2-.1,0,0-.2,0-.3,0,0,0-.1,0-.1,0,0,0,0-.1,0-.2ZM13.3,7.1c0,0,0-.2-.1,0,0,0,0,.2-.3.3,0-.2,0-.5.1-.6,0-.1.1-.2.3-.3.1,0,.2,0,.2,0,0,0,.1.1.2.2,0,0,0,.1,0,.1,0,.2,0,.2.1.4-.1,0-.3-.1-.3-.2,0,0,0,.1-.1.2-.1,0-.2,0-.2-.1ZM13.3,4.3c0,0,0,0-.2,0,0,0-.2.1-.3.2,0-.2.2-.4.3-.5.1,0,.2,0,.3.1,0,0,0,.1,0,.2,0,0,0,0,0,.1,0,0-.2,0-.2-.2ZM12.8,5.7c0-.2.1-.4.2-.4.1-.1.1-.1.2-.2.1,0,.3,0,.4.1,0,0,.1.3.2.4s.1.3,0,.4c0,0,0,0,0,0,0,0-.1-.1-.2-.2,0-.1-.2-.1-.2,0,0,.1,0,.2,0,.2,0,0,0,0-.1,0s0,0,0,0c0,0,0,0-.1-.1,0,0,0-.1,0-.1,0,0-.2.2-.4.2s0,0,0,0c0-.2,0-.3.1-.4ZM14.7,5.4c0,0-.2,0-.3,0,0,0,0,.2,0,.3-.1,0-.2-.1-.2-.2,0,0,0-.1,0-.2,0,0,0,0,0-.2,0,0,0-.1.1-.2,0,0,.1,0,.2,0,.2,0,.3.3.3.4ZM14.2,3s0,.1,0,.2c0,0,0,0,0,0,0,0,0,0-.1,0,0,0-.1,0-.2-.1,0,0-.1.4-.2.4,0,0,0,0,0-.1,0,0,0-.1,0-.2,0,0,0,0,0,0,0,0,0-.2,0-.3,0-.2,0-.3.2-.3,0,0,0,0,0,0,0,0,.1,0,.2,0,.1.1.1.2.2.3ZM13.7,2.5s-.2,0-.3-.1c0,0-.1,0-.2,0,0,0-.2.2-.3.3,0-.1,0-.3,0-.4,0,0,0-.2.2-.3,0,0,0,0,0,0,0,0,0-.2,0-.3.4.2.5.4.4.7ZM12.7.9s0,0,0-.1c0-.1.1-.3.2-.4,0,0,0,0,0,0,0,0,0,0,0,0,0,.2.1.3.2.5,0,0,0,.2,0,.2,0,0,0,0,0,.1,0,0,0,.4-.2.2,0,0-.1-.2-.2-.2,0,0-.2.1-.3,0,0-.1,0-.1.1-.3ZM12.1,2.6c0-.1,0-.1.1-.2,0,0,0,0,.1-.2.1-.2.3,0,.3,0,0,.2.1.3.2.5,0,0,0,0,0,0,0,0,0,0,0,0,0,0,0,0-.1-.1,0,0-.1,0-.2,0,0,0,0,0-.1.1,0,0-.1,0-.1,0,0-.1,0-.3,0-.3ZM11.7,4c0-.1,0-.1,0-.2,0,0,0-.1,0-.2,0-.2.3,0,.3,0,.2.1.3.4.3.7,0,0-.2,0-.3-.1,0,0-.1,0-.2,0,0,0,0,0-.1.1,0,0,0,.1-.1.1-.1-.1,0-.3,0-.3ZM11.1,5.3s0,0,0,0c.1-.1.4-.3.4-.3.2-.2.3-.1.5-.3.1-.1.3,0,.5.1,0,0,.1.2.2.3,0,0,0,0,0,.1,0,0,0,0,0,.1,0,0,0,.2,0,.3,0,.1-.1,0-.2-.1,0-.2,0-.1-.2,0,0,0,0,0-.1.1,0,0,0,0-.1,0s0-.3,0-.3c0,0,0-.1,0-.1,0,0-.1,0-.1,0-.1,0-.5,0-.7,0ZM11.6,6.6c-.2,0-.4,0-.5,0,0,0-.3,0-.2-.1.1,0,.2,0,.2-.1,0,0,0,0,.1-.1.1-.1.2-.2.4-.2.1,0,.3,0,.4,0,.2.3.5.6.5.9,0,0,0,.3,0,.3,0,0,0-.2,0-.2,0,0-.1-.1-.2,0-.1,0-.2,0-.3,0-.2,0,0-.3,0-.4,0,0-.2-.2-.2-.2ZM12.6,8.3s-.1,0-.2,0c0,0,0-.1,0-.2,0,0-.1,0-.2,0,0,0-.3-.1-.2-.3.1,0,.3-.1.4-.1.1,0,.2,0,.3,0,0,0,0,.1,0,.3,0,.1,0,.3-.1.3ZM13.8,8.9s-.1,0-.2,0c0,0-.2-.2-.2-.1,0,0,0,0,0,.1s0,0-.1.1c0,0,0,0,0,0,0,0,0,0,0,0,0,0,0,0,0-.1s0,0,0,0c0,0-.3.3-.5.2.1-.2.1-.3.2-.4,0-.2.1-.5.2-.6.2-.6.6.4.7.5,0,0,.3.3.3.4,0,0,0,0,0,0ZM14.3,8c-.1,0-.3-.2-.4,0,0,0,0,.2,0,.2,0,0-.1,0-.1-.1,0-.2,0-.3,0-.5s0,0,0,0c0,0,.1,0,.2,0,0,0,.2,0,.3,0,.1,0,.2,0,.2.2,0,0,0,.1,0,.1ZM15.1,6.7c-.1,0-.2,0-.2.1,0,.1.1.2,0,.3-.1,0-.2,0-.3-.1,0,0,0-.2-.2,0,0,0,0,.2-.2.3,0,0-.1-.2-.1-.2,0-.2,0-.3,0-.5,0,0,0-.2.1-.2,0,0,.2,0,.3,0,0-.1-.2-.3,0-.4.5,0,.5.4.7.6-.1,0-.3,0-.4,0Z"/>
</svg>