<?xml version="1.0" encoding="UTF-8"?>
<svg id="Layer_1" xmlns="http://www.w3.org/2000/svg" version="1.1" viewBox="0 0 120 194.4">
  <!-- Generator: Adobe Illustrator 29.2.1, SVG Export Plug-In . SVG Version: 2.1.0 Build 116)  -->
  <defs>
    <style>
      .st0 {
        fill: #bf9b89;
      }
    </style>
  </defs>
  <g id="b533s1">
    <g>
      <path class="st0" d="M45.6,142.4c-.1,0-.5,0-.6,0s.6-1.1-.3-1.7l2,.3-.8-1.4.8-.6c-1.1,0-1.1.4-1.3,1.4-.3-.4-1.3-.6-1.6-1-.5-.9.6-2.2-1.4-1.5-.1.5.5.2.5.3s-.3.5-.3.7.5.1.6.2c.3.4-1.6,1-1.1-.8l-.8.3.3-.8c-.5,0-1.2,0-1.4.6l.6.6c-2.7-.6-1.6,1.3-1.7,1.4s-1.3-.5-1.7.1l1,.4c-.7.4-1.4,1.5-1.7.3-.4.2-.5.9-.8,1-.5.3-1-.4-.5.9-1.4-.7-2.1,1.1-3,1.7s-2.2.3-1.5,1.7c-.5.2-.9-.7-1.1-.6s-.3,1-1.4.8c.6.8-.4.7-1.1.6l.3.8c-1.6-.5-.9.1-1.4.4s-1.2-.3-1.6,1c.2-1.2-2.2.7-2.1.8h.8c-.5,1.7-.8.3-2,.3l.3.8c-1.7-.6-.8,0-1.3.5s-.8.3-1.1.6-.4,1.3-1,.8.2-.7-.3-.6c0,.9-1,.8-1.7.8.7,1.3,0,.6-.5,1s-.4.7-.6.8-1.1-.4-1.4.3l1.1.3c-.9.2-1.2,1.6-1.5,1.8s-.5-1.7-1,.6c-.9-.8-.7,1-.9,1.3s-.7.2-.9.9.2,1.3.2,1.4-.7-.2-.9.2.2,1-.6,1.3l-2.2,4.4c2.9,1,5.7,1.3,8.8,1.2,5.1-.1,8.9-1.1,13.5-3.4s1.8-1.3,2.4-1.7,2.6-.2,1.9-1.2c.2-.2.8.3.8.4s-2,1.7-2.3,1.9c-2.9,1.8-8,3.8-11.3,4.3s-2.5,0-3.2.1c-1.1.2-5.9,5.8-6.8,7-2,2.9-2.7,5.9-5.1,8.7s-2.6,3.3-4,4.9-1.3,2.7-2,1.1,1.2-.7,1.4-1.5-.4-1.2-.2-1.8l1.1.3c.1-.5-.8,0-.6-.7s2.1-1.2,2.4-1.8-.2-.7-.1-.8.9,0,1.1-.4-.7,0-.6-.3c.2-.4.9-.3,1.1-.6.5-.6-.3-1-.3-1.1,0-.3,1.1-.4,1.3-.7s-.2-.6-.1-.8,1.4-1,1.5-1.3,0-.7.2-1,.7-.2.7-.3c.1-.2-1.1-1.4-.8-1.7.5-.6.7,1.2,1.4.8-.6-1,.8-1.4.9-1.6,0-.6-.9-.7.5-1.4l-1.1-.4,1.7.3c.3-.9-1.1-.8-.4-1.7s1.2-.6,1.4-.6.1.6.2.6c.2.2.9-.6,0-1s-.8.2-.8.1-.6-1.7-.7-1.9c-.8.9-1,2.1-1.5,3.1s-.6.3-.7.5c-.2.4,0,.9-.2,1.1s-.6-.3-.8.2c1.6.9-.2.4-.4.7s0,1-.1,1.1-.4-.3-.5-.2c-.4.2-1.2,1.2-.6,1.6h-.8s.3.8.3.8l-.6-.3c-.1,0-.2,1.2-.3,1.5-.4.9-2.8,3.3-3.6,3.8s-.5.6-.8.6c0-.5,0-.8.3-1.3.7-1.2,2.8-3.3,3.8-4.6s2.9-4,4-5.8,1-2.6,2-3.6l-4.2-1c-.3-.3,1.4-2.8,1.7-3.4,2.5-5.4,2.3-7.7,7.6-11.7s5.7-2.8,6.9-4,2.8-5.8,2.8-6.4c0-1.6-1.1-1.2-2.2-1.8s-.9-.9-1.5-1.1-1.5,0-2.1-.4-2.8-3-3.3-3.7c-2.8-3.5-9.5-15.5-9.4-19.7s.9-4.7,2.1-5.8,1-.5,1.4-.8c1.2-1,.8-1.8,3.1-1.7s5.8,4.5,7.3,6.7,1.4,2.7,2.2,4c1.9,3.1,4.8,6.3,5.3,10,1.2.1,1.6-1.3,2.6-1.7s1.3.1,1.9,0,.8-.9,1.6-.7c1.2.3,1.9,1.6,2.4,2.6l.6,3.7c-.5-1.4,1.9-3.7,1.9-4.4s-2-3.2-2.4-3.7c-6.2-8.4-15.2-15.1-20.1-24.3-3-5.7-4.1-11.6-5.7-17.8.1-.3.2-.4.5-.3.9.2,2.2,1.6,3.2,2.1,4.6,2.2,10.4,2.3,14.8,4.5s8.2,7.1,10.8,10.7,5.8,8.4,7.7,12.9c.4.8.7-.5.9-.7,2.5-3.5,2.6-4.9,4.4-8.5s2.5-3.6,3.2-5.2.7-2.6,1.2-3.8c2.1-5,4.1-8,3.2-13.8s-5-2.2-6.5-4.7-.1-.8-.3-1.1c-.8-1.3-2-1-2.6-3.6s0-6.3,2.1-7.3,3.4-.9,3.9-.9c2-.2,5,2.5,5.6,4.2s.1.8.8,1.9-.8,2.9-1,4.1c-.4,2.3.3,4.3.8,6.6,0,0,.3-.2.4-.3,1.4-2.1,4.8-10.1,4.9-12.5s-.6-2.3-.2-3.5,1-1.1,1.3-1.7c.6-1.1.7-2.7,1.2-3.8,1.9-4.4,5.3-7.4,4-12.7-.2-.9-1.3-1.7-1.5-2.4s.3-1.4.1-2.3-1.3-1.4-1.5-2.1,0-2.3-.2-3.4-1-1.4-1.1-2c-.2-2,.8-4.5.7-5.8s-.8-2.5-.4-3.9.8-.6,1-.8c.2-.4.6-2.6,1-3.4,1.1-2.6,2.4-5.2,4.3-7s.9-4.3,1.9-5.2,1-.2,1.6-.7c.8-.7,1.2-2.8,2.4-3.2s1.8.9,2.8,1,1.3-.7,1.8-.5,2,3.1,2.2,3.6,1.1,2.3,1.2,2.7c.2,1.6-.4.7.6,2.3s.5,2.2.7,3.7c.3,2.1.3,4,.3,6.2-.1,3.2-1,4.1-1.6,6.5-.9,3.6-1.7,4.9-3.7,8-1,1.6-2.9,3-4.4,4,.8.4,4.9-1.7,4.4.2s-5.4,4-7.1,5.7c-3.8,3.7-5.7,11.4-6.8,16.4,1.8-.9,1.4-4.2,2.8-5.2s1.2-.3,1.6-.6c4.9-3,9.2-7.4,14.7-9.4s6.8-2,8.3.4.2,1,.3,1.2,1.4.4,1.9,1.1,0,2.4-.5,3c-4.2,4.6-10,7.8-15.6,10.4s-4.2,1.4-5.5,2.1-.5.9-.9,1c-.6.2-3.4,0-4.1,0-1.4-.1-1.7-1.2-3.4.6-2.6,2.8-2.9,6.3-4.2,9.5-5.8,13.9-12.4,27.8-18.4,41.5s.2,3.7,0,5.6-.5,1.4-.5,1.7,1.1.1-.2,1.5l-.4-1.4c.1,1.7-.8,1.2-1.1,1.4s.2.5.2.8c-.2.7-.7,2-1.6,1.7l.6-.6v-.3c-1,.1-.4-.7-.3-1.4l.8,1.1.3-2.5c1.3.5.6,0,.9-.3s.7-.1.2-1.4-1.2-.3.3-1.2c0-.3-1.1.1-.8-.7-.5-.1-.3.7-.8.8l.7-2.2c.8,0-.2.5.4,1.3s.4.4.6.4c.3-.8-.5-.9-.5-1,0-.5.3-.8.2-1.7-.2-1.9-1.4-3.6-1.7-5.5l-.3.8c-1.5,0-.2-1.3-.4-2.3s-.6-.8-1.3-.3c-.4-.9.8-.7.6-1.3s-.4,0-.5-.2c-.4-.7-.9-1.5-1.1-2s.4-1.4-.9-.7c.6-1.5-.3-1.4-.7-2-5.3-7.3-6.8-13.3-16.1-17.6-2-.9-2.7-.5-4.5-.9-4-.8-7.7-2.2-11-4.7-.7.6.4.5.4.7,0,.7-.8.7.5,1.4-1.5.6-.1.7,0,.7,0,.1-.2.4-.2.6s.5.1.6.2c.5.6-.5.5-.5.6-.4.4,1,.9,1.1,1.8s-.9,0-.3,1.2l.6-.3c-.4,1-.3,1.6.6,2.4-1.1.3,0,1.3.8,1.3-1.2,1.3,0,1.1,0,1.2,0,.2-.4.6-.1,1s1,.2,1,.3-.3.7-.3,1c0,.6.9.1.3,1.2h1.1s-.6.3-.6.3c-.2,1.8,1.3.8,1.4.8.5.5-.6.6-.6.7.6.3.3.9.4,1.3.3.6.9.3,1.3.7,1,1.2.4,3.6,2.2,2.7-1.4,1.5,1.4.6.6,2.2,1.3-.7,1.9-.5.6.6,1.2-.3.7.5.9.8s.7,0,.9.4-.1.7,0,.9.7,0,1.1.6.9,1,1.5,1.8.6,2.1,1.7.9c-.6.9.4,1.8,1.1,2.4s.7.1.8.2-.8,1.3.9,1.1l.3-.6c.5,1.2-.1.4-.3,1.3.3.6.9,0,1.3.4.6.8,0,2.4,2.1,2.3.1.5-.8,0-.6.7s1.6-.6.8,1c1.5-.2.5.4.7.8s1.4.8,1.5.9c.2.2,0,.9.3,1.3s1.1,1.7,1.2,1.7.6-.3.8-.3l-.6.7c.3.5,1.3.8,1.5,1.3s0,1.3.1,1.4c0,0,1.8-.4,2.2.7-.8.2-1.7-.3-1.4,1,1,.2.2-.5.3-.6.8-.3.8.4.9.5s.6.4.7.4c.4,0,1.3-.2,1.8-.3.2.3-.5,1-.7,1.1-.6.2-.4-.9-.7-.6s-.3,1-.3,1.1c1.2-.8,0,.9.1,1.5s.4,1.5.7,1.5c.3-.8-.7-1.6.3-1.8-.8-.5-.5-.9.3-1.3v2.2s.3-.8.3-.8c.9.3.6,1.5,1.4.8l-.8,1.7,1.1-.4c-.8,1.1-1.9.2-1.1,1.8.4,0,.3-.5.5-.7s3.1-.7,3.1.4c-.6.5-2.3-.1-2.5,0-.5.4-.4,1.4.5,1.4v-.8c1.1,0,1.4,1,2.2-.2s.2-.9.4-1.1,1.7-.8,2.2-.9c.1.9-.9.5-1.5,1.1s-.5.9-.4,1.4h1.1c-.7-2.3,1.2-.9,1.1-.7s-1,.3-.6,1,2.2,0,1,1.1.2.6.2.6c.1,0,.6-1.6,2-.5s-.6,1.5.2,1.6.9-.8.6.3c.6.5,1-.5,1.3.7.5.5.1-.5.4-.4.5.2.1.8.1.8.2,0,.6,0,1,0s.6.9.9,1c.6.2,1.4,0,1.4,0,.6.6-.9.6-.6.8s1.3.7,1.7,1c.9.6,2.6,1.5,3.5,2.2s.9,2,2,1.3c-.7,2.2,2.1-.2.6,1.7,1.8,0,.8,0,1,.9s1.5,1.9,2.4,1.6l-.8.4c.2.3.6.3.8.6,3.1,4.5,4.5,10.6,6.6,15.7.2.5.4,1,.5,1.4.8,1.8,2.1,4.3,4.2,4.7s.7-.3.9-.1c.8.5.8.9,2.3,1.3s1.7.2,2.5.8.2.5.5.7c.8.5,3,1.9,3.7,1.6,3.6-1.5,0-7.7-.7-10.2-1.2-3.9-2.2-8-3.4-11.9s.1-.9,0-1.4c-.3-.8-1.6-.7-.3-1.1-.9-.6,0-1.8-1.4-1.5.6-1.5-1.4-2.6-2.2-3.5s-.8-1.7-1.6-1.9,0,.7-.4.6c.3-1.5-.4-.9-.7-1.2s-.3-.8-.6-.9-.8.2-.9.1.2-.6-.2-.9c-.5-.4-1.9-.7-2.5-.9s-.1-.5-.3-.5c-.3,0-.7.4-.9.3s-.2-.6-.5-.8-1,0-1.2,0c-.5-.4-1.4-1.1-1.9-1.4s-1.2,0-1.6-.8l-.4.6c.2-1.1-1.9-1.7-2.8-1.7.7-1.2-1.3-.8-1.4-.8s0-.6-.3-1-2.7-1.9-3-2c-1.1-.4-.2.8-.8.8s-.1-.8-.1-.8c-.2,0-3.5,0-3.8,0s0,.5-.1.5c-.5.4-.7-.7-.9-.8-.4-.2-2.2.2-2.7.4s-.5,1.5-1,0v.4c-.1,0-1.3.2-1.3.2l.8-.4-.8-.4c.7.2,1.4-.4,1.9-.5s.9.2,1.5.1c4.8-.9,9-3,13.1-5.6.6-.5.1-.5-.3-.3-1,.5-2,1.2-3,1.7s-1.7.7-3,1.5-4.1,1.7-4.7,1.7,0-.9-1.5-.3l4.6-2.3c1.1-.6,8.2-5.4,8.3-6,.1-1.3-2.2,1.2-2.5,1l1.7-2c-2.8-.1-4,3-6.4,3.6.4.9-2.4,2.2-3.3,2.9s-1.2,1.6-1.8,1.9-3.8,1.5-4.5,1.6-.4-.4.1-.4c.3-1-1.2-1-1.7-.8s-.5.6-.7.7-.4-1-1-.6l6-7c1.3-.6,1.8-1.8,2.7-2.7s2.9-2.4,3.1-2.8-.8-.8-1.3-.4-1.6,2.4-2.2,3.1c-1.6,1.8-3.5,3.4-5.2,5-.1-.5.3-.7.6-1,2-2.4,4.3-4.1,6.1-6.8s1.7-1.9.6-2.3c-1.4,3.6-4.9,6.1-7.4,8.9-.3-.6,1-1.5,1.5-2.1,1.9-2,4.7-4.5,5.7-7.4s-.1-.8,0-1.1c.2-.6.8-1.1.7-1.9l1.1.8c.3-.3.3-1.8.3-1.9.2-.3,1.4-.3.4-1.5s-1-.3-.7-.8.4.1.6-.3.1-1.7,1-1.1,0,1.6.3,2.1.8.4,1.1.6,0,.4.1.6,1.1.1,0,.9-.8,0-1,.1c-.4.2-1.7,1.7-1.4,2.1,1.3,0,1.6-1.8,2.5-1.5-.1.2-1,.9-.8,1,.7.6,1.2-1.7,1.1.3.1.2,1.6-2.1,1.7-2.4.1-.5-.4-.6-.5-.4s0,.8-.6.8c.4-.7-.2-3.3,1-3.4.3.4,0,.9.3,1.4.3.7,2.2.9.8,2.3s-1.6-.2-2,1.7.4.8.5,1.4c2.3-.3,1.8-3.4,2.5-4.4s1.1,0,1.4-.3c.3.3-1.4,3.8.6,3.1.4.7-.7,1.2-1.2,1.1-.8-.1.2-1.5-.6-1.1s-1.2,1.6-2.1,1.7c-.3,1.5,1.5,1,2.5,1.1-.2-.5-.9-.9-1.4-.8l.7-.8c.1,0,.7,2.3,1.9,1.4s.4-2.1.9-2.8,1.6-1.1,1.7-1.1c.7-.3.3,1.4.4,1.7l-.3-.6c-1.2,0-.5,1.7-.8,2.5,1.6-1.9,3.5-4.4,4.6-6.7s-.1-.6,0-.8,1.1-.3.5-1.5l.6.3c0-.9.7-2,.8-2.7s-.6,0-.6-.3c.1-.5.8-.1.8-.1.1-.3-.2-.8-.2-1s.5-.1.6-.5c.3-.6.2-1.2.3-1.8,1.9-6.4,8.5-17.4,8.6-24,0-1.7-1.3-2.4-2.9-2s-4.4,2.1-5.1,2.5c-4.3,2.6-10.4,8.9-12.6,13.4s.2.6,0,.8-.7.2-.9.6.1.7,0,.9c-.3.3-.9.2-1,.3-.1.1.5,1.3.3,1.7s-1.6.1-2.1,1.4,0,1.5-.2,1.6-.6-.1-.8.2-.1.7-.3,1-.5.2-.5.4-.3,1.6-.3,1.7c0,.1-.6.2-.8.5-.5,1,.7.2.8,1-.3.3-1.3.3-1.4.3-.1.1-1.5,3.5-1.5,3.7s.9,0,.3,1l.8-.3c.1.2,0,2,0,2.4s.6.1.6.6c.3,1.7-.7,1.3-1.2,1.9s-.7,2.3-1.1,3.1c-.8,1.8-2.2,3.7-3.3,5.4-.5.6-.5.2-.3-.3.5-1,1.2-1.7,1.6-2.9s.6-.9,0-.6c-1.1,2-2.6,3.8-3.4,6-.5.2,0-.9-.6-.4-1.1,1.1-2,3-3.2,4.1-.4-.2,0-.6.2-.9,1.1-1.7,2.5-3.1,3.6-4.7s3.4-4.7,3.7-5.6.2-1.1.1-1.7l-.4.6-1-.6c1.6-1.3.6-1.5.6-1.8s1.2-.5.8-1.3c.8.3.1,1.4,1.4,1.1.1-.5-1-.1-.6-.8s1-.4,1.1-.8c.2-.9-.3-1.8-1.1-1.4s-1.6,2.3-1.8,2.7-.1.8-.3,1.1c-.3.4-.8-.1-1,0-.3.2,0,1.3,0,1.4-.1.1-.7.2-.8.5s.4.7.2.9c-.2.3-.9.1-1.1,1.3s.3.4.5.5c.8.6,0,.7-.4,1s-.2.5-.2.5c-.2.1-.7-.3-.8-.3-.4.3-.5,3-.7,3.6s-2.7,4-3.1,4.5-.4.7-1,.6c2.6-5.4,5.8-10.7,7-16.6l-.8.7c.4-1.7-.4-3.2,0-4.8.8-.6,1.7,2.9,1.9,3.2.9,1.3.8-.3,1.2-.8,2.2-3.5,3.4-7.6,5.5-11.3,3.9-7,10-16.2,16.6-20.6s7.7-4.5,9.5-2.8-1.7,9.7-2.7,12.2-.2,1.4-.4,2.1-1.4,2-1.6,2.6c-1,3-1.4,6.7-2.6,9.7s-1,2-1.6,4-5,10-6.7,11.2-.7-.5-1,1.4c2.9.5,3.2-2.7,5.6-3.1.2,1-.7.9-1.2,1.7s-.4,1.5-1,2.1c0,.2.3.2.4.1,2-.5,4.9-2.3,6.9-3.2,7.3-3,19.5-7.8,27.3-6.3.7.1,2.1.9,3,1.2,2.2.6,4.5.8,6.4,2.3-3,2.7-4.4,7-8.2,8.9-7.5,3.6-15.7,5.6-23.8,7.3-7.6,1.6-15.3,3.3-23.1,3.8,1.6,1.6,4.2,2.3,6.1,3.6s2.3,1.2,4.3,2.1c4.2,1.9,8.2,4.4,11.3,8,4.3,5.1,4.8,12.5,6.7,18.7.5,1.7,2.1,4.7,2.3,6.1s-.5,2.7,0,4c-.1.5-1.6,1.9-2.1,2.1s-4.4-2.2-5.5-2.7c-5.6-2.5-6.5-1.1-9.4-7.4s-4.7-14.1-10.3-20.1-9.2-7.7-14.2-10c-.8-.4-3.4-1.5-4-1.6s-1.1,1.7-1.3,2.3-.4.9-.7,1.8-1.6,2.2-1.6,2.4c-.5,2.8-.5,3.2-1.9,5.9-2.2,4.1-5.5,8.3-9.8,10.2.5-.9,1.5-1.2,2.2-1.8s2.7-2.7,2.8-2.9c.2-.5.2-1.3.3-1.4.3-.3.3-.2.9-.8s.8-.3.9-.7-.2-.8-.2-.8c.2-.2,1.5.3.8-1.1,0,0,.5.3.5.3.3-.2,1.8-5.1,1.7-5.9l.6.3c-.5-1.2.1-.6.4-1.2.4-1,.6-2.1.9-3s1-1,.5-1.4l-1.5,1.7c0-.7-.2-1.2,0-2,.5.2,0,.8.8.6.3-.4-.7-1,.6-1.1s.3-.8.2-.8-1.3.3-1.3.3c-.2.1-.3.8-.3,1.1ZM85.6,6.2c.1-1.5-.5-1.7-1.7-.9s-2.6,2.3-3.2,2.6-.5-.2-.5-.2c0,0-.3,1.4-.3,1.5,0,.3.6.1.6.2.5.7-.6.4-.9.7-.3.4.1,2-.3,2.6l-.4-.8c-.5.2-.2,1.3-1,1.1v.3c.6-.4,1.2.7,1.1.8s-.6-.3-.8-.2-.3.8-.9.8l-.3-.8c0,.3-.4,1.2-.3,1.4s1.2-.3,1.1.3c-.5.5-1.7.3-1.9.9s0,2.4,0,2.4c-.6.5-.4-.7-.8-.6-.5.8.7,1.2.6,1.5s-.8.5-1.1.9,0,1.1,0,1.2-.6-.3-.9.1c-.4.7-.1,1.1-.3,1.7s-.5.2-.6.2c-.1.1,1.3,2.5,1.1,3.1h-1.1s.6.7.6.7h-.6c0,.1,0,2.4,0,2.4.5,0,.2-.7.6-1,.9-.8,0,1.3,0,1.6-.2.4.6.8-.8.3v.8s2.2-.3,2.2-.3c.5,1.5-1.6.2-1.1,1.5s1.9,1.2,2,1.3c.8.9-1.6.1-1.4.8.9-.2.9.8,1.7.8l-.8.8c1.8-.8.8,1.9.1.3-.7.4,0,2.4,1,2,.1-.5-.6,0-.6-.4,0-.9,1.1-.5,1.7-.7v.8s-.6.1-.6.1c.2.2.2.6.4.7.6.2.4-1.1,1-.6s-.4.7-.3.8c.3.3.5,0,.6-.4.2-.6-.3-.7-.3-.9,0-.3.7-.5.7-1.1s-1-2.6-1.3-3.2,0-.9,0-.9c-.1-.1-1,.4-1.1.3.7-1.1-.7-.6-.1-1.7s.7.6,1.2.8.8,0,.9,0c.1,0-.9,2.2,2.2,1.4.3-.9-.7-.4-.8-.6-.6-.7,1.1-2,2-1.7-.2,1.2-.6,2.3-1.1,3.5h.8c-.6-1,0-.5.6-1.1,1.2-1.3,1.2-.9,2.2-1.7s0-.8.2-1.1.7-.1.8-.2c.3-.2.4-1,.9-1,0,.4-.2,1.6-.3,1.9s-.8.2-1.1.5-.5.8-.8,1.1-.6,0-.7.2c-.3.5.8,1.2-.7.6l-.3,1.4.6-.8.6.6.7-1.4.4.8,1.4-.8.6,1.1v-.8c1.3.8,1.2-1.2-.1-.3-.6-.7.3-.5.7-.7s.3-1.1.8-.7-.2.7.3.6c0-.9,1.6-1,1-1.7-.3,0-.9,1.2-1.3.8s1.6-1.6-.6-1.7c0-.4,1.2-.3.2-.6-1-1.5,1.5-.8,1.8-1.1.5-.5-1.1-.6-.6-1.1s1.4.8,1.7.6c0-.3-.3-.6-.3-1s.7,0,.6-.4c-1-.2-.8-.3-.6-1.1l.4.6c1.1-.8.4-1.6.5-2.5.2-1.8.6-3.1.6-4.8s.9-.9-.1-1.2l.8-1.1h-1.1c0,.1.9-.6.9-.6l-.9-1.5.8-.6c-1,.1-1.9-1.3-1.7-2.1s.5-.2.5-.3c0-.8-.7-2-1.7-1.8,0-.7.8-.2.8-.3,0,0-.3-1.9-.3-1.9-.2-.1-.7.1-.8-.2s0-1.5-.3-2.1l-.3.8c-.7.6-2.2,0-2.2,0s.2,1.1-.4,1.4c-1.7-.2,1.5-2.3-.4-1.7ZM83.2,37.1c.9-.5,1.9-.2,1.3-1.5-1.1.2-.7.8-.9,1.1s-1.1-.2-1.4,0c-.7.7,1,.1.6.8.4.1.2-.4.4-.5ZM80.3,44.6c.1-.1.7.9,1.1.4.3-.6,6.4-3.8,5.6-4.6-2.3.4-5.5,1.3-7,3.2s-1.1,1.7-1.1,1.8c-.2.5,0,1.3,0,1.4s-.9.6-.9.6c-.3,0-.2-1.3-1.3-.6l.9,1.1c2.1.1,1.3-1.5,1.6-1.9s1.7.8,1.1-1.4ZM97.6,47.1c-1-.4-1,1-1.5,1.1-.8.2-.4-.8-.4-.8-.1,0-2.7.8-2.8.9-.2.2,0,.7,0,.8s-1-.5-1.1-.3.2.6-.2.9c-.6.5-1.8-.8-1.5.8-.4-.2-.6-.3-1.1-.2-1.5.5-2.7,2.1-3.8,2.8s-6.1,3.3-6.3,4.7c-.4,2.1,1.5,2.1,1.8,2.9s-.2,1.5.7,1.4v.3c-1.7.3-.1,2.4.9,2.4s4.6-1.6,5.5-2,1.1-.6,1.7-.9c2.3-1.1,7.5-3.8,9.1-5.5s-.6-.9,1.1-.7l-.8-.4c.2-.5.8-.1,1-.4.3-.5-.4-1.2.4-1.4l.3,1.1.8-.7h-.6c.1-.5-.3-1.2-.3-1.3,0-.1,1.2,0,1.1-.6-1.3-.2-3.1,0-4.1.9s0,.5-.1.7c-.2.2-.8.1-1.2.4-1.4,1-2.7,2.4-4.4,2.8l7.5-6.3c-.9-.5-1.3,1-1.8,1.3s-.6-.4-.4-.6c.3-.3,1.5,0,.1-1.1-.4,1.3-.4,0-.6,0-.7.2-.5,1-1.3.8v-1.1c.7.1,2.8-.1,2.8-1.1l-6.2,2-.6.8c-.3-.8-.3-.4-1-.3.8-1,2.5-1.1,3.6-1.7l-.8-1.1c1.7-.3.7.5,1.1.7,1,.6,3.3-.9,3.4-2.1ZM78.3,48.2c-.6-.2-1.2.5-1.5.9-.8,1.3-3.5,7-3.7,8.3s.2,1.2.2,1.5-.8.2-.8.2c-.1.1-1.2,2.6-1.1,2.7s.4,0,.5.3c.2.4.2,1,.3,1.5l-.6-1.4c-2,.4-1.1,2.1-1.2,3.2-.5,4.3-2.9,8.8-4.7,12.6s-1.7,4.2-1.9,4.4c-.8.5-1-.4-.8-1.1-1.3.4,0,1.6,0,1.7s-.5,0-.6.2c-.3,1-.2,2.7-.3,3.6s-.5.2-.6.5c-.3.6-1,2.9-1,3.5s.7,0,.5.4c-.8.1-1.3,1.4-1.7,2.1-1.2,2.2-1.9,5.1-3.2,7.5s-.5.7-1,1.5-.6,1.5-.6,1.6c0,.3.7,0,.6.4h-.8c.6.9-1.4,2-.4,3.1v-1.1c1.1.1.7.8,1.3,1.1.2-1.1.8-1.5-.6-1.3.8-.9.6-3.1,2-1.8.8-1.2-.6-1.4-.6-1.5.2-.9,1.3-.5,1.7-1.4-1.3-.3.5-1.2.9-1.9,2.6-4,4-8.8,5.6-13.1s1.6-1.1.3-1.1v-.3c1.4-.1.5-1.1.6-1.4s.4,0,.5-.3c.7-2.2,2.3-4.3,2.3-6.5,0,0,.4.3.5.2.1,0,1.2-2.4,1.3-2.8s1-3.3,1-3.5c0-.8-.8-.4-.8-1,.4,0,1.1.1,1.4,0s1.6-3.5,2.5-4.1,2.7-1.2,3.3-1.1.5,1.5.7,0c.4-.1.3.4.5.7.6.7,1.7.3,2.5.4.1-.4-.4-.2-.5-.3-.2-.3-.3-1.4-.4-1.8s-.5.2-.6.1c-.3-.4,1-.9.8-1.8s-1.8-1.9-2.1-2.2c.7-1.3-.3-1-.3-1.2,0-.3.7,0,.6-.4-1.6,0-1.4,1.4-1.1,2.5-1-.7-.4.5-.7,1.1s-1.7,1.4-2,2,.2.8.2.8c-.1,0-.9-.3-1.3-.3s-1,.5-1.3-.1.6-.1.8-.6.5-2,.6-2.5c.2-.8-1,.2-.6-.6s.7-.2.8-.2c.1-.1.7-1.8.6-2s-.9,0-.6-.7l.8.3c.1-1.4,1-2.6,1.4-3.8s.8-3.4,1.3-4.4,1.2-.8,1.2-1.4ZM57.1,63.9c0,0-.6-.1-.6.1.5.9,1.6,1.7,1.4,2.9-.6-.5-.8-1.4-1.5-2-1.4-1.2-1.6.4-3.2-.3,0,.5,1.1.6,1.1,1s-.8.6-1.1.4v-.6c-.1,0-.6.7-.6.7l.6.4c-1,0-.3.3-.3.7s-.4.1-.6.6c-.4,1,0,2.6.4,3.6s.6.5.7.6c0,0-.2,1.4.6,1.6,1.7.4,1.6-.6,2.3-1.2s.8-.3,1.1-.6,1.4-1.8,1.4-2.4c.5,0,.3,1.3,1,1.3s1.7-1.5,2.1-1.7.7-.1.8-.2c.7-.7-2.5-5.1-3.8-4.9s-.6,1.2-1.7.4,0-.4,0-.4ZM62.7,70h-1.1s.6.8.6.8c-1.3.2-2.2,1-3.5.3-.6.2,0,1-.1,1.1s-.6,0-1,.3c-1,.6-1.3,1.7-2.4,2,.6.7,1.1,1.4,2.1,1.7.8-1.5.5,0,.6,0,.4.3,3.1,1,3.2,1.1s-.4.7-.3.8.5,0,.8,0,0,.5.8.8.7-.1.2-.3l-.8-1.9c.4-1.4-.2-.5-.7-1.2,1.7,0,.4-2.8.6-3s.8-.2.8-.5-.9-.3-.8-.7l1.4-.4h-.6c0-.1.3-1,.3-1ZM53.2,108c0,0,.5-.7.1-.8,0,.5-1,1.2-1,1.3.3.7,1.2,0,1.4.1l-.4,1.7c.3-.3,1.4-2.3,1.3-2.5s-.9.8-1.4.3ZM14.8,110.6c-.1-.1.4-.8.3-1.1l-1.1.7c.2.6,1.1.6,1.3.7s-.1.4,0,.5c.9,1.1,1.2,1.1,1.2-.6l-.6.3-.4-1.1c-.1,0-.2,1.1-.7.6ZM14.5,111.2c-.4-.3-.8-.7-1.3-.7-.3.6,1.1,1.1,1.1,1.3,0,1.4-2-.5-1.1,1.3l-1.1-.3.6-1.1-.8,1.7-.8-1.1c-.3,4,1.6,7.8,3.3,11.4s1,.4.6,1.5c-2.5-3.5-4.4-7.7-4.8-12h-.6c.9,1.2-.2,1.4-.3,1.6-.2,1,0,3-1.7,1.8,0,.1.3,2.6.4,2.8s.7,1.1.7,1.1c.7.5.4-.7.8-.6.2,1.7-.2.8-.6,1-.8.4.1.4.2.5.2.4,0,.9.3,1.3s.6.4.8.9.4,2,.6,2.4.8.1.9.2-.6,1,.3,2.1,2.1.5.5,1.1c.2.5,1.2,1.1,1.3,1.3.2.3-.5,1.6.9,1.3-.2,1.2,1.9,3.9,2.8,4.9,1.4,1.5,2.9,1.9,2.8-.7.5,0,.1.7.3.8s2.3-.4,2.6-.6.3-.9.8-1.3,2.3-.9,2.5-1c.3-.4,0-2.4-.2-3l.6.3c.1,0,.5-2.4.4-2.8-.1-1-2.1-4.9-2.8-5.6s-.9-.2-1-.3.3-.9,0-1.2-.8,0-.9-.2.2-.6.1-.8c-.2-.6-1.3-2.2-2.1-2l.6-.4c-.5-.7-1.1-1.4-1.5-2.1s.2-1.1-1-.5c.5-1.1-.2-1.4-.8-2.2s-.5-1.4-.6-1.4c-.5-.4-.5.2-.6.4-.5,1,0,.5.3.9.6,1.3,1.3,2.5,2,3.7s.5.2.5.4c0,1.1-.9.7-.8-.4-.9.5-1.4,0-.3-.4-1.4-1.6-2.3-3.7-4-5.1ZM118.9,117.8c-3.7-.5-7.4-3.1-11.1-3.4-4.8-.4-14.7,2.8-19.3,4.7s-1.4,1-1.9,1.4-.9-.1-1.5,0c-2,.6-5.1,2.3-7.1,3.2s-3,.9-3.1,1,.3.7.2.8c-.4.6-2.2.5-2.4,1-.4.8,1.5,0,1.7.1-1,2.5-3.9.4-3.9,3.1l-.3-.6-1.4.6c-.1.5.7.1.6.4-.2.5-1,0-1.1.7,1.8,1.5,1.9-.5,2.6-.8s.6.3,1.1-.2-.3-1.6,1.1-1.3v.8c1.8-3.2,1.1-1.4,2.7-.9s2.2-.3,1.4.9-2.3.5-3,.7-5.1,2.7-5.3,3,0,.9,0,1.3c-1-1-3.8.7-4.2,1.8l.6.4-2.8-.3v.8c.3.2,3.9-.5,4.6-.6s.6-.4.9-.4c.4,0,1.4.3,1.5.1.5-.5-.5-.8-.6-1.1h1.1c0,.1-.3,1.1-.3,1.1.6-.4,3.4-.3,3.6-.6.5-.5-.5-.8-.6-1.1,1.1-.3.7.7,1.5.8s2.9-.2,3.3-.3,0-1.3,1.4-.3c10.4-1.7,20.4-4.3,30.1-8.2s5.7-3.5,7.8-7l2-2.1ZM59.3,119.2c.1-.9.8-1.6,1.1-2.4s.6-1,0-.9-1,2.1-1.1,2.5-.4.9.2.9ZM61.6,120.9c1.1-1.1,1.7-3,2.2-4.5-1.2,1-1.8,3-2.2,4.5ZM62.1,123.1c.8-.5,1.2-2.1.4-2.8-.6.8-.4,1.9-.4,2.8ZM70.5,123.7c.9.7,2.9-2.1,1.1-1.6s-.7.8-1.4.4c0,.1.2,1.1.3,1.1ZM75.3,123.2c-1.1.4-4.2.6-5,1s-.6,1.7-.8,2.4c.8-.5.9.6,1.7.6-.2-2.3.7-1.5,1.7-1.9s2-.8,2.5-1.1c.8-.5-.7-.3,0-1ZM64.3,124.5c-2.9.9-4.5,3.4-6.6,5.3s-4.2,2.8-5.2,5.3c1.5.7,2.3-.9,3.9-.3l-1.1.6.9.2c3.7-2.2,7.2-4.8,9.8-8.3-1-.1-1.3.9-1.8,1.3-.7.6-3.6,3.2-4.2,3.5s-.5,0-.4-.1c.6-1,1.6-2.1,2.5-2.9s4.4-3,4.3-3.2-.6-.5-.9-.4l-5,2.6,3.9-3.5ZM34.7,130.4c.4.7.8,1.1,1,2,1-1.6.5-3.9-1.5-4.2-.3.7.8,1.4.8,1.5,0,.2-.3.5-.2.7-.3-.5-1-.8-1.1-1.5-1-.8-2.6-.6-2.2,1l-1.1-.7c-1.4,1.9-1.7,3.9-.6,6.2.5.3,4.9-2.2,5.8-2.4-.1-.9-.6-1.5-.7-2.5ZM28.8,134.6l-.3-4.2c-.6.8-.3.7-.3,1.2s-.4.2-.5.4c-.4,1.1-.3,2.4,1.1,2.6ZM39.4,131.1c-.1-.1-.7-.4-.7-.4.6,1-.3.8-.3,1,0,.3.4.8.3,1.3l-.6-.6c0,1.3-1.2,2.2-2.1,3.1s-1,0-.4,1.1c-.7.3-.5-.6-.7-.6-.8,0-.7,1-.7,1.1-.2.1-.7,0-1.1.2s-.8,1-1.4.6.2-.6-.3-.5l-1.1,3.4-.6-.3c0,1.3-.1.6-.6.7s-.4.3-.7.3-.5-.1-.6-.1c-.4.3-.6,2-.9,2.3s-1.2-.2-.9,1.1.7,0,.6.4h-.8c0,.1.3,1.1.3,1.1l-.6.3c.8-.2.6.4,1.1.6v-1.7c.5-.1.2.5.3.6s1.5-.5,1.6-.6,0-1.3,1.5-1.1l-.8-.4c.2,0,1.3-1.2,1.3-1.3,0-.2-.3-.7-.2-.8.6-.6.5.7.8.6l.7-1.4c.8-.2,0,.5.1.6.6.3.8-.6.8-1.1h-.8c.4-.7,1,0,.8-.8.5,0,0,.8,1.1.6.2-.4-1.2-.3-.6-.8s.8.8,1.4.6c-.8-1.6,1.4-.5,1.4-2.1-1.4-.3.5-1.8,1.4-1-.2-.9-.2-1.5.6-2.1l-.6-.7c.6-.3,1.3.9,1.4.8s0-.4,0-.5c.5-.3,1.2,0,1.6-.8l-1.4.3c0-.5,1.6-1.5,1.6-1.6.2-.6-.7-1,.3-1.2-.3-.3-.4-.6-.8-.3s.5,1.1-.4,1c-.3-.2-.3-.6-.5-.7ZM26.9,134.9c-1.2.2-.4,1.3-2,.6,1.2,1.9-.3.6-.4.6-.2,0-.5.9-.9,1.1l-2.3,1.1c-.1,1.2,1,.5,1.1.6l-.3.5c2,.7,1.1,0,1.2-.3.6-1,.7.2.7.2,0,0,1.1-.4,1.7.3s-.3,1.4,1,1.1c.2,1-.3.6-.6,1.1l1.7-.8c0-.5-.6,0-.6-.7s.3-.8.6-1.3h-.8c1.8-.9-.3-1-.6-2.1l.8-.7-.8-.3c.4-.2,1.9.4,2,.3.7-.6-1.7-1-2-.6l.3-.8ZM29.4,136.3c-.4-.4-.6.3-.7.6-.2.8,0,2.2-.1,3.1,1.3-.2,1.4-3.1.8-3.6ZM38.3,138.8c-1,.5-2.5,1.2-3.3,1.8s-1.7,1.5-1.4,1.8c.6,0,1.2-.6,1.6-1,1-.8,2.2-1.7,3.1-2.6Z"/>
      <path class="st0" d="M47,133.7s-.7.2-.8.2c-1,0-.2-1.2-.2-1.7s-.2-1.2-.1-1.2c.4-.3,1.8.3,2-.6l-.8-.6c1.4.5,1.6-.4,2.5-1.1l-2.5,4.3c-.2.2,0,.6,0,.7Z"/>
      <path class="st0" d="M84.9,17.9c.2.3.7.2.4,1.3s-1.6.5-.3.9c-1.8.8-.9,1.8-1,3.1s-1.4,3.8-1.2,4c1-.3,1.3-1.3,2-1.8s1.9-.5,1.9-1.3c.6-.2.7.2.5.7-.3.8-1.9.6-1.9.7-.1.2.1,1.2,0,1.4s-1.3,0-1.3,0c-.2.2-.1.7-.3.9s-.7.2-1,.5c-1.2,1.1.4,4-2.7,3.4.1-.2.2-.8.5-.8.3,0,1,.3.9-.3-1.4.1-.9-.7-1.1-1.2s-.6,0-.5-.5c.9-.8,1.4,0,1.8,0,.6,0,.8-2.1.7-2.2s-.6.2-.5-.3c1.4-.2.5-.8.5-1.2s.5,0,.6-.3c.2-.6-.8-.5-.8-.8s.5-.3.4-.7c-.3-1.2-1.3-1.8-1.5-3.2s.2-.6.2-.9l-.8.3-.3-1.4c.7,0,2.5,2.5,2.2,3.1h-.6c.3.4,1.2.6,1.5.6s0-1.6,1-1.4c0-.4-.6-.3-.8-.7.2-.5.8-.1.8-.1.3-.5-.8-4.1.7-1.5Z"/>
      <path class="st0" d="M84.5,12.1c.5-.1.5-.7.6-1.1.7.7,1.1.6,2,.3l-1.4.6.6.3c-1,2.4-2.4-.2-3.6-.8.5-1.2,1.8-.2,2,.8Z"/>
      <path class="st0" d="M15,113.5c.1.2,1,0,0,.9l-.4-.8c-.5,0-.4.8-.7.9-.5,0-2.1-.8-1.8.7s.8,0,.8.3c-1.3,1.5-1.2-1.7-1.1-1.8.9-.9,1.1.2,1.2.3.8.1,1.3-.7,1.3-1.4.5,0,.5.6.7,1Z"/>
      <path class="st0" d="M16.8,128.5c-.6-.2-.6-1.1-1-1.4-.6-.6-1.4.3-.7-1.4.3-.2,1.8,2.3,1.7,2.8Z"/>
      <path class="st0" d="M60.7,129l-3.6,3.1c-.1-.5.3-.7.6-1,.6-.8,2.1-2.6,3.1-2.1Z"/>
    </g>
  </g>
</svg>