<?xml version="1.0" encoding="UTF-8"?>
<svg id="Layer_1" xmlns="http://www.w3.org/2000/svg" version="1.1" viewBox="0 0 120 194.4">
  <!-- Generator: Adobe Illustrator 29.2.1, SVG Export Plug-In . SVG Version: 2.1.0 Build 116)  -->
  <defs>
    <style>
      .st0 {
        fill: #bf9b89;
      }
    </style>
  </defs>
  <g id="CR414t">
    <g>
      <path class="st0" d="M43,2.6c.2,0,.4.5.5.6,2.3,1.5,3.3,2.3,5,4.4s1.7,2.9,2.2,4.3c0,0,.4-1,.4-1.2.2-.7.5-1.3.8-2.1s.3-.7.9-.7c1.4,0,.8,1.5.9,2.4,0,1.7,1,3.4.4,5.1l1.7-3.3c1.4-1.5,1-.4.4.7s-.6,1.1-.9,1.9-.6,1.3-.5,2.1c0,.2,2.2-2.1,2.4-2.3.4-.4.8-1.8,1.3-1.7,1,.4.2,1.1.3,1.9s.3,1,.4,1.5c.3,1.9.9,5.2.5,7s-1.5,3.8-2,4.7-1.6,1.7-2,2.4c-.4.7-.4,1.1-.5,1.3.4,0,.4-.2.4-.4,1-1.7,3.1-3.9,4.3-5.5s.3-.9.7-1.1l1.2,1.6-.7,3.8c1.8-.4,2.2-2.2,2.6-3.8.5-.4,1.3.6,1.5,1,.6,1.2.4,3.4.2,4.8-.4,2.6-2.4,5-4.7,6.3l-.8.9c1.9-.4,3.3-1.6,4.5-3s.7-1.1,1.1-1.4.4-.2.3.2l-2.8,3.3c-.7.5-1.4.9-2.2,1.3s0,.5-.8.3l-.3.7c1.3-.2,2.3,0,3.6-.6s2.3-2.1,3.5-.5c-.6.4-.7,1.2-1.1,1.9s-1.1,1.4-1.8,2-.6.4-.9.7c1.2,1,3,0,4.3-.4-.3.8-1.7,1.2-2.4,1.3-1.1.2-1.9.2-2.5-.8,0,.5.7,1.5,1.1,1.9.5.6,1.5.6,1.2,1.8l-3.3.6.6.5c0,.2-1.2.3-1.1.9l.8-.2c0,.4.2.9-.3.8v.2c0,0,.3,0,.4.2.2.3.2.9.4.8,1.6-2.2,4.2-3.3,5.9-5.5s.4-.9.6-1.2.4-.2.5-.4c.2-.3-.2-.6,0-.8.4-.4,1.1-.4,1.4,0,.4.7,0,.9,0,1-.5,1.6-.6,3.1-.9,4.7s0,.4,0,.7l2.2-.9,1,1c0,.3-.3.4-.4.8-.4,1.1-.7,2.6-1.4,3.5s-.6.4-.6.8l2.3.9.9.6c.5.2,1.7.5,1.8,1.1s-.3,1-.4,1.2c-.4.4-1.2.7-1.6,1-.6.5-1.4,1.2-2.2,1.9-1.4,1.1-2.3.8,0,2.2s1.5.8,2,1,1,0,1,.2c0,0-.2.6.4.7l-.2.5h-.6c0,0-3.1,1.5-3.1,1.5,1,.2,1.7.4,2.6.3s1.3-.5,2-.8.6-.4.5,0l-2.3,1.3.3.4c-1.2,0-2.5-.3-3.7-.6l1.5,3.1-1.5-2.3-.2.3c.8,1.1,1.3,2.7,2.4,3.6s2.3.6,3.9.4v.4c-1.2,0-2.3.4-3.5.2.4.7,1.5.2,2,.5v1.1l-3.8.2c.7,1,1.8,1,2.9.9v.4c-1.5.4-3,0-3.7-1.4-.4.4-.6.4-1.1.2l1,2.9,1.6.6c-.7.4-1.3,0-2-.2s-1.3.4-1.6.4-.5-.2-.8-.2c.5.8,1.6,1.3,2.5,1.4,0,0,0,.2-.2.3s-.9,0-1.2-.2-.3-.2-.2.2c.2.6.8,1.2,1.2,1.7l-.4.3c0,.9,1.9,2.6,2.7,3v.8c-.4.4-3.2-.3-3.9-.4l.8.8c.5.4,1.5.4,1.3,1.1l-2.5-1.1-.3.7h-.8l-.2,1.8c-.8,0-.3-.4-.3-.5s0-1-.3-1c0,.6-.4.9-.5,1.3s.2.7-.7,1.1-.4,0-.4,0-.4.9-.8.5c-.2-.4,0-.9-.3-1.2s-1.1-.9-1.1-.8c-.3,0-.2.3,0,.4,0,.4.4.6.4,1.1.3.9,0,1.9,0,2.8-.3,0-.4,0-.3-.2.3-1.1-.2-2.1-.6-3.2-.4-.3-2,2.2-2.4,2.5l.3-.8c-1.1.2-1.8,1.7-2.9,1.2l.7,8.8c-.3,8.3.8,16.6,1.4,24.8s0,1.6,0,2.4c.5-.4.4-1.3.6-1.9,1.3-4.7,3.5-9,5.2-13.5s.2-.6.2-1l.3.2c0-.2-.2-.4,0-.6.3-1.1,1.6-3,2-4.1,1-2.1,1.9-4.2,3-6.3s.2-1.3,1.4-1.4c0,.6.5.4.8.9-.4,1.1-1,2.3-1.4,3.4-4.1,11.5-3.4,21-4.1,32.8s.3,1.1-.2,1.8c.5,0,.5-.7.8-1.1,2.5-4.1,3.8-7.1,5.2-11.6,1.4-4.5.4-2.6,1.5-3s.7,1.2.7,1.7c.3,3.6,1.8,6.5,2.2,10.1s0,.6,0,1c.9-.7,1.1-1.9,1.5-2.8,2.3-5.1,4.2-10.2,6-15.6,1.8-5.4.8-3.4,1.4-5s.8-1.5,1.6-.8.3.9.3,1.2c0,1.9-.5,4.1-.7,6s0,3.7-.3,5.6-.6,3.3-.9,4.9-.4,4.7-1.4,6.8c.8-.6,1.2-1.6,1.9-2.3,3.9-4.4,8.4-7.8,12.7-11.6,4.3-3.8,2.4-1.9,3.3-3s1.1-2.3,2.4-2.1-.3,2-.6,2.6c-4.9,8.3-10.7,15.5-15.2,24.2s-5.5,10.2-8.3,15.2c-1.1,1.9-1.8,4.1-2.9,6s-1.1,1.3-1.4,2.1c1.3-1.1,2.9-1.9,4.2-2.9,5.8-4.8,11-10.7,16.5-15.9h.3c0-.5.4-.4.6-.5,4-3.6,8-9.8,11.5-14s2-2.6,3-4c1.1-.4.4,1.2,0,1.9s-1.3,1.8-1.3,1.9c-.7,2.8-3,7.5-4.7,9.7s0,.5-.2.9c-3.4,6-7.2,11.7-11.1,17.5s-3.9,5.1-7.4,7.5-.4.3-.4.4c1-.4,2-.8,3.1-1.2,3.7-1.6,8-3.1,12.1-4.3s10.3-1.9,15.3-2.7.6-.4,1-.4l.5.4-.3.3.2.4c-.4,0-.6.4-1,.5-.8.4-2.2.7-3,1.1-2.6,1.1-5.4,2.9-7.8,4.6-6.4,4.3-11.8,8.5-19.3,11.1s-2.3.7-3.3,1.1-2.3.6-3.4,1c.6.6,1.9.4,2.7.6,5.8,1.1,10.7,5.1,16.6,6.5,5.8,1.4,1.9,0,2,.6h-.4l.4.2-.3.6-1.4-.2.3.3c-.2.4-1.2,0-1.8,0-2.2.3-4.4.6-6.6,1.1s-2.3.8-4.2.9-3.9,0-5.8,0-.7-.2-1.1-.2-.6.4-.7.4,0-.3,0-.3c-.4,0-1.4,0-1.9,0-2.7-.4-5.6-1-8.1-1.9s-6.2-2.9-9.3-3.3-1.3,0-1.5.2-.4.4-.6.5-1.3-.3-1.7-.4,0-.3,0-.3c0,0-1.2.8-2.5,0s-1-1.2-1.7-1.4c-2.5-.6-5.8-.4-8.4-.5s-4.8,0-7.1-.4c-5.8-.5-11.4-4.1-16.5-6.8s-14.2-8.6-19-9-1.1.2-1.3,0c-.6-2.1,1.7-1.3,3-1.3,6.3-.4,10.7-.8,17.1.6,4.9,1.1,9.9,2.6,14.8,4.3s2.3,1.1,3.5,1.3c-1-.8-2.1-1.4-3.1-2.1-1.9-1.5-3.5-3.3-5.3-4.9s-2-1.3-3-2.1c-4.7-3.6-9-6.7-13.1-10.9s-1.3-1.1-1.4-1.2c-1.2-1.8-2.7-3.4-4.1-5.2s-1.6-1.3-1.3-2.5c0,0,1.4.2,1.7.3.4.2.4.5.6.7,5.2,3.5,12.2,5.6,17,9.2,4.8,3.5.7.8,1.1,1-.4-1-1.4-1.3-2.2-1.9-2.3-1.9-4.6-3.8-6.6-5.8-4.1-4.1-7.4-8.5-9.2-14s-.9-4.2-1.4-6.3-.9-2.7-1.4-4.1c1-2.6,2.5,1.8,3,2.7,3,5,7.8,10.7,12.7,14.1s8.8,5,12.3,8.3,1.2,1.2,1.8,1.9c0-.4-.4-.9-.5-1.1-1.5-2.4-2.7-4.8-4.1-7.2s-2.6-4.8-4-7-2.1-2.6-3-4-1.1-.4-.5-1.1c0,0,.4-.2.6-.2.5,0,2.7,1.1,3.4,1.2,1.6.4,2.6.6,4.1,1.3,6.6,3.3,10.8,7.5,14.8,13.7s1.3,2.5,2.2,3.7,0,.4.4.3c-.9-1.8-1.2-3.9-2-5.7s-2.5-3.9-2.6-6.3-.3,0-.3-.2c-1.1-4-1.6-9.7-1.2-13.8s1.1-4.8,1.2-7-.2-2.1,0-2.9.6-.6.8-.5c.9.7.6,1.9.8,2.7.4,1.9,1.2,4.9,1.9,6.5,1.1,2.6,3,5.1,4.5,7.5,0-.4-.4-.6-.4-1.1,0-.5-.2-2-.2-2.7-.7-7.8-.3-15.7-1-23.5s-.4-4.8-.8-7-.5-4-.8-4.2-.4,0-.5-.2-.4-.9-.6-.9c0,.6.3,1.2.5,1.8s.7.4.5,1.1c-.9.4-1.1-.5-1.9-.6s.3.5-.3.4c-1,0-2.3-1.5-2.9-2.3-.5.4-.4.9-.2,1.4.3.9.8,2.2,1.8,2.4,0,.3,0,.4-.3.3-.8-.2-1.9-1.8-1.9-2.6h-.3c0,.4-.5.4-.8.3s0-.4-.4-.3c-.5,0-.9,1.4-1.5,1-.4-.4-.2-.8-.2-1.3l-.4.3-.4-1.1-2.1,1.1c-1,0-1.4.5-2.3.6l-.5-.6c1.2-.7,2.1-2.3,2.1-3.7-.6.2-1.3.4-1.9.6s-.8,0-1.1,0-.5.4-.8.4,0-.3-.2-.4c-.6-.2-1.9.4-2.3-.2s1-1.1,1.4-1.4c.8-.6,2.2-2.3,2.8-3.2s.8-1.7,1.1-2.6.8-1,1.1-1.4c-.4-.2-.6.2-1.1.2s-.5.2-.5,0c1.5-.2,2.2-1.3,2.7-2.6-.5.4-1.6,2-2.4,1.9s0-.4-.4-.3l-1,.4c.2-.4.8-.5,1-.8s.3-2.2-.2-2.5c-.6-.3-1,.3-1.4.4-1.1.4-3.1.4-4.3.2s-.6-.4-.5-.8c.8,0,1.1-.4,1.7-.9l-.9-.5c.4,0,1,0,1.2,0s1.2-2.2,1.3-2.6c.3-1.1-.2-1.5-.4-2.5l-.6.3v-.4c.6-.3,1.1-2,1.1-2.6s-1.3-1.1-1.7-1.1c-1.1-.3-1.9.2-1-1.5,0-.6-1.5-.5-2-.9,0-.3.3,0,.4,0,1.2,0,2.5.4,3.3-.8,0-.2-1.6-1.6-1.9-1.8l-.4-.7c.2-.8,1-.5,1.5-.4l-.2-.3c.3,0,.7,0,.6-.4-1.9,0-2.7-2.1-3.5-3.6,0,0,.4-.2.4-.2.2,0,1.6,1.5,1.9,1.8s.3.4.5.3c-.4-.7-.9-1.4-1.1-2.1-.5-1.6-1.1-4.9-1.1-6.6s0-1.1.5-1,.8.9,1.1,1.5.9,1.1,1.3,1.8l2.2,1.2-.8-1.5c.4,0,.6-.4.9-.4s.8.3,1.1,0c0-.4-2.6-.5-2.1-1l2.9.3c0,0-1.1-2.8-1.1-3.3s.4-1,.7-1l-.6-.8,2.9,1.4c-.5-.9-1.1-1.7-1.5-2.6s-.9-2.7-.3-3.2c0,1.3.6,2.5,1,3.6l1,1.1c.2-.8-.3-1.8-.3-2.4s.2-.6.2-.9c0-1.5-.3-2.9,0-4.4.2-.2,1.3.4,1.5.6.2.3,0,.5,0,.8s.3,0,.3.3c.2.4.4.9.7,1.2.2-.9-.4-1.6-.5-2.5s-.2-.6,0-.4c.4.8.5,1.9.9,2.6s.3.2.4.4c.3.4.4,1.2,1.1,1.2,0-.2-.2-.8-.2-1s.3,0,.4-.3c.3-.4-.2-1.4-.2-1.9s.3-1.2.3-1.4c.5-1.7,1.6-2.7,3.3-2.9-.2-.2.2-.9-.3-.8-1.6.6-2.8,2-4.6,2s-3.3-.9-4.5-1.5l3.1.9c1.8.4,3.2-.2,4.5-1.3l-2.7-.4.3-.3c-2.1.4-3.1.7-4.7-1s-1.6-2.6-1.6-3.8.6-2,.2-2.6-.6,0-.4-1,1.1.3,1.3,0l.2-.8.5,1.4c.9-.4,1.2,0,1.8-1.1,1.1-2.3,0-4.6-1-6.6s-.4-.2-.4-.4-.3-1.1-.3-1.1c0-.4,1.2,0,1.5.2,1.3.9,4.8,4.5,5.8,5.7s1.9,2.5,2.6,3.8,0,.4,0,.5l.4-1.3h-.3c0,0,.2-1.6.2-1.6-.8-.3-1.8-1.1-2.2-1.9s-.5-1-1.1-1.8c-1.6-2.1-2.4-4.5-3.6-6.8.4-.2.8.8,1,1.1.4.8,1,2,1.5,2.9s0,.4.4.2c-.4-1.1-1-2.2-1.4-3.2-1.1-3-1.2-6.4-1.5-9.6s-.4-2.4-.9-3-.8-.4-1.1-.5c0-.7.2-1.1.9-.8s1.1.6,1.3.7l.9.6ZM44.8,5.4c0,0-.4-.3-.5-.4-.2.2.8,2.5.9,2.9.4,1.9,1,4.8,1.2,6.7s.2,2,.4,3l.5-.6c.3,0,.7,1.1.4,1.4h-.4l.5,1.1.5-.2-.4-.3.3-.7c.6.2.4,1.1,1.1,1.1s.3-.4.4,0c.3.3-.3,1.1.4,1.1,0-1.3.3-2.6.2-3.9s-.3-1.2-.2-1.9c-.8.4-.3.5-.2.9.2.6-.7.8-.9-.2l.3-.2c-.8-.8.2-.5.4-.7s-.2-1.9-.3-2.3c-1.1-2.8-2.7-4.5-4.6-6.6v-.2ZM51.8,17.4c.4-.4.5-.7.8-1.3.7-2,.4-2.4,0-4.3s0-.5,0-.8c-.5.2-.3.8-.4,1.1s-.4.2-.5.7c-.3,1.6,0,3.2,0,4.8.2.3.2,0,.2-.2ZM57.8,15.5c0,0-.7.4-.9.4-1.8,1.5-3.3,4.1-4.3,6.1s-.4.4-.5.6c0,.4,1,.8.8,1.2h-.4l.2.9h-.6c-.4-.5.8-1.2-.2-1.4l-.4,2.8h.4c.2.8,0,.7-.6.9.7.5.5.9.5,1.6l.3-.6h.9c0,0-.5-.2-.5-.2,0-.4-.4-.2-.4-.3-.3-.4.4-1.1.9-.8l-.2.6h.4c.8-2.2-.4-.7-.8-1.1,0-.7.4-1.2,1.1-1.4.2.2-.4,1.1.2,1.1.6-1.1,1.1-2.5,1.9-3.5s.2-.4.4-.4c-.5,1.2-1.4,2.4-1.9,3.6s-1,2.4-1,3.7l1.4-2c1-.3-.4,1.1-.4,1.2-.2.3,0,.4.2.3s.4-.8.7-1c.9-.9,1.6-1.1,2.4-2.4,2-3.4,1.1-4.9.5-8.4s0-1.3,0-1.9v.2ZM54.3,15.7l-1,1.1c0,.8-.5,1.1-.7,1.4s-.6,1.1-.6,1.2c0,0-.4,0-.4,0,0,0,.5,1.1-.3,1.5s-.5.2-.8.2c.3.9.4,1.9.3,2.7.4,0,.3,0,.4-.2.6-1.1.8-2.6,1.5-3.7s.4-.7.6-1c.3-.4,1-1.1,1.1-1.4s-.3-.4-.4-.7.3-1,.4-1.3h0ZM49.1,19.6c0-.2-.8.4-.8.7l1.1.5-.4-.4.2-.8h0ZM42.6,20.8s-.4-.3-.4-.2c0,1.4.5,4,0,5.2s-1.2,2-1.4,2.1c-.4.3-1.1.2-1.5.2.4,1.6.2,4.4,2,5.1s3.3.5,4.7-.7c-.4-1-1.1-1.6-1.6-2.6s-.3-.8-.3-.8c0-.2,0-.5-.2-.8l.2-.5c.3,1.1.7,2.3,1.4,3.3s1.2,1.2,2.5,1.9,0,.5.3.5l.4-.8-.4-.3-.3.3c-.7-.7-2.3-.9-2-2.1l.6.2.3-.6c.5.2.4,1,.4,1.1,0,0,.6.4.6.6,0-1.4-1.2-2.7-1.5-4.1-.4-.2-.3.2-.4.3s-.5,0-.7,0v-1.1c.2-.2,1,.4.8,0-.5-1.4-1.4-2.7-2-4.1-.5-.6-1-1.4-1.6-1.9h0ZM49.6,21.9c-.8.3-1.4-.7-2.3-.6.2.5,1.2.6,1.4,1s-.5,0-.5,0l-.3.4,1.6,1.8v-2.6h0ZM47.1,25.4s-.5-.4-.4,0c.4.7.4,1.6.7,2.4s0,.4.4.4c-.4-.4,0-1.6-.2-1.8s-.2,0-.3-.2c0-.3,0-.6-.2-.8ZM48,26.1h-.3c.2.6.4,1.2.4,1.9s0,2.5.3,2.8.4.3.4.3c.2.3,0,.6.4.9l.5-.5-.3-1,.5-.3c.2.5.6.9.4,1.5h.4l-.4-2c-1,.4-.6-.3-.8-.6s-.3,0-.4-.3c-.4-.8-.8-1.7-1.1-2.6h0ZM59.9,31.3c-.6-1.2.5-2.5.2-3.8-3.4,2.6-5.6,7.2-4.8,11.5l.6-.7c0-.2-.4-.2-.4-.4-.2-1,.6-.9.8-1.5l-.8-.4.4-1.9c.5,0,.4.4.6.6,0-1.6.7-3.1,1.6-4.5.9-1.4,0-.3,0-.4.8,0-.3,1.1-.3,1.2-.7,1.6-1.1,3.2-1.1,4.8s.4,1.1-.2,1.6c.4.3,1-.8,1.2-1,.4-.4,1.2-.7,1.7-1.1s1.1-1.1,1.9-1.6c0,0,0,.4,0,.4s-1.3,1-1.5,1.2-.5.8-.8,1-.9.4-1.1.4l.4.3v.4c-.4,0,0-.4-.4-.3-.5.2-.2.7-.3.9s-.5.2-.5.4c1.1-.4,1.9-.3,3-.8s2.9-2.8,3.4-3.9c.9-1.7,1.1-4,.8-5.8l-1.1,1.6c-.6.5-2.6,1.1-2.8,1.5s-.2.5-.2.7c-.5.2-1-.5-.4-.6h-.2ZM39.6,32.1c0-.9-.3-1.7-.4-2.6s.2-1.4-.4-1.8c0,1.6-.5,3.2.9,4.3ZM55.8,28.7c0,0-1.1.7-1.2.9s-1.2,1.3-1.1,1.4c.3,0,2.4-2.2,2.3-2.3ZM50.7,32.4c0,0-.4,0-.5-.2l-.3.8,1.1.6c0-.3,0-1-.2-1.1h0ZM47.5,33.7c0-.2-.7-.6-.9-.5s-.3.3-.4.4-.4,0-.6,0-.7.2-.8.4l2.6-.2h0ZM51.4,40.8c-.4-1.5-.8-2.9-.6-4.4-.5-.2-.6.3-.7.3-.8.2-.6.2-1.2.4s-2.2.6-2.6,1.5-.6,1.9-.6,2.1c0,1.8,1.4,2.9,2.1,4.3s.2,1.1.5,1.3l-.2.7,1.5-.7c.4-.5-.4-.5-.2-1.3.6-.2.4.4.9.4l.4-.5c0-.3-.6-.3,0-.8s.2.3.4.3v-.6c-.5.2-1.1.2-1.2-.5.4-.3.9-.5,1.2-.2s0,.5.3.5l.2-.9h-.4v-.9l.4.2v-1c0-.3-.2-.2-.2-.3-.3,1.8-1.7,0-.3-.4l.3.4h0ZM53.5,40.4l-.2-1.2-.4.4-.5-.2c.3.5.5.8,1.1.9h0ZM57.1,39.6l-1.3.6h.9v.4c.4.2.3-.3.4-.3.6,0,1,.2,1.3-.6-.2-.2-.5.5-1.1.2s0-.3,0-.3h0ZM65.2,40.4c-.5,0-.8.5-1.3.7s-4.6.9-5.1.9-.2-.4-.4-.3-1.8.6-1.9.7c-1.9.9-1.9,2.9-1.7,4.7-.4,0-.8.2-.8-.3h-.2l-.5.6c1.5-.4.6.6.6.8s.5.8.7,1.1c.4.7.5,1.5.8,2.2s1.7.7,2.3.9,1.1,0,1.3,0c.4.2.5.7,1.1.5l-.2-1.2c.4,0,.4,0,.4-.3,0-.9-.3-1.7-.5-2.5-.5-.4-1,0-1.4,0-.8,0-2.3-2-2.4-2.9.8-.2.9.8,1.4,1.4.9.9,1.4.8,2.6.6,0-.4-.4-.5,0-.7,1.1-.4,2.4.2,3.5-.2,0-.5-.5-.4-.7-.6s-.3-.4-.5-.6-1-.5-1.1-.6,0-.3,0-.4c0-.2-.3-.4-.3-.5,0-.3.7,0,.3-.7s-.4,0-.3-.6c1.9,0,3.6-.9,4.1-2.7v-.2ZM40.8,41.8c-.4,0-.3,0-.3.3-.4,1,0,5,.6,6s.5.4.6.5v.5c.2.4,1.9,1.7,2.3,1.9s.4.3.4,0c0-.7-.2-1.4-.4-2.1-.6-1.4-2.4-3.1-2.8-4.4s-.3-.8-.3-1.1,0-.5.2-.5c0,1.1.6,1.9,1.1,2.8s1,1.2,1.5,1.9.8,1.1,1,1.6c.4,1.1-.2,2.4.9,3.3l.4,1.5c0-1.9.4-3.3-.2-5.1s-1.4-2.6-2.2-3.6-2.4-2-2.8-3.3h0ZM46.7,45.8c-.7-.8-1-2-1.9-2.6v1.7c.5-.5,1.1-.2.8.4.7-.4.5.4,1.1.4ZM51.1,47.2h-.3c.3.6,0,1-.2,1.4h.4c.4.5-1.2,1.1-1.4,1,0-.6.2-1,.8-.9v-.3c-.4.2-.4,0-.4-.4h-.2c-.9.6-1.9,1.7-2,2.8s0,.7,0,1.1-.4,1.1-.4,1.8c0,1.9.8,2.9,1.9,4.1,0,0,1-.7,1.1-.8.5-.4,2.7-2.6,2.8-3.2s0-.5,0-1,.4-.4.4-.5c.3-.7.2-2.3-.2-2.9-.6.3,0,.7,0,1.1s-.4.8,0,1.2l-1.2.4c-.3-.5,0-.6.3-1s0-.3,0-.4.3,0,.4-.2c0-.4-.2-1-.4-1.2.3,0,.5,0,.4-.3-.6.2-1.2,0-1.1-.7s1-.4,0-1.1l-.3,1.2c-1.1,0-.5-.9-.9-1.5h0ZM68.8,47.5l-1.3,1.3c-2,1.7-4.5,2.6-5.3,5.4s0,1.1,0,1.5c.4-.3.4-.8.5-1.2,1-2,2.7-3.4,4.4-4.8s.8-.4,1-.5c.3-.4.4-1.2.6-1.7h0ZM44.5,52.7c0,0,0-.4-.3-.6-.4-.5-1.9-1.1-2.4-1.6s-.4-.8-.6-.9-.5.2-.8.2c-.5,0-1.4-.4-2-.4-.5.9.6,2.3.2,3.1s-1.9.8-2.3,1.1c0,.5,1.4,1.9,1.9,2.1s.8,0,1.1,0c1.5.4,2.6,1.4,4.4.5s1.9-2.6,1.2-3.5-.4,0-.4,0ZM67.4,50.1c-.2-.2-1.1.8-1.2,1-.4.5-2.4,3.8-2.3,4.2l.4.4c-.4.9.4.4.4.9-.5.7-.5-.4-1.1-.4v1.2l-.6-.3c-.4.5-.3,1.2.4,1.5.2,0,.5-2.9,1.1-1l-.4,1h.8c.3,0,0-1.1,0-1.3.3-.4,1.1-.4,1.5-.5.9-.3,3.5-2.9,4-3.7s.6-1.6.5-1.7c-.5,0-2.3.7-2.6.4s0-.4-.3-.5-.6.3-.9-.2.3-.5.3-.9v-.2ZM61.3,51.2s0,0-.2,0c-.6,0,.3.9.4,1.1s-.3.7,0,.8l.4-1.1c-.3,0-.5-.6-.6-.6h0ZM63.6,54.9l1.2-2.6c-.9.7-1.1,1.9-1.9,2.6,0,.2.4,0,.5,0h0ZM59,53.5c0,0-1.1-.4-1.3-.4,0,.3.2,0,.3.2,0,.2,0,.4,0,.6l1.1.2v.6c.6-.4.9-.4,1.5,0l.2-.9c-.5,0-.8.4-1.4.4s-.3-.4-.4-.6h0ZM34.1,54.9c-.2,0-.4,0-.7-.2s-1.2-1.4-1.5-1.1c.7,1.7.8,4.5,2.2,5.6,1.4,1.1,3.3,1.8,5.5,1.8s.7-.2,1.1-.2l.4.6.7-.3s0,.4-.2.5c-.6.6-4.7.4-5.6,0v.4l-2.1,1c.7,1.2,2.9.4,1.9,2.4l-1.1,1.4c.4,0,.8.2,1.2,0,1.8,0,2.7-1.3,4-2.4s2.3-1.9,2.3-.9-.9,1.8-1,1.9c-1.1,1.7-3.3,2.9-5.4,2.7-.2.6.8.5,0,.9l-.4,2.8c.2.2,1.1-.4,1.3-.7s0-.4,0-.4.3.2.5,0,.4-.5.5-.6.4,0,.4,0-.4-.6,0-.9.4,0,.6,0c.4-.2.5-.5,1.1-.4l-.2-.3.9-.3.5.3c.2-.7-.5-.3-.6-.9s0-.3.3-.4c1.5.7.8-.4,1.9-.6v.7c.3-.5,1.2-1.1,0-1-.4-.5.6-1.2.6-1.3s-.3-.3-.3-.4.2-.5.2-.8c0-.6-.4-1,.7-1.1.4.5-.4.8-.4.9.2.6.8.2.6.8l-.6.7.6.2.4-2.6c1-.4,1,1.4.3,1.5l.3.3c-.5.7-.2,2.1.6,2.6l-.2.4c.8,0,1.5,0,2.3.4s1.1,1.1,1.3-.2-.3-1-.3-1.1.3-.3.3-.4-1.8-2.1-2-2.7,0-1.1-.2-1.8-1.5-1.3.6-1.5c0,.5,0,1,0,1.5,1,2.9,1.4,3.3,3.9,4.7s1.7,1.2,2.9,1.3c-.3-.9-1.2-1.3-1.7-2.1s-.6-1.1-.9-1.7c-.6-1.2-.5-2.7-1.7-3.9s-1-.4-1.7-.5-.4-.4-.5-.4-.3.3-.5.2-.9-.4-1-.5c-.4-.6.4-.8.7-1.2l-.6-.2c.3.3-.4.8-.6.9-.7.4-1.7,1-2.5.8,0,.3,0,.2,0,.3s.6.8.7.9v1.5c0,0-.9.2-.9.2-.4-.5-.4-1.2-.8-1.8-.5-.8-2.1-2.7-2.9-3.2s-.8-.4-.9-.4c-.7,0-1.7,0-2.4-.3s-1.6-1.1-2.4-1.5h0ZM55,54.2l-.9-.4-.3.9c.4-.2.4,0,.8.2l.4-.6h0ZM57.3,54.4c-.4,0-1.6-.7-1.8-.3l-.2.9,2-.6h0ZM47.9,57.2c-.2-.3-.4-.4-.5-.6l-.8-1.8-.3.8c.5.2.7,1,1,1.4s.9.4.5,1.3l.9.2c.3-.4-.7-1.1-.9-1.3h0ZM60.8,58.7c-.4-.6-.2-.4-.4-1.1-.4-1-1.1-1.9-2.2-2s-2.9.4-3.1.6c-.5.4-.3.7-.4,1s-.2,0-.3.2c-.9,3.3,2.2,3.9,3.6,6.2.7-1-.9-2,.8-2.6s3.8.8,1.9-2.3ZM53.5,56l-1.1.3c0,.3.5.3.6.5s-.3.6,0,.8c.3-.3,0-.8,0-1.1s.4-.3.3-.5h0ZM73.2,57.8c-.5-.3-1.7-.9-2.2-1.1s-1.9-.4-1.9-.4,0,.4-.4.5c-.8.6-2.1.9-3.1.8v.8h1.2l.4,1.1c-.4.4-1.2-.8-1.2,0,.6.2.9.8,1.3,1.2.3-.4.4-.7.4-1.2l.4.2v.8c.2,0,.7,0,.8.3l-.3,1.1.6.4c0-.3-.3-.4-.3-.5,0-.4.6-.8.7,0h.4c.4-.4.9-1,1.4-1.3s2.8-1.8,2.5-2.1c-.4,0-.5-.4-.7-.4h0ZM43.7,57.7c-.3-.2,0-.5-1-.3l.9.7h1c0-.4-.5-.3-.9-.4ZM33,60.6s-.3,0-.4-.2c-.4-.4-.9-1-1.5-1.4.2.5,1.1,1.7,1.6,1.9s.3-.2.3-.3ZM66.4,60.8c-.5-.4-1.3-1.7-2-.9,0,.2,1.7.7,2,.9ZM67.8,62.4c0,0-2.1-1.2-2.4-1.3-.8-.4-1.7-.4-2.5-.7.2,1.1,1.4,1.1,2.2,1.7s1.9,1.4,2.2,2.5l-1.1-1.2c-.7,0-1.9-1.1-2.5-1.1s-.9.6-1.2.6,0-.3-.2-.4-1,0-1.1,0l-.2.4c.4.2.5,0,.9-.2l.2.4.4-.2c0,.7,0,1.1-.8.8v.6h-.6l-.3-.9-1.1.6c-.5-.4-.3-.9-.3-1.4-.9.5,0,2-.7,2.9,1.8-.4,3.7.3,4.5,2l.4-.4v-.6c1.9-.3,4.1,1.3,5.9,1.1s1.4-.7,1.9-1,1.1-.2,1.2-.6c0,0-1.5-.6-1.8-.7-1.1-.6-2.6-1.9-3.3-2.7v-.2ZM53.7,61.1l-.6.2c.4.5.5,1,.4,1.7.3,0,0-.4.4-.4s.4,0,.7,0c-.4-.4-1-.7-.9-1.4h0ZM53.2,65.4c.7-.4,0-.8,0-1.1s0-1-.5-1.1c0,0,.6,2.3.6,2.3ZM56.7,64.7c.6.5.2,1.1.2,1.4s.4.3.4,0-.2-1.6-.4-1.9-2-1.8-1.6-.4l.5-.2c.4.4,0,.7,0,1.1.4,0,.6-.2.9,0h0ZM62.5,67c-.9-.9-2.2-.7-3.3-1,0,.3,0,.4.3.4.4.4,1.2,1.1,1.7,1.5s.4.4.2.6c-.4-.7-1.4-1-2-1.4s-.4-.8-.8-.7c-.2,1.1.4,2.3,1,3.3s1.1,1.3,1.3,1.5.4,0,.4,0c.2,0,.2.3.3.3,1.1.3,2.4-.3,3.3-.9,0-.3-.2,0-.3-.3-.6-.9-1.1-2.6-1.9-3.3h0ZM57.8,68.2c-.3-.6-.3-1.2-.6-1.8-.7.6.3,1.6-.3,2.5l.6-.2-.2.9c.9,0,.4.4.6.9s.8.7.9.6v-.4c-1.1-.3-.4-.4-.4-.8s-.7-1.4-.8-1.7h0ZM44.2,67.5l-.8-.3c-.5.5.2.9-.2,1.5l-.8-.4c0,.4-.4.4-.7.6s-.8,1.1-1.1,1.3c-.4.3-1,0-1.4.2s-.2.3-.3.3c-.5.4-2,1.2-2.3,1.8-.7,1.3-.2,2.8-.6,4.1s-.8,1-1,1.5c.4-.2,1.4-.4,1.4.2h.2c0-.7.4-.3.8-.4.5,0,1-1.1,1.7-.2s0,.7.3.7c.7-2,.5-4.3,1.3-6.3s1.7-3.1,3-3.3l-.2-.8.6-.4h0ZM51.9,67.7h-1.5c0,.4.5.4.9.6,0-1.1.4,0,.4,0,.2.3.4.3.6.4.3.2.2.6.7.5s.7-.4,1-.4.6.2,1,0l-.2.8c.4-.3.6.2,1.1.2l.2-.6-.8.2c-.4-.6.4-.7.3-1.4-.5,0-.2.3-.4.4-.4.3-.9,0-1.3.2s-.7.6-1.1,0v-.4h-.8v-.4h0ZM45.4,68.7c-.4,0-.6-.3-.6-.6-1.1.6,0,.5,0,1.2,0,.2.8-.4.6-.6ZM47.9,68.7l-1.1-.3.4,1.8c0,.3-.9.3-1.1,0v-.9l-.7.7c-.4-.4-.7-.3-1.1-.3v-.6l-.5.6s0-.6-.4-.3,0,.7,0,1-.4.4-.4.5c-.5,1.4-.9,4.7-.6,5.8s.7,2.3,1.1,2.3c.4-.2.3-.6.3-.7,0-.2.9-1,1.1-1,1.2,1.9,3.6,2.1,5.6,2.6-.4-1.2-1.1-2.6-1.5-4s-.4-4.2-1-4.8-.6-.2-.6-.4c0-1,.5-1.1,1.2-.5l-.3-1.4c-.6-.2-.2.8-.3.9-.5,0-1.1-.4-.5-.9s.6,0,.5-.4v.2ZM65.8,69.3c0-.2,0-.8-.4-.7l-.7.9c0,.4,1.4,1.8,1.1,2-1.5,0-2.8,1.1-4.4.8v.6l-1.4-.2c-.2,1.9,2.5,1.8,3.8,2,.2.9-.5,1.5-1.1,2.1.7,0,1.8.4,2.4.8s1.7,2,2.1,1.7v-.4l1.9.4-2.3-3c-.4-.8-1.1-1.6-1.3-2.4s.2-.5.4-.6c.9,1,1.9,2.2,3.3,2.4s2.6-.2,3.3-.3.4,0,.4-.2c-.9,0-1.1-1-1.4-1.3s-2.4-2.6-2.6-2.7c-.4-.2-.9-.2-1.1-.3s-.2-.7-.6-.8l.3-.8c-.3,0-.4.3-.7.3s-1-.3-1-.4h0ZM50.8,69.1c-.5,0-.2.5-.4.7l-1.3.3.7.2v.8l.4-.7c.5-.2.4,0,.7.3.4-.9,0-.8-.2-1.5ZM70.4,71.4c-.4-.7-.8-1.6-1.4-2.1.3.8.7,1.7,1.4,2.1ZM57,70.7c0,0-2.4-.4-2.6-.3s-.4,0-.4.3c1.1,0,2.5.3,3.4.9,1,.6.9.6.7.8-.7-.5-5.1-1.3-5.5-.9,0,.6-.4,1.3-.3,1.9,0,1.4,2.2,3.6,3.4,4.2s1.3.5,1.9.4l.2.6c.3-.7,0-1.1-.6-1.4.4-.6,1-.3,1.4-.3,1.1,0,2.9,0,3.7-.7s.4-.4.4-.6c-.7,0-2.5-.4-3-.8s-.5-2.6-1.6-3.2-.7-.4-1.1-.7v-.2ZM41.1,76.6c0-1.9.3-3.7.8-5.5-1.3,1.6-1.2,3.9-1.6,5.8s-.6,1.9-.7,2.6,0,.3.3,0c.4-.5.6-1.2.9-1.9s.3,0,.3-.2c0-.2-.3-.7-.3-1h.4,0ZM50.3,72.7c-.8.7-1.1-.5-.8-1.2l-.5-.3.6,3.7c.4.3.5-.9.7-1.1l-.3-.4.4-.7h0ZM51.3,75.8c0,0-.3-1.2-.3-1.6s.2-1.2-.3-1.4v.9c0,0-.4.3-.4.3.4.6.4,1.5.2,2.1s-.6,0-.6.4.3.8.4,1.1c.3-.2.2-.4.3-.6.3-.5.2-.4.4-1s.4-.2.4-.3h0ZM34.7,76.8c.5-.6.9-2.6.8-3.4-.3,0-.3.4-.4.5-.4,1.1-.4,2.4-1.4,3.3.2.2.8-.2.9-.3h0ZM54,77.2c0-.3-.2-.4-.3-.5-.6-.7-1.2-1.4-1.9-2,.2,1.3,1,2,2.1,2.6ZM68.1,76.3s-1.4-1-1.1-.4l2,2.6c0-.3,0-.5-.2-.8s-.5-1.2-.6-1.3h0ZM52.1,76.6h-.6c.3.8,0,1.4-.9,1.2l.9,1.9,1-.3c-.3-.7-1.1,0-1.3-.7.3-.4.4-1,.6-.3,1.6-.8.2-.8,0-1l.3-.8h0ZM34.2,77.4c-.7,0-1.4.5-1.5,1.2h.9l-.2-.5.8-.7ZM58.9,79.9c-1.1-1.1-3-.8-4.2-1.3s-1.1-1.1-1.5-.9c.6.4.2.7-.4.7,0,.4,0,.3.3.4.7.4,1.1,0,1.8.2l-.2.7c.5.2.5-.3.7-.4s.7,0,1,0l-.3.8.5-.6.8.4c0,.5-.5.4-.9.4l.4.9c.7,0,.3-.8.6-1,.4-.2.8-.2.9.3l.7-.4h-.2ZM63.4,78.1c-.5-.2-1.1.2-1.7-.4,0,.5-.3.7-.8.8l.3.5-.8,1.3c-.3-.2-.6-.3-.5-.7l.8-.6c-.4-.4-.6-.4-1.1-.3.4.6,0,.8-.2,1.3s0,.5,0,.7-.4.3-.5.5c-.4.5-.4,2.5-.4,3.2,0,2.1.6,4.3.2,6.5.4-.3.5-.8.9-1.1s.4,0,.5-.2.5-1.5.7-1.7,1.3-.4,1.7,0l.3-.3c1.1.3,1.2,1.1,2,1.7.2,0,.9-2.4.6-2.7s-.6-.3-.9-.5c-1.4-1.2-2.5-2.3-3-4.1s-.2-1-.4-1.4l.3-.2.4.4c0-.5,0-1,.5-.7s.8,2.4,1.1,3.1,1.1,1.1,1.1,1.1c1.1.9,2.7,1.3,4.1,1.4,0-.4,0-.3-.3-.4-.4-.2-1.1-.3-1.6-.4-2.2-.9-4-3.5-4.2-5.8-.4,0-.3.3-.5.4s-.4,0-.7,0c.2-1.4,1.1-1.1,2.1-.9-.2.7-.4.7-.2,1.5.4,1.3,1.7,3.2,2.8,4s1.9,1.1,2.1.9c-.3-.7-.6-1.4-.9-2.1-.4-1.1-.4-1.2-1.1-2.2s-2-2.2-2.4-2.5-.4,0-.5,0,0-.2,0-.2v-.2ZM46,79.7c0-.2-1.2-.4-1.3-.4v.9l.5-.7c.7.2.6.8.4,1.3l1.7-.6c0-.4-1.1,0-1.2,0v-.6h0ZM57.1,82.6c.4-1.1-.9-1.5-1.8-1.2l-.3-.4c0-.2.5-.4.2-.6-.6,0-1.3-.3-1.9.4l.4.7-1,.8c-.4.2-.4-.3-.4-.3-.3,0-.4.3-.8-.2l-.7,1.3c.5.3.5-.8.9-.8,1.1.2.5.7.5,1.2,0,1.1.8,2.1,1,3.2s0,2.2-.2,3.3-.7,1.3-.7,1.6c0,.6,1.1.8,1.1,1.6.3,0,.3-.4.3-.5.4-1.8.8-3.8,1.1-5.6s.4-.7.4-1.1c0-.6-1.5-3.2-1.4-3.3.4,0,.4,0,.5.2,1.7,1.5,1.7,2.9,1.9,5.1s0,.7,0,1c.8-.2.5-1.1.6-1.8s.3-.4.3-.4-.4-.9-.4-1.2c0-.8-.2-1.1-.4-1.7s0-.6,0-.9h.4l.2-.4ZM48.9,83.8c-.2-.6-.2-1.5-.6-2s-1.4-1.1-1.9-.6c0,0,.3.2.3.3,0,.7-2.8,3.3-3.1,4.5s0,3.4.2,4c0,.7.5,1.9,1.1,2.4.3-.7.9-1.3,1.2-1.9s.3-1.2.7-1.1c1,.6.4,1.8.9,2.6s.3,0,.3.2c.6,1,1,1.7,2.2,1.9-.6-1.2-.6-2.6-.6-3.9s.4-4.4-.3-5.8-.3-.2-.3-.3h0ZM51.5,81.1c-1,.4-1.9-.4-2.6,0,.4.5.5,0,.8,0,.5,0,1.4.9,1.9,0h0ZM43.7,82l-.8.2c.2.4.2,1.1-.4.9s0,0-.5,0-.3-.3-.5-.3c-.8,0-.4.6-.5,1.1-.5,2-1.1,3-2.3,4.6s-.5,1.1-1.1,1l1.7-1.9c0-.4,1.3-2.6,1.1-2.9-.9,0-1.4.9-1.9,1.6s-.7,1.4-1,2l-1.3,1.5.3.4c.4,0,.7,0,.7-.4.4,0,.2.3.5.4.8,0,1.3-.4,1.9-.4s1.5.2,1.5,1-.3,0-.3.2c-.2.4-.2.9-.4,1.3s-.4.5-.4.9c0,0,1-.4,1.1-.5s.8-.8.9-.8c.3,0,.5.2.8.2-.2-.8-.2-1.6-.2-2.4,0-1.1.4-2.6,0-3.7l.6-.5h-.4c0-.5,0-1,.4-1.1v.4l.4-1-.4-.4.6-1v-.2ZM52.5,91c.3-1,.8-1.9.8-3s-.4-3-.9-3.8,0-.4-.3-.4v1.1c-.6,0-.5.4-.7.6s-.4.2-.4.3c0,.4,0,2.4,0,2.9s.8,1.7,1.1,2.2,0,.3.4.2h0ZM66.7,88.5c.3-.7,1-1.2-.3-1.2l.3,1.2ZM58.1,91.4c.5-1.1.4-2.3.3-3.5-.5.4-.3,1.4-.3,2s-.2,1-.3,1.4h.3ZM54,96.2c0-.4-.4-.6-.6-.2-.2.6.4,1.3,0,1.9h.4v-.4h.4l-.9-1.1.4-.3h0ZM55.8,99.9l-.2-2.1c-.3,0-.3.7-.5.8s-.6-.3-1-.2v.4c0,0-.4.2-.4.2v.3h.9v-.6l.8.2s.4,1.1.4,1.1ZM56.7,132c0,.3.3.5,0,.8h-.5c0-.5,0-.6-.4-.8,0,.4.2.6-.2.9.4,0,1.1,0,1.1.6h-.3l.4.6h.3l-.3-.9.4-.3c0,.4,0,1.1.4,1.2v-1.3c0-.4.2-.4.2-.6,0-2-.4-4.1-.5-6.1-.4.2-.5.5-.4.9l-.6-.2c0-.3.2-.4.3-.5,0-.4-.3-.2.3-.7s0-.3,0-.3c.4-.3.2.4.6.3l-.2-.9c-.4-.2-.4.4-.7.4-.8,0-.9-.7,0-1v-.3c-1,0,0-1.1.3-.3l.3-.3.4.5-.4-3.9-.2.8h-.4c0-.4,0-.8.3-1.1s.4.5.4,0c0-1.3-.4-2.8-.5-4s-.3-3.1-.4-4.5c0-3,.3-6,0-8.9-.4.3-.5.4-.9,0-.2-.7.7-.3.9-.5,0-1.4-.2-1.9-1.1-.6s-.8.2-.7-.4c.4-.2,1-.4.9-1l-1,.4-.5-.4c.4.8.2,1.7.3,2.5.3,2.8.7,5.8.8,8.6.2,4.1-.2,8.3.2,12.3s0,1,0,1.5c1.2.4.4.8.4,1.7s.2,1.6.2,2.4c.5,0,.4-1,.4-1.2l.3.6c.4.2.3-.4.4-.3.4,0,.4.5.4.6,0,0,.4,0,.4.2s.2.8.2.9c0,.3-.4,0-.5.3s0,.5-.4.6c-.4.3-.2-.9-.4-.9l-.7.2.2,1.2.2-.4c.7.2.5.9.6,1.5,0,0,.4.2.4.2,0-.4-.2-.8-.2-1.2l.9.2c0,.5-.2,1.1-.8,1.1l-.2-.2ZM69.3,106c-.4,0-.3,0-.4.4-.4.9-.8,1.7-1.1,2.6l.6-.6.7-2.3h0ZM65.2,119c.3-.3,0-1.1,0-1.4,0-.4.5-1.3.7-1.9s.2-1.3.4-1.9-.4.4-.6,0v.3h.3l-.4.7-.2-.3c-.7.4,0,.4,0,.4.2.3-.4.4-.5.6s-.3.6-.5.8l.6-.3-.2.9-.4-.4c0,.4-.3.8-.3,1.1s0,.4.2.4l.3-.6c0,.2,0,.4,0,.6,0,.3.4,0,.4.4s-.7,0-.8,0l-.6,2h.4l-.3,1c-.9-.5-.4.8-1,1.3l.3.3.2-1.1c.4-.2.5.6.4.8s-.4.2-.4.3,0,.3,0,.4-.4.2-.6.5c-.4.7,0,1.2,0,1.3,0,.4-.8,1.1-.7,1.7-.5-.2,0-.8-.2-1.2l-.5.2c0-.3-.3-.4-.5-.3-.3.6-.3.9,0,1.5,0,.3-.4,0-.4,0s0,.4-.4.5c.2.3.4,0,.6.2.5.3.3.8-.3.7s0-.4-.4-.4c-.4,1.6-1,3.2-1,4.8l.9-.4v1.1h.5c.3,0,0,.8-.4.7s0-.3-.2-.3c-.3,0-.4.4-.9-.4l-.6,3,.2.3c1.7,0,.7.8-.3,1.1l.8.4v.4l-.6.2c.3.6.3,1.3.4,1.9s.4.2.4.3c0,.2-.2.4-.2.6s.3,2,.4,1.8l-.2-1.1,1.1-.4.4.4-.4.7-.4-.3-.4.7c.8.4-.3.8-.3.9s0,.6.3.5l.4-.6c-.3.8.7,1.7,0,2.3-.5-.2,0-.4-.5-.6l.2,3.5.6-.4.2,1c-.7.3-.6.5-.9,1.2.4.4.4-.4.5-.4l.3,1.1-.4.2c0,.5.3,1.3.5.5l.5.3c.3-.5.2-1.1.4-1.8.3-.9.7-1.4.7-2.5s-.4-.6,0-1.1l.6.3c-.2-.4.3-1.1.3-1.3s-.4-.7,0-1.3l.6.9c0-.5.2-1.1.4-1.6s1-1-.4-.9c0,.4.2.8-.4.9-.4-.2-.3-.6,0-.9s.4,0,.4-.2,0-.3,0-.4c.4-.4.8-.4.5-1.2.4-.2.3.4.4.4.5,0,.2-.5.3-.8,0-.9.3-1.9.4-2.7s.3,0,.3-.2c.2-1.1-.4-2.2.2-3.2,0-.3-.3,0-.3.2-.4,0-.5-.2-.4-.6l.5-.3.2.4c.2,0,.2-.2.3-.4.3-1.9,0-4.1.2-6h-.3c0-1.9.4-3.7.4-5.6l-.3-.3c.6,0,.7-1.5.6-1.7h-.3l.3-.2-.3-.2.2-1.4h-.8v.7c0,0-.6,1-.6,1,0-.6.4-1.1.4-1.8s-.2-.3-.2-.4c0-.7.4-.4.5-.5l-.4.4ZM84.7,124l-.2-.4c-.3-1.6.5-3,.8-4.6s.2-.5,0-.5c-.3,1.1-.5,2.3-.9,3.3s-.2.6-.5.6l.3.3c-.4.6-.7,1.1-1,1.8-1,2.5-1.3,4.9-2.5,7.4s-1.6,3.5-2.6,5.1-.7,1.1-.7,1.1c-.2,0-.4,0-.6,0,0,2.8-.4,5.6-.8,8.4.4-.2.4-1,.8-1.2.9-1,1.7-1.7,2.7-2.5s2.4-2.6,2.5-2.8c.6-1.1.6-2.3,1-3.4s1.8-4.9,1.9-6.3-.3-1.9.4-1.8c-.4-.4,0-.4,0-.7,0-.5,0-.9.2-1.4s.4-1.1.3-1.3-.3,0-.3-.2c-.2-.6.3-1.4.2-2l.3.6.2-1.5-.3.3-.2-.4c-.4.4-.2.8-.4,1.2s-.5.3-.3.9l-.3.2ZM62.1,123.8c0-.5.6-.4.7-.7.3-.7.4-2,.4-2.8-.4.5-1.1,1.4-.9,2s.4.3.3.6l-.6-.2-.9,2.6c.5,0,.5.4.9.6l.4-1.8-.4-.4h0ZM49.1,125.9l-.2-1.7-.5-1.1c-.3.7,0,.6.2.7.2.5.2,1.1.4,1.6s0,.4.3.4h0ZM77.3,160.1c0,.2-.3.5-.2.6l.5.2c.2,0,.3-.8.7-.6,0,.7.2,1-.6,1.3l.4.7c-.3-.6,0-.4.2-.6.2-.4.4-1.1.6-1.5s.5-.2.4-.5h-.4c0,0,.4-1.4,0-1.7v.8h-.5l.2.4c-1.2.4-1.4-1.2-.3-.9v-.5c0,0,0-.4,0-.4.3,0,.6.4.8.4.4,0,1.4-.8.4-1.1s-.4.6-.7.6c-.4-.7,0-1.1.5-1.7v.8c1.1-.7,1.4,0,.9.9h.4c0,0,.4-1,.4-1l-.4-.4.2-.7c-.6.3-1,0-1.5,0l-.2-.7.4.4,1.3-.2.3.6c.4,0,.3-.2.3-.4h.7v-1.1l.9-.6c-.4,0-.6-.5-.4-.9l-.6.2c-.4-.9.2-1.1.4-.3l.3-.3,1.1.4c.2-.7-.7-.3-.6-1.1.8,0,1.4,0,1.5-1l-.3-.2c.2-.4,0-.6.6-.5,0-.3-.4,0-.5-.3s0-.4-.3-.6l1.2-.3.2.4.6-1.5h-.6v-.5c.2-.5.9,0,.9,0v-1.1c0,0,.9-.4.9-.4v-.3c-1.1,0,0-.4,0-.5s.2-.6.3-.9c2.3-4.1,4.2-8.3,7-12.2s.6-.4.7-.7c.4-.6.4-1.7,1.1-2.1s.3,0,.4,0l-.3-.5c.2,0,.4-.5.5-.5s.3,0,.5,0,1.1-1.4,1.1-1.6-.3-.4-.4,0,.2.4-.2.6v-.4c-.6,0-1,.2-1.1.6l.7-.2c.4,1-1.1,0-1,1.2-.7,0,0-.6-.5-.6l-.4.4.3.4h-.4l-.2.8-1-.4c0,.2-.6.6-.6.6,0,0,0,.3,0,.4s-.9.8-1.1.8l-.2-.4c-.6.5-1.1,1-1.7,1.5-3.8,3.9-7,8.4-10.7,12.3-3.6,4-1.1.9-1.6,1.3-2.4,2.6-3.8,5.7-4.6,9.2s-.2,1-.2,1.1,1.4,1.1-.4.8l-.4,1.5c.7.4,1.6.6,1,1.6l.2.3c.5-.5.6-.2,1.1,0l-.3-.6c.6,0,.7,0,1-.4.3.2.2.4.3.6h-.4v.8c-.7-.4-.9.3-1.5.4l-.4-.4-.8.4-.4-.4c-.4,0-.4.4-.5.6s-.3,0-.3.2v.4c0,.3-.3.4-.3.7s.4.6.3,1.1-.3.5-.3.7c0,.4.5.9,0,1.6,0,.3,1.6.2,1.4.9l-.8-.3c-.4,1.5-2.5.3-1.2-.5-.6-.2,0-.9-.6-.9l-.6,1.9c.5,0,1.1.6.9,1.1-.8.4-2,.3-1.9,1.5l.5-.3c.5.4.4.6.3,1.1.5-.3.8.4.8,0,.8.4-.4-1.1-.4-1.1l.9-1c.5,0,.7.5,1,.8l-.3.2.7.5.3-.6h.7l.2-.6-.7.3c-.4,0-.7-.8-.6-1.1s.3,0,.4-.2,0-.3.3-.4.4,0,.5,0,0-.2,0-.3c.4-.8.7-.4,1.4-.4l1,1.1c.4-.5-.2-.8-.2-1.1s.4,0,.4-.4l-1,.3-.2-.6c.5,0,.5-.6.8-.9.5-.6.8-1.1,1.4-.4,0,.4-.4.4-.5.4-.3.3,0,1-.5.9,0,.3.4.2.4,0,.6-.4,1.1-1.7.6-2.2l-.2.4c-.2,0-.4,0-.5-.2-.3-.2,0-.5-.3-.4.2.8-.5.3-.7.4s0,.4-.2.5c-.3.3-1.1.8-1.2.2s0-.4,0-.5c-.3,0-.5,0-.7-.3l.3-.7-.3-.4c0,.7-.3.5-.4,1.1l-.8-.2c0-.5.4-1.1,1.1-.9,0-.3-.3-.9.3-1.2.3.5.4,1.1,1,1.2,0,.4-.4.4-.6.4.3.5.2.4.2.9,1.1,0,.7-.6,1-1s.4,0,.5,0,0-.5.7,0-.2.4.7,0c-.5-.4-.4-1.1-.8-1.7h.9l-.3-.8ZM46.9,128l-.2-2.3c-.3,0-.4.4-.4.5,0,.4,0,2.8,0,3.2s.3.2.3.3c0,.7-.3,1.5-.2,2.2.4,0,0-.6.3-.8.4-.5.5.7.4.9h-.4c.2,1.1.5,2.1.7,3.2.6,3.3,1.1,5.5,2.6,8.5,2.1,4.6,3.4,9.7,5.2,14.5s2,3.9,2.5,5.5,0,1.3.3,1.9.4,1.1.6,1.3v-1.1l-.8-3.2c.2,0,.4.6.4.7.2.6.3,1.3.4,2s0,.4.3.3c-.2-1.1-.4-2.2-.6-3.3s-.7-1.5,0-1.2l.5,2.6c.5-.2,0-1,0-1.5v-2l-1.9-12.4.9,2.6h-.3c.4,1.9.5,3.7.8,5.5s.3.5.3.8c.2,1.1,0,2.1.4,3.1.3,0,.2-.4.2-.5,0-2.1,0-2.6-.3-4.6s0-.6.2-.5c0,0,0,1.1.2.4,0-.8-.3-1.7-.4-2.5-.4-5.3-1.1-11-3.8-15.6s-1-1.2-1.2-1.8c-1.4-2.4-2.6-4.8-3.4-7.5l-.4.3,2.5,6.2-2.6-5.8c0-.4,0-.6-.4-.9,0,.2-.6.9-.8.8.2-.4-.2-1-.3-1.5s0-.3-.3-.3l.2,2,.4-.2v.4c-.8,0-.4-.6-.9-.9.5,1.1-.2,4.2.2,5.1s.3,0,.3.2h-.3v.3l.4.2v.4l-.3-.2c-.2.3.4,1.3-.2,1.5-.2-1.6.4-3.5-.4-4.9.3-.4.3-.7,0-1.1s-.9-.4-.4-.8h.4l-.4.4ZM54.6,135.7l-4.3-8.4c1.1,3,2.4,5.9,4.3,8.4ZM11.7,130.7c-.4-.3,0-.7-.2-.9s-.4-.2-.4-.4,0-.7-.4-.8l.3,2.1.8-.2h0ZM14.3,134.3c-.7-.9-1.1-2.2-1.9-3v1.1h-.4c.4.9.4.3.8.3.9,0,.7,1.1-.2.8l-.4-.6c-1.1,1.4,0,.8,1,1.1l.2-.3c1,.5,1.1,1.7-.3,1.2,0,.5,0,.6-.4.9l.9.9c0-.4.4-.4.8-.4-.9-1.4.5-1.9.4-.5s-.4.4-.4.8h.6c0,.5,0,.6-.4.9l.4.7.6-.2-.3-.6c.7-.3.5.2.8.4s1.3.7.5,1-.5-.6-.7-.4c0,.4-.5.3-.8.7l1.5.9c.3.4-.8,1.2-1.2.8v.8l.3-.4h.4v.4l1.4-.6.2.9h-.4c0,1,0,.7-.8.8s-.4,0-.2.3c.6,0,.7,0,.9.6l.9-1.1h.3l.2.4.7-.3c0,.4-.5.5-.6.8-.3.5.4,1.8-1.1.7-.3,1.5,1.8.8,1.9,0s-.7-.2,0-.7c.6,0,.5.5.5.9l.9-.8c.3.5-.2.8-.4,1.2h-.9c0,.3.3,0,.4.4s0,.7-.3.9-.6,0-.5.4c.2.5.4,0,.4,0,.4,0,.7,0,.9-.4l.8.4c0,.4-.8.8-.8.8.3,1,.7,0,1.1,0,1,.5.4,1.3-.5,1.1-.2.2.8,1.1.9.8,0-1.2.6-.5,1.1-.4s.4,0,.4,0c.4.3.2.8-.3.5-.4.4.3.2.4.4s.3,1.4.4,1.5c.4.2,0-.4.4-.6s.5,0,.7,0l.2.7.7.2v.8c.9-.3,1.4.7.4,1l1.6,1.3c.2-.5.6-.5,1.1-.6v.8c-.2,0-.7-.2-.6.3l1.4,1.3c0-.5.5-.3,1-.3l-.6.6c0,.4.4,0,.8.3,0-1.7.3-.6.6-.2s.8.3.9.7-1.1,0-1.4,0l.9.9v-.4h.9q.2.2,0,.4c-.3.4-.9,0-.7.4.4.8.8,0,1.4.3v.4l-.5.2.8.6c.7-.7.4.4,1.1.2.2.6-.5.4-.3.9s.8.5,1,.6c.3.3.8,1.4,1.1,1.8,1,1.5,2.9,3.4,4.1,4.8,1.9,2.4,3.7,5,5.7,7.4s2.6,2.4,4.1,3.6h.3c-.4-.6-1.1-1-1.6-1.5s-.7-.8-.6-1.1c.9,1,1.9,1.9,2.7,2.7s0,.4.2.4.7.3.8.4l-1.5-2c-1.3-1.1-2.3-2.6-3.3-3.9l-3.3-5c.2-.6.4.3.5.4.3.4.9.6.7,1.2h.4c0,.3.5,1.3.8,1.7s.5.4.4,0c-.9-2.2-2.3-3.9-3.3-6s-2.6-6.3-3.7-9.3-.4-1.7-.7-2.4c-.4-1.1-2-2.5-3-3.3-4.2-4-9.3-6.7-14-9.8s-6.4-5.7-8-7.7v.4ZM74.3,136.3v2.8l-.3.3-.4-5.6c-.3,0-.2.8-.2,1,0,1.1.2,2.6,0,3.7s0,.4-.3.5c-.2-2.3.3-5,0-7.2s0-.3-.3-.3l-.4,4.6-.3-.8v.9c-.4-.3-.3.3-.6.3.4-1.1.7-2.4.8-3.6s0-.6-.2-.5c0,.4-.2.8-.4,1.1-.5.9-.9,1.9-1.3,2.5-3,4.8-5.8,9.8-7.4,15.2s-.7,3.7-1,5.6c-.8,4.1-1.8,8.3-2.3,12.4s0,2.4-.4,3.5l.4.2c-.5.3,0,.4,0,.7,0,1-.4,1.9-.4,2.8.2.2.3-.2.3-.4,0-1,0-1.9.3-2.9s.2-.3.2-.4c0-.9,0-1.8.4-2.6-.8-.3,0-.4,0-.4,0,0,0-.3,0-.4.4-2.6.9-5,1.3-7.6.6,0,0,.7,0,1.1-.3,1.8-.4,3.6-.6,5.5l-.3.3c0,0,.3,0,.4,0,0,.2-.2,2.4-.2,2.7v.9c0,.4-.2,1.1,0,1.6l.4-.8.3.6c.4-2.2.7-4.7,1.3-6.9s.3-.3.2,0c0,.7-.4,1.4-.5,2s-.2.7-.3,1.1-.8,4.1-.5,4.1l.3-.8q.4,0,.3.4c0,1-.8,2.8-1,3.9s-.4,2.1-.5,3.3l4.5-11.9h.4l-1.7,4v.5c.3-.4.2-1.1.7-1.1,0,.7-.4,1.4-.7,2.1s-.2.5.2.2l2.2-4c.9-1.6,1.9-3.4,2.6-5s.9-2.7,1.1-2.5v.4c.6-1.6,1.5-3.4,1.9-5s.3-1.1,0-1.5l.3.2c0-.8.2-1.4.4-2.2s.4-1.3.6-2.3.4-1.4.5-2,0-.5-.2-.5l-.4,1.7c-.3,0-.2-.4-.2-.5,0-.8.5-1.8.7-2.6s.2-2.2.5-3.2l-.3-.4.4.2c.3-2.8.4-5.6.2-8.4l-.3-.3h-.3ZM30.2,134.1c-.3-.5-.8-.9-1.4-.9,0,.7.8.9,1.4.9ZM38.1,138.1c-1.1-.6-2.1-1.2-3.1-1.9s-2-1.9-3.3-2.1l6.2,4.3.3-.3h0ZM31,135.4l-1.1-.6c.3.4,1.5,1.2,1.7,1.7s0,.3,0,.3l-.9-.9c-.2.2.3.6.4.8.4.6.4.4.5.6s.8.9.6,1.1l-.4-.3c.2.3.3.7.4,1.1,1.3,2.3,2.8,4.7,4.1,7,3,5.3,5.6,11,7.6,16.4s1,2,1.6,3.3,0,.5,0,.7.4,0,.5.4,0,.6,0,.9l.4-.6.5.7-.6.4.3,1.1.4-.5c.6-.3.4.4.4.6.2.4.4.7.5,1.1h-.8l.9,1.7.8-.2v.8c0,0,.7.2.7.2l-.4.7v.5l.4.2.9-.9.4.3-.3-.7.4-.3c.3.4.3.5.9.4,0,.5-.2.4-.4.7l.4.6c1.1.2.9-.8.8-1.6-.4,0-.8,0-1.1-.4,1.3-.5.2-.8.2-1,0-.3.4-.9.6-1.1q-.4-.2-.3-.5h.5c.2.7.7,1,1.5.9l-.3.4h-.5c0,0,.2.3.2.3h-.4c0,.4.4.4.5.5s.4,1.1.4,1.1.4,0,.5.3-.2,1.2-.7,1.2l.3.5c.3,0,0-.3.4-.4s.4,0,.5,0,.6-.5.4-.7c-.8.4-1.1-.5-.3-.4s.4.5.5,0c-.4,0-1.1-.4-.9-.9l1.3.2-.2.7h.3c.3-.4,0-1,0-1.3s.7-.6.8-1c0,0,0-.2-.3-.2-.5.2,0,0-.5,0s-.3-.3-.5-.2c0,.6.6.6.4,1.4h-.8l.2-1.1c-1.4-.3-.3-.6-.2-.8s-.6-.6,0-1.1c-.4,0-.5,0-.5-.4l.9-.3c-.3.8.8.9.4,1.8l1,.4.2-.4.4.3v-.9l-.8.3c-.7-.4-.3-1-.3-1.4s-.6-1.5-.4-2.2l-.5-.2-.4.4-.4-.3.2-.7.4.3c.2-.6-1.1-1.6-.3-2.1s.6.4.4-.3,0-.3-.2-.3l-.9-.4v-.8h.6s-.4-1.5-.8-1.2c0,.8-.4,1-.9.4s0-.7-.3-.8c-.4-.2,0,.6-.6.5s-.6-.5,0-.7.2,0,.4-.5.3,0,.3-.3c.2-.4,0-.9.6-.8l-.6-1.9c-.5,0-.2.4-.4.7h-.6c0,.7-.3,1.1-.9,1v-1.1c0,0,.3-.2.3-.2v.3c.4-.3.5-.7.4-1.1h.6l-.3-.9-1.4.3c-.4-1.2.8-.6.9-1l-.3-.8c-.3.2,0,.5-.6.6l-.2-.7.4-.4c-.4-.6-.8,0-1.1-.5-.4.2,0,.4-.2.6-.2.7-.7.4-1.1,0l.6-.4-.3-.4v-.4c-.6,0-.2-.9.4-.6s.4.3.5.4c0,0-.8-1.1-.9-1.4s0-.4,0-.4c0,0-.3,0-.4,0-.4-.4-1-1.9-1.4-2.4-1.4-2-3.8-4.5-5.5-6.4s-2.7-2.8-3.9-3.3-.3,0-.3,0c0,.3,1.2.7.5.9-.7-.6-1.7-1.6-2.5-2.1s-.4-.3-.5,0c1.3,1.1,2.6,2.4,3.8,3.7s1.1,1.3,1.4,1.8.3.4,0,.5c-1.2-1.3-2.2-2.7-3.4-4.1s-2.4-2.3-2.6-2.4-.3,0-.3.3l2.7,3.1-.3.3c-.5-.8-1.1-1.7-1.9-2.4s-1-1.1-1.6-1.1c-.3.2,0,.4.2.4.6.7,1.2,1.4,1.9,2.1s.4.3.2.4c-1.4-1.4-2.5-3.2-4-4.4l-.3.4c0-.3-.4-.7-.5-.9l.4.3ZM57.5,135.3l-.8-.2c-.2.3.7,1.4.4,1.9.4,0,.3,0,.4-.3.2-.4,0-1,0-1.4ZM107.4,139.3v-.3l-.9,1h.6l-.3.9,1.1-1.4c0-.2-.3,0-.4,0h0ZM105.2,143.6c.5-.6,1-1.5,1.2-2.3-.5.6-1.1,1.5-1.2,2.3ZM105.2,142.2l-1.1,1.1-.2,1c.3-.4.7-.9,1-1.4s.4-.3.3-.6ZM103.8,144.4l-.4-.2-1,1.5c.4,0,.6-.4.8-.7s.6,0,.5-.6h0ZM102.6,147.8l.4.3.6-1.1-.4.4c-.7-.3-.4,0-.7.2s-.4,0-.6.2-.6.9-.5,1.2c-.5,0-.8-.5-1-.9-.6.5-1,1.4-1.5,1.9-3.5,3.6-7.4,7-11,10.3-3.6,3.3-5.7,5.6-9.3,7.8s-1.9.7-2.5,1.4c.4,0,1-.7.9,0-1,.3-2,1.1-2.9,1.7l-1.1,1.4c.2.2,1.8-1.7,1.5-.4-.2,0-.4,0-.5,0-.6.4-2.1,1.5-2.6,1.9s-.4.3-.2.4l7.6-4.2.2.2-8.4,4.6-2.3,2.4,2.7-1.5c1.2-.2,2.2-1,3.4-1.1l4.3-1.9h.4c0,0-.4.4-.4.4.7-.2,1.8,0,2.3-.4s0-.3.3-.3c2.6-.7,3.2-.7,5.2-2.4s5.4-4.8,7.3-7.9.6-.2.4-.7h.4c0-.5.4-1.1.7-1.5,1.9-2.8,4-5.8,5.8-8.8s1.2-1.4,1.3-2.4c-.5-.2-.4.7-.5.9s-.5,0-.4.4c-.7-.5.4-1.2.8-1.5s-.4,0-.3-.5.5,0,.6,0v-.3h0ZM16.6,151.5c-.3-.2-.5-.2-.7-.3-.8-.5-1.6-1.2-2.4-1.7s-.4-.4-.5,0c1.9,2,4.4,3.3,6.6,5,0,0-.2,0-.3,0-.4-.2-1.1-.8-1.5-1-1.5-.8-1.2-.7-2.4-1.6s-1.8-1.1-2.6-1.9c-.3.3,0,.4.3.4.4.4.6.9,1,1.3l6.1,4.8h-.3l-2.9-2.2-.3.3,3.6,3.3c1.6,1.4,2.3,1.9,4,3.1s2.2,1.8,3.3,2.6c.3-.8.7.4,1.4.2l-.2.6c.3,0,0-.5.5-.3.8.4.3.8.3,1.1,0,.4.7.7.9.4l-.3-.9c1,0,.4.8,1,1.2,1.8-1.3.7.7,1.3,1.1s.7,0,.9,0,.3.7-.2.7-.8-.4-.9,0c.4.4.9.3,1.1.4s.3.9.9,1.1l.4-.8c-.4,0-.9-.8-.8-.9l.8.2c0-.4,0-.9.5-.8.4,0,0,.9.5.8-.2-.4.4-.6.5-1.1.4.6,1.5,0,1.6,1.1-.4-.2-1.1.4-1.1.4s-1.1-.5-1.4-.3c.6.6,2.4,1.9,0,1.1l-.7.4v.3l1,.2.2.8.3-.9h.9v-.5c.5,0,1.3.3,1.2.9l.4-.4c-.7-.3-.4-.9-1.1-1.2l.3-.4c.7.5.8-.6.4-1s-.7-.2-.9-.4,0-.4,0-.6c0-.4-.9-.9-1.1-1.2l-.5.6.9.3v.6c-.4,0-.5,0-.9.4l-.4-.2c0-1.4-.2-.8-.8-1.1s-.2-.4-.3-.4c-1,0-.3,0-.7-.2s-.5,0-.7,0l.3-.8c.5.3,1.6.9,2.1.9s0-.5.3-.6l.9.3-.7-.8c-.2.5-.4.3-.9.4s-.3.2-.4.2c-.8,0-.6-1.1.3-.7,0,0-.5-.4,0-.6s.3.6.7.4c-.2-.6-.8-.9-1.3-1.2l-.3.3h-.4l-.5-.5.3-.5c-.3,0-.4.3-.5.3s-.6-.4-1-.3l.6.8-1.1-.2.6-1.7c-.8-.2-2.3-1.7-2.8-1.8s-.8.6-1.2.4v-.6h.4v-.4l-9.3-5.8c-.4,0,0,.2,0,.3,1.2,1.1,2.8,1.9,4.1,3,0,0-.2,0-.3,0-.9-.3-3.4-2.5-4.5-3.2s-1.2-.8-1.8-1.2v.4ZM60.8,154.3l-.9.2c.2.7-.2,1.1.5,1.5l.4-1.7ZM73.8,158.3l-.4-.3c-.4-.2-.4,1.1,0,1.3.4.2.4-.9.4-1.1h0ZM54.8,161.1l-.5-1.2c-.4.3-.4.6-.4,1.1l.9.2ZM110.2,165.4c-.4-.3-1.5.4-1.9.3,0,.5.4.2.6.3l-.3.9,1.9-.9s-.3-.5-.3-.6h0ZM106.4,165.9c-.5.3-1.7,0-1.7.8h.8v.4l-.5-.2-.4.6-.3-.4-.5,1.1c-.8,0-.5-.5-.6-.6s-.5.4-.7,0v-.9l-1,.2.2.6c-.3.3-1.7-1.1-1.2.4-.2.2-2.1-1-2,.4l-.3-.2-.3.6h-.4l.2-.6h-.5c-2.8.8-5.8,2.4-8.5,3.4-4.6,1.9-9.7,2.6-14.3,4.4s-1.6.7-2.1,1.1c.7-.2,1.3-.5,2-.7s.4-.3.4,0c-.4.3-1,.2-1.2.4s0,.3-.3.4c-3.1,1.3-5.5,2.1-8.1,4.2s-.7.6-.9.9l6.6-4c.4,0,0,.2,0,.3-1.1.7-2.5,1.3-3.6,2l-2.2,1.7,1.9-.5c.4-.4,1.1-.6,1.6-.8s.5-.6,1.2-.3l-.3-.2c.4-.7.5,0,.5,0l3-1.2c1.2,0,2.5-.4,3.6-.6s.7-.2.7.2c-2.2.6-5.5,1-7.5,2s-.3.3,0,.3c1.3-.5,2.6-1,4-1.3s.5-.2.5,0c-3.3,1.1-7,1.9-10,3.6l-.6.6,7.4-2.7.5.2-4.8,1.5.3.3c.2-.2.4-.4.6-.4,2-.6,4.5-1.4,6.4-1.9s2.5-.3,3.7-.6c0,.4,0,.3-.4.4-1.9.6-4.1.8-6.1,1.4s-1.5.6-2.3.7l.6.2-.5.2v.3l3.7-.8-.3-.3h1.1l-.2-.3c1.7,0,2.9-.7,4.4-1.2v-.4l.4.4c2.2-.4,4.4-1.9,6.6-2.3s.5,0,.3.2l-7.4,2.8-3.8,1c0,.3.4.2.5.2.5,0,1.7-.3,2.1-.4s1.1-.5,1.6-.6c4.6-1.2,9.1-1.9,13.5-4s.6-.5,1.1-.5l-.4-.3c-.3-.5.2-.5.6-.5v.6c1-.2,1.5-.9,2.2-1.3,2-1.2,3.9-2.4,5.9-3.6s.4,0,.5-.2c.4-.3.6-.9.9-1.3l.3.4.4-.2c-.4-.6.3-1.1.5-.4.7-.7,1.5-1.1,2.3-1.6s.2-.3.3-.4c.4-.3,1.9-1,1.9-1.3l-.2-.6.4-.2c0-.5-1,.3-1.1.4,0,.2.2.5,0,.7s-.7.3-.8,0l.3-.5c0,.4-.8.4-.9.4,0,0,.3.4,0,.5h-.4c-.3-.4.2-.5.3-.8s-.2-.4,0-.5c0-.4.9,0,.7-.5v-.2ZM39.8,169.1c0,0,0-.5-.2-.7-.3,0,0,.2-.2.3-.2,0-.4,0-.6,0l.9,1.2c.4,0,0-.7.5-.6,0-.4-.4-.2-.4-.2ZM73.1,169.2s0-.3,0-.3l-1.3.8.6.3-.2-.3c.6,0,1.1-.4,1.3.3l.4-.8h-.7ZM16.5,170v.2c.7.2,1.4.6,2.1.9s.5.2.3.4c-3.7-1.1-7.5-1.9-11.4-1.9l.2.3c4.1,0,7.9,1.3,11.8,2.5.4.4,0,.3-.2.2s-1.6-.6-1.7-.5l.3.4c0,0-.2,0-.3,0-1.2-.2-2.7-.8-4.1-1.1s-1.6-.3-2.3-.4-.5-.2-.4,0c1.3.5,2.7,1,4.1,1.5s3.2,1.7,4.8,2.6.4,0,0,.4c-.5,0-1.1-.6-1.5-.8-.7-.4-2.1-.6-2.8-1.1s-.2-.9-1-.8c-1.1,0-2.8-1-4.1-1.5s-.9-.4-.7,0c1.7.9,3.3,1.9,5,2.6s4.8,2.2,7,3.4.2.4.4.4.6-.2,1,0v.6c.4-.3.5-.4,1-.2v.4l.7.4v-.3c.4,0,.7,0,.7.4l-.3.2,1.5.8c.4-.3.4-.5,1.1-.2l.4-.3v.7l-.4.4c.4,0,1.4-.9,1.7-.6v.9l-.3.2c-.2,0-.6-.4-.5.2.5,0,1.1.6,1.4.6s0-.6.6-.4,0,.7,0,.8.6.3.7.3.5,0,.3,0l-.2-.3c.4-1.1.5-.3.5-.3l.5-.3c0-.3-.2,0-.2-.2-.4-.5.2-.7.7-.4.8.4.4,1-.3.4l-.5.9c.6.2.8.9,1.5.8l-.4-.4v-.6h.7v.4c.2.5.4-.5.9-.4l.4.5-.4.7,1.9.3c.6,0-.3-.4-.4-.3l.2-.6c-.5-.2-.3.5-.5.6s-.9-.7,0-.8l-.3-.5.4-.3,1.4,1.2s.8-.7.8-.8c0-.3-.2-.5,0-.6s.3,0,.4,0c.2,0,0-.4.4-.3l.4.9h-.6c.4.7-.4,1-.4,1.5h1.2c-.5-.7-.4-2.1.8-1.5,0-.3-.3-.4-.3-.5s.6-1,.6-1c.7-.2,0,.6,0,.7,0,.3.2.6.4.8l-.2.4c.6.2,2.4-.8,1.5.6,0,0,1-.4,1.1-.4.2-.2-.4,0-.3-.5,1-.6.4,0,.5.4l.7.3c0-.7.5-.7.9-.3l.5-1.1c.9,0,.6.7,0,1.1l.9.2c.3-.4-.2-1.4.3-1.5l1,.5c-.2.4-.2.4-.6.4,0,.5,0,.4.4.6l.4-.4.5.2c0-.4-.3-.3-.4-.4s0-.4.2-.4,1.1.4,1.1.5c0,0,0,.4.2.4s1.1.2,1.1.2v-.3c.5-.7.3-.3.8-.3s.4,0,.6,0l-2.3-1.4c-.2.8.9.5.9,1.3l-.7.2-.4-.6c.8-.3,0-.7-.3,0l-.7-.7.6-.5-1-.3c-.2,0-.4.5-.7.6s-.4-.2-.7,0,0,.9-.9.6c-.8-1,.4-.5.4-.6v-.4c.2-.2.9,0,.9-.6-.4-.2-.9-.5-1.4-.7s-.4,0-.5,0,0-.3-.2-.3-.4.2-.6,0-.8-1.2-1.5-.7v.8c-.7-.2-1.5,0-1.4-.9l.5.2v-.3l-.4-.2v-.4l-.3-.3c-.4,0,0,.8-.2.9-.3.3-1,.3-1-.2,0-.8.8-1.2-.8-1.3.2.5.7,1,.2,1.5h.4v.4h-.8c.3-1.1-1.1-1.3-.6-2.5-.8-.4-.9,0-1.5.3l-.4-.3v-.6h-1.1c0-.6-.4-.4-.8-.8v.4c-1.1.3-.4-.9-1.4-.9v.4c-.7.2-.9-.9-1.3-1s-.7.2-1.1,0-.3-.4-.5-.5c-.8-.4-5-1.5-6.1-1.7s-.4,0-.4.2l.9.3c.3.2-.2.2-.3,0-.8-.3-1.7-.7-2.5-1.1-3-.8-6-1.7-9.2-1.5s-.8.2-1.1.2l1.1.4c1.2-.2,2.3,0,3.4.4,0,0,0-.4,0-.3l3.3.9c-1.1-.2-2.2-.4-3.3-.6h-.3ZM69.5,169.8c0,0-.5-.4-.6-.4-.6.4-1,1.1-1.4,1.8,0,.3.3.2.3.4,0,.3-.3.8,0,1,.7-.5-.3-1.6.7-2.2h.9c.2.4-.4.2-.3.4s.3.3.4.3c0-.4.3-.8,0-1.1h0ZM41.9,171.5l-1.1-1.5-1.1,1.3.4.5.7-1.3h.4c.2.4.4.8.9,1h0ZM38.1,170.5l-.6-.2-.2.6-.9-.3c.3.2.8,1,1.1,1.1s.8-.3,1.2.4c0-.2,0-.6,0-.7,0-.4,1.1-.4-.2-1.1v.8c-.4.7-1.5.4-.8-.4s.4,0,.3-.3v.2ZM71.1,171.1c-.7,0,0,.9-.2,1.1s-.7.5-.4,1.1l1.1-1.1v-.2l-.5-.4v-.6h0ZM42.2,173.1s.3-.5.4-.7l-.4-.5c0,.7-1,1.2-1.1.3l-.4.4c0,.2.6.4.8.5s.6,0,.7,0h0ZM69.4,174.6l.5-.6-.5-.4-.9,1.7.9-.7ZM44.4,174.5c-.4-.4-.8-.4-1.1,0,.4,0,.6.4.9.8l.7-.2c0-.3-.3-.2-.4-.4s0-.4-.2-.4h0ZM46.2,177.4c-.3-.6,0-1.2-.8-1.5-.3.6,0,1.4.8,1.5ZM57,176.3c-.6,0-1,.3-1.1-.4l-.2.4h-.3c0,.9.6.5,1.3.9.4,0,.2-.5.3-.8h0ZM68.8,183.1c-.7,0-1.3.4-1.9.7s-.4-.2-.6.3l-2,.8c.6,0,4.1-.8,4.3-1.1s-.4-.3-.3-.4l.4-.2h0ZM77.8,183.5c-.2,0-1.1.4-1.5.2,0,.3.4.2.4.4,0,.4-.4.4-.7.3s-.4-1-1.2-.3c.3,0,.4.2.3.5h.4c0,0,.3.4.3.4-.4.3-.6-.2-.9-.2s0,.3-.2.3c-.4,0-.8,0-1.1.2.4.4.7.9-.2.6-.2.7.6.8.8,1.4l-1.1.4c.5.4.4-.2.5-.2.3,0,1,0,.8.4-.7-.3-1,.6-1.5.3l-.2.9h.8c-.3-.7.4-1.1,1-.8s1,.4,1.8.5,1.5-.4.9.4l-.4-.2.3.4-.5.4.2.3c.3-.3.7-.2,1-.3.4-.2.4-.5,1.2,0-.2.4-.4.5-.2.9h-.4c.4.4-.3,0-.2.6h.9c-.2-.4,0-.7.3-.9l-.3-.4,1.5.3-.4.4c.9.7,1.5,0,2.4,0s1.7.4,2.4,0l-.4-.3c.3-.4.6-.6.9-.2l-.3.5c.9.3,1.8.2,2.6-.3l.2.6c0,.2.2.2.4.2h.3c.2,0-.2,0,.6-.2s.4-.2.5-.2l-.2-.4c.6,0,.9.4,1.5.2-.4.7,1,0,1.2.2-.4-.6.8-1.1.6-.2l.4-.4c1.4.7,1.1-.3-.2-.4v-1.4h-1v-.4l-.6.3.2-1.2-.5.4-.4-.2.3-.6c-.4-.4-.9.7-1.1.4-.4-.4.6-.7.4-.8-1.4-.5-2.8-1.3-4.3-1.8s-4.7-1.2-6.2-1.4-1.3,0-1.9,0v.9l-.4-.4c-.2-.3.6-.3.3-.5l.2.4ZM74.1,184.4v-.3l-.2-.2-1.1.2.3,1.1c.2,0,.3-.3.4-.4s1,0,.6-.4h-.2.2ZM73.3,185.5l-.5.2c-.5-.3.4-.6-.2-.8s-.3.4-.4.4h-.4v.4l.7.3-.6.3c0,.6.4,1.3.9.7-.7-.6.4-.7.4-1.3h.2ZM95.6,190s0-.4-.2-.3v.6l-.9-.2c0,.3,0,.4.4.4s1.9-.4,2.3-.5.4,0,.4-.3c-.4-.2-1.7.4-1.9,0h0ZM84.7,191.7c-.3-.4-1.2-.2-1.7-.3,0,.7,1.2.4,1.7.3Z"/>
      <path class="st0" d="M76.6,158.9c.4,0,.9.6,1.4.6,0,.4-.3.5-.6.6,0-.5-.6-.4-.7-.6s0-.4,0-.6h0Z"/>
      <path class="st0" d="M44.5,35.7c0,0-.4,1.1-.8.8l-.6-1c.4-.6.7.4,1.4.3h0Z"/>
      <path class="st0" d="M62.5,49.5c-.4.7.3.5.2,1.1s-.9-.3-.8-.9c0,0,.6-.3.6-.3Z"/>
      <path class="st0" d="M56.1,168.1l-.5.2c-.3-.8-1.5,0-1-1.2.6.2,1.5.3,1.5,1.1Z"/>
      <path class="st0" d="M54.8,164c.3.4,0,.7,0,.8,0,.2.3.3.3.4,0,.5-.6.4-.7,0l.3-.5c-.6,0-.4-.5-.4-.9l.7.2h0Z"/>
      <path class="st0" d="M54.4,162.3s.2.3.2.4c0,.7-1.1,0-1.5-.2l.4-.5c.2.2.8.2,1,.4h0Z"/>
      <path class="st0" d="M52.6,159.6c0-.2,0-1.1.2-1.1,1.1.5.2,1.8-.2,1.1Z"/>
      <path class="st0" d="M53.8,169.6c.4-.3,1.2.7.4.9s-.5-.8-.4-.9Z"/>
      <path class="st0" d="M39.8,140.8c.2.2.5.4.7.6l.6.9c0,0-1.9-1.7-2-2,.4,0,.4.4.7.5Z"/>
      <path class="st0" d="M62.9,169.2h.3c0-.4.3-.4.2,0-.2.8-.7,1.7-.8,2.6-.4-.4,0-1,.2-1.3s0-1.1,0-1.4l.2.3h0Z"/>
      <path class="st0" d="M74.3,144.5c-.4-.3-.4-1.3-.4-1.8s0-1.1.4-1.3v3.1Z"/>
      <polygon class="st0" points="64.5 151.9 64.4 151.4 65.6 149.1 64.5 151.9"/>
      <path class="st0" d="M61.8,161.3c-.3,0-.2-.5,0-.7,0-.7.3-1.4.5-2.1.4.8-.5,1.9-.4,2.7h0Z"/>
      <path class="st0" d="M17.1,139.3l.4.6.4-.4.6.3c0,.5-.4.3-.4.3-.3.3,0,.3.3.3s.3.2.2.6l-.7.2c-.2-.4,0-.5,0-.9h-1l-.2-.7.4-.3h0Z"/>
      <path class="st0" d="M25.2,149.9c-1,.4-1-.6-1.1-.8s-.7.4-.6-.4h1.2l.4,1.1h0Z"/>
      <path class="st0" d="M28,152.3c0,.3.5.6.2.9-1.5.2-1.7-.4-.2-.9Z"/>
      <path class="st0" d="M46.7,174.1l1.7,2.4c-.9-.6-1.3-1.7-2.1-2.4h.4Z"/>
      <path class="st0" d="M23.4,147c0,.3-1.2,1-1.4.8l.2-.7h1.2Z"/>
      <path class="st0" d="M21.8,145.6c.5,1.2-.7,1.1-.7,0s.6-.3.7,0Z"/>
      <path class="st0" d="M31.1,154.4c0,0,.3.2.4.2.3.4-.4.7-.6.2s-.4-1.1,0-.8c.2,0,.2.3.3.4Z"/>
      <path class="st0" d="M44.2,171c-.6-.6-1.3-1.4-1.5-2.3l1.5,2.3Z"/>
      <path class="st0" d="M100.6,169.5c0,.3.9.4.6.7s-.9-.2-1.2,0v-.6s.6,0,.6,0Z"/>
      <path class="st0" d="M101.5,171.5c0,0-1.7,1.5-1.2.2.5,0,.4-.5,1.2-.2Z"/>
      <path class="st0" d="M45.7,179.1v.4c.8-.8,1.5.3.5.3s-.5-.2-1,.2c0-.3-.4-.4-.4-.6-.2-.6.6-.5.8-.3Z"/>
      <path class="st0" d="M42.2,180.1s-.4.3-.4.4c-1-.2-.4-.9,0-1.3l-.3-.2.6-.4c-.2.4,0,1.1,0,1.5h0Z"/>
      <path class="st0" d="M45.2,181.1s0,.4-.3.4l-.7-.2.7-.9c.2,0,.6,0,.6.3.2.5-.4.4-.4.4h0Z"/>
      <path class="st0" d="M54,137.5c-.6-.7-1.3-1.9-1.5-2.9l1.1,1.9.4,1.1h0Z"/>
      <path class="st0" d="M75,156.1v.7c0,.4-.9,1-1.3.4s1.1-.4.8-1.1h.5Z"/>
      <path class="st0" d="M76.2,154.6c0,.4,1.1,1,.4,1.2s-.3-.9-1-.6c0-.2.4-.8.6-.6Z"/>
      <path class="st0" d="M82,153.4l-.2.7c-.8.5-1.2-1.1.2-.7Z"/>
      <path class="st0" d="M77.8,158c-.3.4-1.2.2-1.1-.3.3-.8,1.3,0,1.1.3Z"/>
      <path class="st0" d="M77.2,172.5l-1.1.7c-.9.5-1.9.7-2.8,1.1s0,.3-.3.3c-.8.4-1.7.7-2.5,1l2.9-1.5,3.9-1.6h0Z"/>
      <path class="st0" d="M78.5,169.4l-.6.5c-.4,0-2.2,1.1-2.3,1-.3-.3.2-.4.3-.4.8-.4,1.1-.5,1.8-.7s.5-.4.9-.4h0Z"/>
      <polygon class="st0" points="82 166.5 80.1 167.8 79.5 167.9 81.3 166.8 82 166.5"/>
      <path class="st0" d="M63.1,138.2c-.9.7-.4,1.1-.5,2l-.8.4c-.6-.7.8-1.1-.5-1.8.5-.4,1.1-1,1.9-.7Z"/>
      <path class="st0" d="M61.6,143.8c.7,0,.9.8.2.7s-.4-.4-.6-.2l.3.6-.7.3v-1.5l.6.2.3-.8v.8h0Z"/>
      <path class="st0" d="M62.7,136.3c0,.7-.8.4-.3,1.3-.5.2-1.1.8-1.6.2,0-.6.4-1,.9-.6l.4-1.1s.6.2.6.2Z"/>
      <path class="st0" d="M60,140.7l.2.6c.3,0,.4-.3.7-.4.5-.3.4.3,0,.4,0,.5,1.1,1.1-.9,1l.2-.9-.4.2v-.5c0,0,.4-.4.4-.4h-.2Z"/>
      <path class="st0" d="M61.9,147.8v.4h-.6v.8l-.8-.2-.2.4c-.4.3-.8-.4,0-.9s.9,0,1.1-.6h.5Z"/>
      <path class="st0" d="M61.9,130.1s-.2,0-.3.2,0,.4,0,.6c-.5.2-1.4-.2-.9-.8s1.2-1.1,1.2-.2v.2h0Z"/>
      <path class="st0" d="M63.3,141.4c.2,0,.4,0,.6,0,.2.3,0,.7-.3.8s-.2-.5-.4-.6c-1,1.1-1.1-.2-.3-.8.3,0,.3.4.4.4h0Z"/>
      <path class="st0" d="M64.4,137.5l-.3,1.1.6-.2.2.6c-.7-.3-1.3.4-1.4-.5l.3-.2v-.5l.6-.4h0Z"/>
      <path class="st0" d="M61,146.7l-.2-.6,1-.6.4.4c0,.9-.6.9-1.3.9h0Z"/>
      <path class="st0" d="M63.8,127.7c.2.2.3.3.4.4l-.6.3v.6c-.6-.2-1-1-.2-.8l.3-.8c0,0,0,.2.2.3h0Z"/>
      <path class="st0" d="M59.6,135.9c-.2.3.7,1.1.3,1.2-1,.3-1.2-1.3-.3-1.2Z"/>
      <path class="st0" d="M64.6,131.5l.3.2c0,1.9-1.9.5-.3-.2Z"/>
      <path class="st0" d="M60.6,135.2l-.2.4c.5,0,.3.8,0,.7-.5-.4-.6-.6-.7-1.2l.9.2h0Z"/>
      <path class="st0" d="M63.9,134.5c0,0,0-.4,0-.6.8,0,.4,1.3,0,1.4-1.5-.6-.2-.6,0-.8h0Z"/>
      <polygon class="st0" points="64.4 135.9 64.4 136.6 63.3 137 63.3 136.3 64.4 135.9"/>
      <polygon class="st0" points="60.7 139.8 60.2 139.8 60 138.6 60.7 138.7 60.7 139.8"/>
      <path class="st0" d="M60.7,131.7s-.6.4-.7.6l-.4-.3.3-.9c.3,0,.9.4.8.6h0Z"/>
      <path class="st0" d="M63.4,143.2v.6l-1.1.2.2-.7c.3-.3.6,0,.9,0h0Z"/>
      <path class="st0" d="M59.3,139.9c0,.2.4,0,0,.7h-.3c-.3-.4-.8-.7,0-1.1,0,0,0,.3,0,.4h0Z"/>
      <path class="st0" d="M63.8,125.4c0,.2.4,0,0,.8l-.4-.3-.2.4.3-1.5c.3,0,0,.4.2.5h0Z"/>
      <path class="st0" d="M63,127.5c0,.2,0,.4-.2.4l-.2-1.2c.3,0,.7,0,.8.3.2.4-.4.4-.4.6h0Z"/>
      <path class="st0" d="M85.2,189.9c0,0-.4,0-.5.2s-.2.4-.3.4-.9-.3-1-.5c.4-.4.6-.4,1.1,0v-.6c.2-.4.8,0,1.1-.2s.3-1.1.7-1.1.4.4.2.6c-.4.3-.9.9-1.2,1.1Z"/>
      <path class="st0" d="M92.3,189.8s-.4,0-.3.2l.6.3c-1-.3-.4.9-1.4.8.4-.9.2-1.4.2-2.3.4-.4,1,1,.9,1.1h0Z"/>
      <path class="st0" d="M75,186.3v.4l.6-.2v.5l-.3.3s1.1.4.8.6l-1.4-.3c.5-.8-1.4-1.2.3-1.4Z"/>
      <path class="st0" d="M87.6,189.8l-.4.3c0,.2.6.4.3.6s-.4,0-.6,0l.2-.6-.6.2v.6c-1.6-.2.5-1.3,1.2-1.1Z"/>
      <path class="st0" d="M89.7,190.4c-.5.3-1,.7-1.7.4,0-.4,0-.3.3-.4.4-.2,1.2-.6,1.4,0Z"/>
      <path class="st0" d="M81.2,189s0,.3,0,.3,1.4.4,1.1.8-1.1-.6-1.5-.5c-.4-.2,0-.7.3-.5h0Z"/>
      <path class="st0" d="M33,163.2l.4.8c-.7,0-.8,1-1.4,0,.6,0,.4-.9.9-.8h0Z"/>
      <path class="st0" d="M54.6,101.8c0,.3.3.6.3.9,0,.8-.7.4-.7,0s.2-1.1.4-.8h0Z"/>
      <path class="st0" d="M56.1,26.3s-.4.2-.3.7c-.7,0,0-1,0-1.2.3-.6.6-1.5.9-2.2.4-1.2.6-2.9.9-4.1s-.2-1.2.3-1.5c0,3-.4,5.8-1.8,8.5h0Z"/>
      <path class="st0" d="M59.8,64.9l.2-.7c1.9-.5,1.2.7-.2.7Z"/>
      <path class="st0" d="M52.4,49.7c.2.4.3.6.2,1.1h-.6v-.8c-1.1.3-.8-1.3-.2-.9s.5.5.5.6h0Z"/>
      <polygon class="st0" points="53.2 52.7 53.2 53.9 52.5 54.1 52.6 52.9 53.2 52.7"/>
      <path class="st0" d="M50.4,39.6v.6c-.9.9-1.1-.6,0-.6Z"/>
      <path class="st0" d="M43.3,54.8c-.8,1.2-2.6.8-3.7.2s-.7-.6-.6-.7c1.4.8,2.6,1.2,4.3.6h0Z"/>
      <path class="st0" d="M49.8,17.7c.4.3,0,1.3-.8.8l.3-.7c0-.2.4,0,.4,0h0Z"/>
      <path class="st0" d="M73.3,162.9l.2,1.2c.7-.2,1.5-.3,1.4.8l-.9-.3v.4l-1-.3v-1.9h.4-.2Z"/>
      <path class="st0" d="M74.8,160.4c.6.4,1.4-.5,1.5.3,0,.4-.9.9-1.3.8-.4,0-.3-.8-.3-1.1h0Z"/>
    </g>
  </g>
</svg>